<svg xmlns="http://www.w3.org/2000/svg" xmlns:xlink="http://www.w3.org/1999/xlink" viewBox="0 0 873 837"><defs><style>.a{isolation:isolate;}.b{fill:url(#a);}.c{fill:url(#b);}.d{fill:url(#c);}.e,.h{fill:none;}.e{stroke:#fff;stroke-width:1.75px;}.e,.h,.i{stroke-miterlimit:10;}.f,.l,.n,.o{mix-blend-mode:multiply;}.g,.i,.o{fill:#172963;}.h,.i{stroke:#172963;}.h{stroke-width:3.77px;}.i{stroke-width:1.01px;}.j{fill:url(#d);}.k{fill:url(#e);}.l,.n{opacity:0.66;}.l{fill:url(#f);}.m{fill:url(#g);}.n{fill:url(#h);}.p{fill:url(#i);}.q{opacity:0.6;}.r{fill:#fff;}.s{fill:url(#j);}.t{fill:url(#k);}.u{fill:url(#l);}.v{fill:url(#m);}.w{fill:url(#n);}.x{fill:url(#o);}.y{fill:url(#p);}.z{fill:url(#q);}.aa{fill:url(#r);}.ab{fill:url(#s);}.ac{fill:url(#t);}.ad{fill:url(#u);}.ae{fill:url(#v);}.af{fill:url(#w);}.ag{fill:url(#x);}.ah{fill:url(#y);}.ai{fill:url(#z);}.aj{fill:url(#aa);}.ak{fill:url(#ab);}.al{fill:url(#ac);}.am{fill:url(#ad);}.an{fill:url(#ae);}.ao{fill:url(#af);}.ap{fill:url(#ag);}.aq{fill:url(#ah);}.ar{fill:url(#ai);}.as{fill:url(#aj);}.at{fill:url(#ak);}.au{fill:url(#al);}.av{fill:url(#am);}.aw{fill:url(#an);}.ax{fill:url(#ao);}.ay{fill:url(#ap);}.az{fill:url(#aq);}.ba{fill:url(#ar);}.bb{fill:url(#as);}</style><linearGradient id="a" x1="408.57" y1="713.99" x2="441.15" y2="713.99" gradientUnits="userSpaceOnUse"><stop offset="0" stop-color="#fff" stop-opacity="0"/><stop offset="1" stop-color="#fff"/></linearGradient><linearGradient id="b" x1="441.23" y1="713.99" x2="473.81" y2="713.99" xlink:href="#a"/><linearGradient id="c" x1="408.61" y1="686.26" x2="473.81" y2="686.26" xlink:href="#a"/><linearGradient id="d" x1="279.84" y1="415.96" x2="439.2" y2="415.96" xlink:href="#a"/><linearGradient id="e" x1="519.29" y1="775" x2="519.29" y2="504.17" gradientUnits="userSpaceOnUse"><stop offset="0" stop-color="#c197fc" stop-opacity="0"/><stop offset="0" stop-color="#172963" stop-opacity="0.1"/><stop offset="1" stop-color="#172963"/></linearGradient><linearGradient id="f" x1="-12799.62" x2="-12799.62" y2="504.17" gradientTransform="matrix(-1, 0, 0, 1, -12439.9, 0)" xlink:href="#e"/><linearGradient id="g" x1="280.04" y1="280.27" x2="598.97" y2="280.27" xlink:href="#a"/><linearGradient id="h" x1="280.04" y1="503.89" x2="598.97" y2="503.89" gradientUnits="userSpaceOnUse"><stop offset="0" stop-color="#c197fc" stop-opacity="0"/><stop offset="0.1" stop-color="#c096fc" stop-opacity="0.02"/><stop offset="0.22" stop-color="#be94fc" stop-opacity="0.08"/><stop offset="0.36" stop-color="#ba91fc" stop-opacity="0.18"/><stop offset="0.51" stop-color="#b48cfc" stop-opacity="0.33"/><stop offset="0.66" stop-color="#ad85fc" stop-opacity="0.51"/><stop offset="0.82" stop-color="#a47dfc" stop-opacity="0.73"/><stop offset="0.99" stop-color="#9a74fc" stop-opacity="0.99"/><stop offset="0.99" stop-color="#9a74fc"/></linearGradient><linearGradient id="i" x1="439.61" y1="415.96" x2="598.97" y2="415.96" xlink:href="#a"/><linearGradient id="j" x1="408.57" y1="609.17" x2="441.15" y2="609.17" xlink:href="#a"/><linearGradient id="k" x1="441.23" y1="609.17" x2="473.81" y2="609.17" xlink:href="#a"/><linearGradient id="l" x1="408.61" y1="581.43" x2="473.81" y2="581.43" xlink:href="#a"/><linearGradient id="m" x1="626.37" y1="242.28" x2="658.95" y2="242.28" xlink:href="#a"/><linearGradient id="n" x1="659.04" y1="242.28" x2="691.61" y2="242.28" xlink:href="#a"/><linearGradient id="o" x1="626.42" y1="214.54" x2="691.61" y2="214.54" xlink:href="#a"/><linearGradient id="p" x1="188.4" y1="242.28" x2="220.98" y2="242.28" xlink:href="#a"/><linearGradient id="q" x1="221.07" y1="242.28" x2="253.64" y2="242.28" xlink:href="#a"/><linearGradient id="r" x1="188.45" y1="214.54" x2="253.64" y2="214.54" xlink:href="#a"/><linearGradient id="s" x1="406.24" y1="175.85" x2="438.82" y2="175.85" xlink:href="#a"/><linearGradient id="t" x1="438.9" y1="175.85" x2="471.48" y2="175.85" xlink:href="#a"/><linearGradient id="u" x1="406.28" y1="148.11" x2="471.48" y2="148.11" xlink:href="#a"/><linearGradient id="v" x1="188.4" y1="550.93" x2="220.98" y2="550.93" xlink:href="#a"/><linearGradient id="w" x1="221.07" y1="550.93" x2="253.64" y2="550.93" xlink:href="#a"/><linearGradient id="x" x1="188.45" y1="523.19" x2="253.64" y2="523.19" xlink:href="#a"/><linearGradient id="y" x1="626.37" y1="550.93" x2="658.95" y2="550.93" xlink:href="#a"/><linearGradient id="z" x1="659.04" y1="550.93" x2="691.61" y2="550.93" xlink:href="#a"/><linearGradient id="aa" x1="626.42" y1="523.19" x2="691.61" y2="523.19" xlink:href="#a"/><linearGradient id="ab" x1="87.07" y1="177.05" x2="119.65" y2="177.05" xlink:href="#a"/><linearGradient id="ac" x1="119.73" y1="177.05" x2="152.31" y2="177.05" xlink:href="#a"/><linearGradient id="ad" x1="87.12" y1="149.31" x2="152.31" y2="149.31" xlink:href="#a"/><linearGradient id="ae" x1="724.76" y1="384.96" x2="757.34" y2="384.96" xlink:href="#a"/><linearGradient id="af" x1="757.42" y1="384.96" x2="790" y2="384.96" xlink:href="#a"/><linearGradient id="ag" x1="724.8" y1="357.22" x2="790" y2="357.22" xlink:href="#a"/><linearGradient id="ah" x1="724.76" y1="177.05" x2="757.34" y2="177.05" xlink:href="#a"/><linearGradient id="ai" x1="757.42" y1="177.05" x2="790" y2="177.05" xlink:href="#a"/><linearGradient id="aj" x1="724.8" y1="149.31" x2="790" y2="149.31" xlink:href="#a"/><linearGradient id="ak" x1="87.07" y1="617.32" x2="119.65" y2="617.32" xlink:href="#a"/><linearGradient id="al" x1="119.73" y1="617.32" x2="152.31" y2="617.32" xlink:href="#a"/><linearGradient id="am" x1="87.12" y1="589.58" x2="152.31" y2="589.58" xlink:href="#a"/><linearGradient id="an" x1="87.07" y1="384.96" x2="119.65" y2="384.96" xlink:href="#a"/><linearGradient id="ao" x1="119.73" y1="384.96" x2="152.31" y2="384.96" xlink:href="#a"/><linearGradient id="ap" x1="87.12" y1="357.22" x2="152.31" y2="357.22" xlink:href="#a"/><linearGradient id="aq" x1="724.76" y1="617.32" x2="757.34" y2="617.32" xlink:href="#a"/><linearGradient id="ar" x1="757.42" y1="617.32" x2="790" y2="617.32" xlink:href="#a"/><linearGradient id="as" x1="724.8" y1="589.58" x2="790" y2="589.58" xlink:href="#a"/></defs><g class="a"><polygon class="b" points="441.15 741.68 408.57 732.03 408.57 686.31 441.15 695.96 441.15 741.68"/><polygon class="c" points="441.23 741.68 473.81 732.03 473.81 686.31 441.23 695.96 441.23 741.68"/><polygon class="d" points="441.19 676.55 408.61 686.2 441.23 695.96 473.81 686.31 441.19 676.55"/><polygon class="e" points="441.19 676.55 408.61 686.2 408.57 732.03 441.23 741.68 473.81 732.03 473.81 686.31 441.19 676.55"/><g class="f"><path class="g" d="M451.87,701.19H429.29a5,5,0,0,0-5,5V727a5,5,0,0,0,5,5h22.58a5,5,0,0,0,5-5V706.2A5,5,0,0,0,451.87,701.19Zm-9,13L444,726.09h-5.58l1.09-11.93a4.29,4.29,0,1,1,3.41,0Z"/><path class="h" d="M451.71,704.23v-9.38a11.12,11.12,0,0,0-11.13-11.12h0a11.13,11.13,0,0,0-11.13,11.12v.64"/></g><path class="g" d="M407.13,85.61v.14l-.51.07a.87.87,0,0,0-.33.17,1.07,1.07,0,0,0-.36.41,2.79,2.79,0,0,0-.08.67.19.19,0,0,0,0,.15l.42,9.16a2,2,0,0,0,.28,1c.17.28.55.42,1.13.43v.13h-4V97.8a1.46,1.46,0,0,0,1.06-.46,1.79,1.79,0,0,0,.23-1.16l-.42-9.47h0l-4.35,11.22-4.11-10.81h0l-.44,8.74a3.57,3.57,0,0,0,.09,1.12,1,1,0,0,0,.39.56,2,2,0,0,0,.79.26v.13h-3.1V97.8a1.4,1.4,0,0,0,.9-.28,1.35,1.35,0,0,0,.41-.7,7.64,7.64,0,0,0,.14-1.13l.5-9a.56.56,0,0,0-.1-.18,2.94,2.94,0,0,0-.25-.26,2.12,2.12,0,0,0-.28-.2,1.34,1.34,0,0,0-.5-.21l-.58,0v-.14h2.86l3.82,10.08,3.87-10.08Z"/><path class="g" d="M422,91.78a6.34,6.34,0,0,1-.86,3.22,6.44,6.44,0,0,1-2.34,2.38,6.27,6.27,0,0,1-3.28.88A6.54,6.54,0,0,1,409.82,95a6.49,6.49,0,0,1-.86-3.27,6.37,6.37,0,0,1,.51-2.54,6.46,6.46,0,0,1,1.44-2.08A6.7,6.7,0,0,1,413,85.73a6.52,6.52,0,0,1,7,1.33,6.38,6.38,0,0,1,1.45,2.08A6.52,6.52,0,0,1,422,91.78Zm-1.48,0a7.13,7.13,0,0,0-.87-3.85,4.39,4.39,0,0,0-2-1.86,5.08,5.08,0,0,0-3.76-.22,4.59,4.59,0,0,0-1.63.93,4.92,4.92,0,0,0-1.3,1.91,8,8,0,0,0-.51,3,8.28,8.28,0,0,0,.42,2.77A5.07,5.07,0,0,0,412,96.47a4.38,4.38,0,0,0,1.63,1.08,5.27,5.27,0,0,0,1.85.33,5.41,5.41,0,0,0,1.75-.3,4.65,4.65,0,0,0,1.61-1,5,5,0,0,0,1.19-1.87A8.2,8.2,0,0,0,420.51,91.82Z"/><path class="g" d="M436.82,91.78A6.34,6.34,0,0,1,436,95a6.44,6.44,0,0,1-2.34,2.38,6.27,6.27,0,0,1-3.28.88,6.38,6.38,0,0,1-3.31-.88,6.46,6.46,0,0,1-3.24-5.65,6.33,6.33,0,0,1,1.95-4.62,6.7,6.7,0,0,1,2.11-1.38,6.62,6.62,0,0,1,4.9,0,6.58,6.58,0,0,1,2.09,1.35,6.38,6.38,0,0,1,1.45,2.08A6.52,6.52,0,0,1,436.82,91.78Zm-1.48,0a7.22,7.22,0,0,0-.87-3.85,4.44,4.44,0,0,0-2-1.86,5.08,5.08,0,0,0-3.76-.22,4.59,4.59,0,0,0-1.63.93,4.92,4.92,0,0,0-1.3,1.91,8,8,0,0,0-.51,3,8.28,8.28,0,0,0,.42,2.77,5.18,5.18,0,0,0,1.16,1.93,4.5,4.5,0,0,0,1.64,1.08,5.27,5.27,0,0,0,1.85.33,5.35,5.35,0,0,0,1.74-.3,4.6,4.6,0,0,0,1.62-1,5,5,0,0,0,1.19-1.87A8.2,8.2,0,0,0,435.34,91.82Z"/><path class="g" d="M438.48,85.78h-.17v-.17h4.27a4.18,4.18,0,0,1,1.75.32,3.06,3.06,0,0,1,1.11.8,3.33,3.33,0,0,1,.57,1,3.67,3.67,0,0,1,.17,1.07,3,3,0,0,1-.28,1.28,2.73,2.73,0,0,1-.86,1.06,3.23,3.23,0,0,1-1.45.6v0a5.16,5.16,0,0,1,2,2.12l1.11,1.89A5.87,5.87,0,0,0,448,97.42a1.76,1.76,0,0,0,.9.38v.13h-2.24l-.27-.35c-.08-.12-.17-.24-.27-.37l-.25-.38c-.1-.17-.17-.26-.19-.29l-1.47-2.43a6.24,6.24,0,0,0-.91-1.21,3.33,3.33,0,0,0-.87-.66,2.64,2.64,0,0,0-.72-.26,5.58,5.58,0,0,0-.76,0v4.51a1.22,1.22,0,0,0,1.34,1.36v.13h-3.93V97.8a1.89,1.89,0,0,0,.66-.14,1,1,0,0,0,.47-.42,1.41,1.41,0,0,0,.19-.8V87.12a1.31,1.31,0,0,0-.36-1A1.2,1.2,0,0,0,438.48,85.78Zm2.42,5.83h.7a4.45,4.45,0,0,0,1.81-.32,2.06,2.06,0,0,0,1-.91,3,3,0,0,0,.32-1.44,3.62,3.62,0,0,0-.29-1.4,2.61,2.61,0,0,0-1-1.14A3.81,3.81,0,0,0,440.9,86Z"/><path class="g" d="M454.18,97.93h-4.61V97.8h.17a1.07,1.07,0,0,0,.8-.34,1.35,1.35,0,0,0,.34-1v-9.3a1.55,1.55,0,0,0-.31-1,1.07,1.07,0,0,0-.85-.36h-.15v-.14h4a4.36,4.36,0,0,1,1.47.23,3.35,3.35,0,0,1,1.13.63,3,3,0,0,1,.72.92,2.52,2.52,0,0,1,.25,1.12,2.4,2.4,0,0,1-.72,1.81,4.44,4.44,0,0,1-1.93,1v0a9,9,0,0,1,1.06.18,4,4,0,0,1,.92.33,3.26,3.26,0,0,1,.77.54,3.11,3.11,0,0,1,.55.66,2.72,2.72,0,0,1,.34.78,3.15,3.15,0,0,1,.12.87,2.74,2.74,0,0,1-.5,1.66,3.57,3.57,0,0,1-1.12,1A5.15,5.15,0,0,1,454.18,97.93Zm-2-6.67h.8a3.35,3.35,0,0,0,1.4-.2,3.28,3.28,0,0,0,.56-.36,2.41,2.41,0,0,0,.55-.74,2.54,2.54,0,0,0,.27-1.21,3,3,0,0,0-.18-1,2.79,2.79,0,0,0-.51-.89,2.59,2.59,0,0,0-.79-.6,2.44,2.44,0,0,0-1-.22,3.62,3.62,0,0,0-1.09.19Zm1.26.38h-1.26v4.44a2.57,2.57,0,0,0,.08.74,1,1,0,0,0,.48.52,2.71,2.71,0,0,0,1.22.22,2.66,2.66,0,0,0,2.42-1.13,3.19,3.19,0,0,0,.49-1.75,3.06,3.06,0,0,0-.25-1.27,2.54,2.54,0,0,0-.68-1,2.81,2.81,0,0,0-1.08-.6A4.32,4.32,0,0,0,453.42,91.64Z"/><path class="g" d="M459.54,85.78h-.16v-.17h4.26a4.18,4.18,0,0,1,1.75.32,2.89,2.89,0,0,1,1.11.8,3,3,0,0,1,.57,1,3.37,3.37,0,0,1,.17,1.07,3,3,0,0,1-.28,1.28,2.73,2.73,0,0,1-.86,1.06,3.23,3.23,0,0,1-1.45.6v0a5.1,5.1,0,0,1,2,2.12l1.11,1.89A6.08,6.08,0,0,0,469,97.42a1.83,1.83,0,0,0,.9.38v.13h-2.24l-.27-.35c-.08-.12-.17-.24-.27-.37l-.24-.38c-.11-.17-.18-.26-.2-.29l-1.47-2.43a6.24,6.24,0,0,0-.91-1.21,3.33,3.33,0,0,0-.87-.66,2.53,2.53,0,0,0-.72-.26,5.58,5.58,0,0,0-.76,0v4.51a1.22,1.22,0,0,0,1.34,1.36v.13h-3.92V97.8a1.88,1.88,0,0,0,.65-.14,1,1,0,0,0,.47-.42,1.41,1.41,0,0,0,.19-.8V87.12a1.31,1.31,0,0,0-.36-1A1.2,1.2,0,0,0,459.54,85.78ZM462,91.61h.71a4.48,4.48,0,0,0,1.81-.32,2.08,2.08,0,0,0,1-.91,3,3,0,0,0,.32-1.44,3.8,3.8,0,0,0-.28-1.4,2.64,2.64,0,0,0-1-1.14A3.81,3.81,0,0,0,462,86Z"/><path class="g" d="M474.57,85.61v.14a1.39,1.39,0,0,0-.93.31,1.24,1.24,0,0,0-.39,1v9.35a1.26,1.26,0,0,0,.41,1,1.46,1.46,0,0,0,.91.32v.13h-3.91V97.8a1.43,1.43,0,0,0,.93-.31,1.27,1.27,0,0,0,.39-1V87.09a1.25,1.25,0,0,0-.39-1.06,1.53,1.53,0,0,0-.93-.28v-.14Z"/><path class="g" d="M475.84,85.75v-.14h4.74a8.86,8.86,0,0,1,1.84.17,7.36,7.36,0,0,1,1.5.46,5.39,5.39,0,0,1,1.15.62,4.9,4.9,0,0,1,.83.69,6,6,0,0,1,1,1.3,6.4,6.4,0,0,1,.62,1.51,6.88,6.88,0,0,1,.2,1.64,6.51,6.51,0,0,1-.2,1.61,5.5,5.5,0,0,1-.58,1.41,5.7,5.7,0,0,1-.9,1.17,6.91,6.91,0,0,1-1.21,1,6.33,6.33,0,0,1-1.37.57,8.21,8.21,0,0,1-2.08.21h-5.53V97.8H476a1,1,0,0,0,.87-.44,1.63,1.63,0,0,0,.28-.92v-9.3a1.86,1.86,0,0,0-.15-.79,1.11,1.11,0,0,0-.42-.46,1.21,1.21,0,0,0-.58-.14Zm2.58.44V96a2,2,0,0,0,.23,1.06,1.13,1.13,0,0,0,.72.44,9.79,9.79,0,0,0,3.68-.17,3.93,3.93,0,0,0,1.78-1.17,5,5,0,0,0,1-1.66,6.39,6.39,0,0,0,.39-2.37,8.07,8.07,0,0,0-.31-2.17A5.7,5.7,0,0,0,485,88a4.85,4.85,0,0,0-1.83-1.48,6.12,6.12,0,0,0-2.69-.54A13.59,13.59,0,0,0,478.42,86.19Z"/><path class="g" d="M500.47,88.17h-.13a2.8,2.8,0,0,0-1.42-1.87,5.13,5.13,0,0,0-2.64-.67,6.33,6.33,0,0,0-1.65.24,5,5,0,0,0-1.72.87,4.64,4.64,0,0,0-1.39,1.82,7.09,7.09,0,0,0-.55,3,7.25,7.25,0,0,0,1.34,4.6,5.11,5.11,0,0,0,4.31,1.72,6.66,6.66,0,0,0,1.73-.16,1.11,1.11,0,0,0,.7-.43,1.44,1.44,0,0,0,.16-.75V94.29a1.3,1.3,0,0,0-.35-1.07,2.26,2.26,0,0,0-1-.34v-.14h4v.14a2.16,2.16,0,0,0-.86.24.89.89,0,0,0-.4.46,2.54,2.54,0,0,0-.1.76v3.43a14.56,14.56,0,0,1-3.8.49,12.18,12.18,0,0,1-2-.17,6.86,6.86,0,0,1-2.06-.74,5.85,5.85,0,0,1-1.89-1.71,6.38,6.38,0,0,1-1.23-3.84,6.6,6.6,0,0,1,.47-2.43,6.53,6.53,0,0,1,1.34-2.11,6.24,6.24,0,0,1,2.13-1.47,7.11,7.11,0,0,1,2.81-.54,7.45,7.45,0,0,1,1.16.08c.38,0,1,.16,1.7.32a3,3,0,0,0,.64.1.64.64,0,0,0,.6-.41h.13Z"/><path class="g" d="M502.56,85.75v-.14h7.35v1.94h-.12q0-1.56-2.07-1.56h-2.57v5.6h2.26a3.06,3.06,0,0,0,1.2-.22,1.06,1.06,0,0,0,.6-1h.12v2.79h-.12a1.49,1.49,0,0,0-.29-.73,1,1,0,0,0-.77-.42,3.28,3.28,0,0,0-.63,0h-2.37v4.37a1.79,1.79,0,0,0,.19.86q.18.36.87.36H508a2.59,2.59,0,0,0,1.09-.2,1.57,1.57,0,0,0,.68-.53,3.38,3.38,0,0,0,.41-.83h.12l-.43,1.93h-7.35V97.8h.17a1.2,1.2,0,0,0,.77-.32,1.29,1.29,0,0,0,.38-1V87.16a1.87,1.87,0,0,0-.26-1,1,1,0,0,0-.89-.42Z"/><path class="g" d="M485.06,106.76a2.57,2.57,0,0,1-2.64,2c-2,0-3.09-1.61-3.09-3.59s1-3.63,3.1-3.63a2.46,2.46,0,0,1,2.64,2h-.54A2,2,0,0,0,482.4,102c-1.75,0-2.49,1.6-2.49,3.12s.73,3.1,2.53,3.1a2.07,2.07,0,0,0,2.08-1.46Z"/><path class="g" d="M488.31,108.64V106a.34.34,0,0,0,0-.16l-2.51-4.23h.63l2.23,3.8c.3-.52,1.54-2.59,2.3-3.8h.6l-2.63,4.27a.31.31,0,0,0,0,.15v2.62Z"/><path class="g" d="M492.5,101.6H495c1.35,0,2.07.71,2.07,1.73a1.53,1.53,0,0,1-1.08,1.54,1.77,1.77,0,0,1,1.33,1.74,2,2,0,0,1-2.28,2H492.5Zm2.27,3c1.22,0,1.68-.45,1.68-1.26S496,102.1,495,102.1h-2v2.52ZM493,108.13h2c.93,0,1.7-.46,1.7-1.49s-.57-1.51-2-1.51H493Z"/><path class="g" d="M503,105.18h-3.59v2.95h3.93l-.08.51h-4.4v-7h4.32v.5h-3.77v2.57H503Z"/><path class="g" d="M505.3,105.35v3.29h-.55v-7h2.52c1.39,0,2.12.74,2.12,1.85a1.6,1.6,0,0,1-1.31,1.65c.72.17,1.2.64,1.2,1.84v.27a4.74,4.74,0,0,0,.09,1.43h-.55a4.75,4.75,0,0,1-.1-1.47V107c0-1.16-.34-1.64-1.69-1.64Zm0-.5H507c1.24,0,1.81-.47,1.81-1.39s-.56-1.36-1.66-1.36H505.3Z"/><line class="i" x1="474.26" y1="105.17" x2="393.42" y2="105.17"/><path class="g" d="M382.92,89.53c-2.39,1.59-4.55,3-6.66,4.45a1.27,1.27,0,0,1-1.7,0c-2-1.36-4-2.64-6.07-3.94-.26-.17-.54-.31-.91-.52,0,.39-.06.67-.06,1,0,4.12,0,8.24,0,12.36a1.26,1.26,0,0,0,.79,1.35c2.14,1,4.24,2.17,6.38,3.2a1.68,1.68,0,0,0,1.3,0c2.1-1,4.16-2.19,6.25-3.25a1.07,1.07,0,0,0,.68-1.13c0-1,0-2,0-3.1h4.63c0,2.11,0,4.19,0,6.28,0,.23-.32.54-.57.67q-5.54,3-11.09,5.86a1.21,1.21,0,0,1-1,0q-5.73-2.9-11.41-5.86a1.19,1.19,0,0,1-.57-.84c0-8.22,0-16.43,0-24.64a1.8,1.8,0,0,1,.1-.39l3.76,2.4c2.57,1.66,5.15,3.29,7.69,5a1.35,1.35,0,0,0,1.78,0c3.45-2.36,6.95-4.65,10.43-7,.24-.15.48-.28.81-.47V95.41h-4.55Z"/><polygon class="j" points="439.2 551.37 279.83 504.17 279.83 280.54 439.2 327.74 439.2 551.37"/><polygon class="k" points="439.61 775 598.97 727.8 598.97 504.17 439.61 551.37 439.61 775"/><polygon class="l" points="439.4 775 280.04 727.8 280.04 504.17 439.4 551.37 439.4 775"/><polygon class="m" points="439.4 232.79 280.04 279.99 439.61 327.74 598.97 280.54 439.4 232.79"/><polygon class="n" points="439.4 456.42 280.04 503.62 439.61 551.37 598.97 504.17 439.4 456.42"/><polygon class="e" points="439.4 232.79 280.04 279.99 279.83 504.17 439.61 551.37 598.97 504.17 598.97 280.54 439.4 232.79"/><path class="o" d="M507.87,390.2a46.78,46.78,0,0,0-32.95-74.28V298.63H444.26v17.05h-10.6V298.63H403v17.05H378.51v30.94h13.77v94.86H378.51v30.95H403v15.46h30.66V472.43h10.6v15.46h30.66V472.43h2.39a46.78,46.78,0,0,0,30.56-82.23Zm-37.71-43.58a15.87,15.87,0,0,1,0,31.74H422.94V346.62Zm7.15,94.86H422.94V409.74h54.37a15.87,15.87,0,1,1,0,31.74Z"/><ellipse class="o" cx="435.34" cy="502.99" rx="52.41" ry="3.49"/><polygon class="p" points="439.61 551.37 598.97 504.17 598.97 280.54 439.61 327.74 439.61 551.37"/><g class="q"><polygon class="r" points="280.29 279.15 439.7 327.43 439.94 327.5 439.94 327.74 439.61 427.29 439.28 327.74 439.52 328.06 279.79 280.83 280.29 279.15"/></g><polygon class="r" points="436.99 551.37 437.86 515.8 438.74 551.37 436.99 551.37"/><line class="e" x1="221.17" y1="269.96" x2="220.95" y2="513.49"/><line class="e" x1="405.67" y1="183.96" x2="254.42" y2="228.76"/><line class="e" x1="625.65" y1="229.71" x2="471.74" y2="183.65"/><line class="e" x1="657.89" y1="513.49" x2="657.89" y2="269.96"/><line class="e" x1="474.43" y1="599.9" x2="625.68" y2="555.1"/><line class="e" x1="254.22" y1="555.4" x2="407.98" y2="600.82"/><polygon class="s" points="441.15 636.85 408.57 627.2 408.57 581.49 441.15 591.14 441.15 636.85"/><polygon class="t" points="441.23 636.85 473.81 627.2 473.81 581.49 441.23 591.14 441.23 636.85"/><polygon class="u" points="441.19 571.73 408.61 581.37 441.23 591.14 473.81 581.49 441.19 571.73"/><polygon class="e" points="441.19 571.73 408.61 581.37 408.57 627.2 441.23 636.85 473.81 627.2 473.81 581.49 441.19 571.73"/><polygon class="o" points="464.24 587.48 433.59 617.13 417.18 605.94 415.92 607.38 431.52 624.85 434.19 627.84 436.83 624.56 465.65 588.78 464.24 587.48"/><polygon class="v" points="658.95 269.96 626.37 260.31 626.37 214.6 658.95 224.25 658.95 269.96"/><polygon class="w" points="659.04 269.96 691.61 260.31 691.61 214.6 659.04 224.25 659.04 269.96"/><polygon class="x" points="658.99 204.84 626.42 214.49 659.04 224.25 691.61 214.6 658.99 204.84"/><polygon class="e" points="658.99 204.84 626.42 214.49 626.37 260.31 659.04 269.96 691.61 260.31 691.61 214.6 658.99 204.84"/><g class="f"><path class="g" d="M663.94,233.53a.59.59,0,0,0-.46-.14l-2,.31a13.69,13.69,0,0,0-.53-1.27l1.64-1.19a.6.6,0,0,0,.23-.42.58.58,0,0,0-.17-.45l-5.82-5.82a.56.56,0,0,0-.44-.17.59.59,0,0,0-.42.24l-1.2,1.63a13.69,13.69,0,0,0-1.27-.53l.31-2a.6.6,0,0,0-.14-.46.54.54,0,0,0-.43-.2H645a.55.55,0,0,0-.43.2.6.6,0,0,0-.14.46l.31,2a13.69,13.69,0,0,0-1.27.53l-1.2-1.63a.55.55,0,0,0-.86-.07l-5.82,5.82a.58.58,0,0,0-.17.45.61.61,0,0,0,.24.42l1.63,1.19a13.69,13.69,0,0,0-.53,1.27l-2-.31a.6.6,0,0,0-.46.14.57.57,0,0,0-.2.43v8.23a.57.57,0,0,0,.2.44.63.63,0,0,0,.46.13l2-.31a13.69,13.69,0,0,0,.53,1.27l-1.63,1.2a.59.59,0,0,0-.24.42.56.56,0,0,0,.17.44l5.82,5.82a.57.57,0,0,0,.45.17.56.56,0,0,0,.41-.23l1.2-1.64a13.69,13.69,0,0,0,1.27.53l-.31,2a.59.59,0,0,0,.14.46.55.55,0,0,0,.43.2h8.23a.54.54,0,0,0,.43-.2.59.59,0,0,0,.14-.46l-.31-2a13.69,13.69,0,0,0,1.27-.53l1.2,1.64a.58.58,0,0,0,.42.23.56.56,0,0,0,.44-.17l5.82-5.82a.56.56,0,0,0,.17-.44.58.58,0,0,0-.23-.42l-1.64-1.2a13.69,13.69,0,0,0,.53-1.27l2,.31a.63.63,0,0,0,.46-.13.57.57,0,0,0,.2-.44V234A.57.57,0,0,0,663.94,233.53Zm-14.81,12.06a7.52,7.52,0,1,1,7.51-7.51A7.52,7.52,0,0,1,649.13,245.59Z"/></g><g class="f"><path class="g" d="M685.23,241.58a.33.33,0,0,0-.3-.09l-1.29.2a8.33,8.33,0,0,0-.34-.82l1.05-.78a.33.33,0,0,0,.15-.27.38.38,0,0,0-.1-.29l-3.77-3.76a.34.34,0,0,0-.29-.11.39.39,0,0,0-.27.15l-.77,1.06a7.93,7.93,0,0,0-.82-.34l.2-1.3a.43.43,0,0,0-.09-.3.36.36,0,0,0-.28-.12H673a.36.36,0,0,0-.28.12.35.35,0,0,0-.09.3l.2,1.3a7.11,7.11,0,0,0-.82.34l-.78-1.06a.37.37,0,0,0-.56,0l-3.76,3.76a.37.37,0,0,0,0,.56l1.06.78a6.45,6.45,0,0,0-.34.82l-1.3-.2a.35.35,0,0,0-.29.09.34.34,0,0,0-.13.28v5.32a.34.34,0,0,0,.13.28.34.34,0,0,0,.29.08l1.3-.19a7.93,7.93,0,0,0,.34.82l-1.06.77a.37.37,0,0,0-.15.27.34.34,0,0,0,.11.29l3.76,3.77a.38.38,0,0,0,.29.1.33.33,0,0,0,.27-.15l.78-1.05c.27.13.55.24.82.34l-.2,1.29a.33.33,0,0,0,.09.3.37.37,0,0,0,.28.13h5.32a.37.37,0,0,0,.28-.13.4.4,0,0,0,.09-.3l-.2-1.29c.27-.1.54-.21.82-.34l.77,1.05a.36.36,0,0,0,.27.15.37.37,0,0,0,.29-.1l3.77-3.77a.37.37,0,0,0,.1-.29.34.34,0,0,0-.15-.27l-1.05-.77c.13-.28.24-.55.34-.82l1.29.19a.36.36,0,0,0,.3-.08.37.37,0,0,0,.13-.28v-5.32A.37.37,0,0,0,685.23,241.58Zm-9.58,7.8a4.86,4.86,0,1,1,4.86-4.86A4.86,4.86,0,0,1,675.65,249.38Z"/></g><polygon class="y" points="220.98 269.96 188.4 260.31 188.4 214.6 220.98 224.25 220.98 269.96"/><polygon class="z" points="221.07 269.96 253.64 260.31 253.64 214.6 221.07 224.25 221.07 269.96"/><polygon class="aa" points="221.02 204.84 188.45 214.49 221.07 224.25 253.64 214.6 221.02 204.84"/><polygon class="e" points="221.02 204.84 188.45 214.49 188.4 260.31 221.07 269.96 253.64 260.31 253.64 214.6 221.02 204.84"/><g class="f"><path class="g" d="M232.32,227.73H209.74a5,5,0,0,0-5,5v20.81a5,5,0,0,0,5,5h22.58a5,5,0,0,0,5-5V232.74A5,5,0,0,0,232.32,227.73Zm-9,13,1.09,11.93h-5.58l1.09-11.93a4.29,4.29,0,1,1,3.4,0Z"/><path class="h" d="M232.16,230.77v-4.13A11.13,11.13,0,0,0,221,215.51h0a11.13,11.13,0,0,0-11.13,11.13v4.13"/></g><polygon class="ab" points="438.82 203.53 406.24 193.88 406.24 148.17 438.82 157.81 438.82 203.53"/><polygon class="ac" points="438.9 203.53 471.48 193.88 471.48 148.17 438.9 157.81 438.9 203.53"/><polygon class="ad" points="438.86 138.4 406.28 148.05 438.9 157.81 471.48 148.17 438.86 138.4"/><polygon class="e" points="438.86 138.4 406.28 148.05 406.24 193.88 438.9 203.53 471.48 193.88 471.48 148.17 438.86 138.4"/><g class="f"><path class="g" d="M449.54,162.5H427a5,5,0,0,0-5,5v20.8a5,5,0,0,0,5,5h22.58a5,5,0,0,0,5-5v-20.8A5,5,0,0,0,449.54,162.5Zm-9,13,1.08,11.94h-5.58l1.09-11.94a4.29,4.29,0,1,1,3.41,0Z"/><path class="h" d="M449.38,165.54v-4.13a11.13,11.13,0,0,0-11.13-11.12h0a11.12,11.12,0,0,0-11.13,11.12v4.13"/></g><polygon class="ae" points="220.98 578.62 188.4 568.97 188.4 523.25 220.98 532.9 220.98 578.62"/><polygon class="af" points="221.07 578.62 253.64 568.97 253.64 523.25 221.07 532.9 221.07 578.62"/><polygon class="ag" points="221.02 513.49 188.45 523.14 221.07 532.9 253.64 523.25 221.02 513.49"/><polygon class="e" points="221.02 513.49 188.45 523.14 188.4 568.97 221.07 578.62 253.64 568.97 253.64 523.25 221.02 513.49"/><g class="f"><path class="g" d="M232.32,536.38H209.74a5,5,0,0,0-5,5v20.8a5,5,0,0,0,5,5h22.58a5,5,0,0,0,5-5V541.4A5,5,0,0,0,232.32,536.38Zm-9,13,1.09,11.93h-5.58l1.09-11.93a4.29,4.29,0,1,1,3.4,0Z"/><path class="h" d="M232.16,539.42v-4.13A11.14,11.14,0,0,0,221,524.16h0a11.13,11.13,0,0,0-11.13,11.13v4.13"/></g><polygon class="ah" points="658.95 578.62 626.37 568.97 626.37 523.25 658.95 532.9 658.95 578.62"/><polygon class="ai" points="659.04 578.62 691.61 568.97 691.61 523.25 659.04 532.9 659.04 578.62"/><polygon class="aj" points="658.99 513.49 626.42 523.14 659.04 532.9 691.61 523.25 658.99 513.49"/><polygon class="e" points="658.99 513.49 626.42 523.14 626.37 568.97 659.04 578.62 691.61 568.97 691.61 523.25 658.99 513.49"/><g class="f"><path class="g" d="M671.42,536.38H648.84a5,5,0,0,0-5,5v20.8a5,5,0,0,0,5,5h22.58a5,5,0,0,0,5-5V541.4A5,5,0,0,0,671.42,536.38Zm-9,13,1.08,11.93H658L659,549.35a4.29,4.29,0,1,1,3.41,0Z"/><path class="h" d="M671.26,539.42v-4.13a11.13,11.13,0,0,0-11.13-11.13h0A11.14,11.14,0,0,0,649,535.29v4.13"/></g><line class="e" x1="723.89" y1="158.07" x2="527.56" y2="99.31"/><line class="e" x1="759.11" y1="347.51" x2="759.11" y2="204.73"/><line class="e" x1="759.11" y1="579.88" x2="759.11" y2="412.64"/><line class="e" x1="473.82" y1="701.16" x2="724.34" y2="626.96"/><line class="e" x1="154.82" y1="627.03" x2="407.09" y2="701.56"/><line class="e" x1="119.89" y1="412.64" x2="119.73" y2="579.87"/><line class="e" x1="120.08" y1="204.73" x2="119.95" y2="347.51"/><line class="e" x1="343.71" y1="101.27" x2="153.63" y2="157.57"/><polygon class="ak" points="119.65 204.73 87.07 195.08 87.07 149.37 119.65 159.02 119.65 204.73"/><polygon class="al" points="119.73 204.73 152.31 195.08 152.31 149.37 119.73 159.02 119.73 204.73"/><polygon class="am" points="119.69 139.61 87.11 149.25 119.73 159.02 152.31 149.37 119.69 139.61"/><polygon class="e" points="119.69 139.61 87.11 149.25 87.07 195.08 119.73 204.73 152.31 195.08 152.31 149.37 119.69 139.61"/><path class="o" d="M112.8,192.6l5.68-15.18a2.2,2.2,0,0,0-.46-2.27l1.76-4.12a11.2,11.2,0,1,0-1.61-.69l-1.76,4.13a2.18,2.18,0,0,0-2,1.23l-7,14.61a2.44,2.44,0,0,0-.1.24,2.92,2.92,0,1,0,5.46,2Zm18.39-28.79a8.56,8.56,0,1,1,.06-6.53A8.56,8.56,0,0,1,131.19,163.81Z"/><polygon class="an" points="757.34 412.64 724.76 402.99 724.76 357.27 757.34 366.92 757.34 412.64"/><polygon class="ao" points="757.42 412.64 790 402.99 790 357.27 757.42 366.92 757.42 412.64"/><polygon class="ap" points="757.38 347.51 724.8 357.16 757.42 366.92 790 357.27 757.38 347.51"/><polygon class="e" points="757.38 347.51 724.8 357.16 724.76 402.99 757.42 412.64 790 402.99 790 357.27 757.38 347.51"/><path class="g" d="M752.82,400.5l5.68-15.18a2.17,2.17,0,0,0-.46-2.26l1.76-4.13a11.2,11.2,0,1,0-1.61-.69l-1.76,4.13a2.18,2.18,0,0,0-1.95,1.24l-7,14.61a1.75,1.75,0,0,0-.11.24,2.92,2.92,0,0,0,5.47,2Zm18.39-28.79a8.55,8.55,0,1,1,.06-6.53A8.54,8.54,0,0,1,771.21,371.71Z"/><polygon class="aq" points="757.34 204.73 724.76 195.08 724.76 149.37 757.34 159.02 757.34 204.73"/><polygon class="ar" points="757.42 204.73 790 195.08 790 149.37 757.42 159.02 757.42 204.73"/><polygon class="as" points="757.38 139.61 724.8 149.25 757.42 159.02 790 149.37 757.38 139.61"/><polygon class="e" points="757.38 139.61 724.8 149.25 724.76 195.08 757.42 204.73 790 195.08 790 149.37 757.38 139.61"/><polygon class="g" points="779.88 155.38 749.24 185.02 732.82 173.83 731.56 175.27 747.16 192.74 749.83 195.74 752.48 192.45 781.3 156.67 779.88 155.38"/><polygon class="at" points="119.65 645 87.07 635.35 87.07 589.64 119.65 599.28 119.65 645"/><polygon class="au" points="119.73 645 152.31 635.35 152.31 589.64 119.73 599.28 119.73 645"/><polygon class="av" points="119.69 579.87 87.11 589.52 119.73 599.28 152.31 589.64 119.69 579.87"/><polygon class="e" points="119.69 579.87 87.11 589.52 87.07 635.35 119.73 645 152.31 635.35 152.31 589.64 119.69 579.87"/><polygon class="o" points="142.19 594.48 111.54 624.12 95.13 612.93 93.87 614.37 109.47 631.84 112.14 634.84 114.78 631.55 143.61 595.77 142.19 594.48"/><polygon class="aw" points="119.65 412.64 87.07 402.99 87.07 357.27 119.65 366.92 119.65 412.64"/><polygon class="ax" points="119.73 412.64 152.31 402.99 152.31 357.27 119.73 366.92 119.73 412.64"/><polygon class="ay" points="119.69 347.51 87.11 357.16 119.73 366.92 152.31 357.27 119.69 347.51"/><polygon class="e" points="119.69 347.51 87.11 357.16 87.07 402.99 119.73 412.64 152.31 402.99 152.31 357.27 119.69 347.51"/><g class="f"><path class="g" d="M122.87,376.79a.56.56,0,0,0-.46-.13l-2,.3a13.52,13.52,0,0,0-.53-1.26l1.63-1.2a.55.55,0,0,0,.23-.42.54.54,0,0,0-.16-.45l-5.82-5.82a.58.58,0,0,0-.45-.17.59.59,0,0,0-.42.24l-1.2,1.63a12.64,12.64,0,0,0-1.27-.53l.31-2a.56.56,0,0,0-.13-.46.57.57,0,0,0-.44-.2h-8.22a.57.57,0,0,0-.44.2.56.56,0,0,0-.13.46l.31,2a12.64,12.64,0,0,0-1.27.53l-1.2-1.63a.59.59,0,0,0-.42-.24.58.58,0,0,0-.45.17l-5.82,5.82a.57.57,0,0,0-.16.45.55.55,0,0,0,.23.42l1.63,1.2a13.52,13.52,0,0,0-.53,1.26l-2-.3a.57.57,0,0,0-.47.13.6.6,0,0,0-.2.43v8.23a.57.57,0,0,0,.67.57l2-.31a13.69,13.69,0,0,0,.53,1.27l-1.63,1.2a.55.55,0,0,0-.23.42.58.58,0,0,0,.16.45l5.82,5.81a.57.57,0,0,0,.87-.06l1.2-1.64a12.72,12.72,0,0,0,1.27.54l-.31,2a.54.54,0,0,0,.13.46.57.57,0,0,0,.44.2h8.22a.57.57,0,0,0,.44-.2.54.54,0,0,0,.13-.46l-.31-2a12.72,12.72,0,0,0,1.27-.54l1.2,1.64a.57.57,0,0,0,.87.06l5.82-5.81a.58.58,0,0,0-.07-.87l-1.63-1.2a13.69,13.69,0,0,0,.53-1.27l2,.31a.57.57,0,0,0,.67-.57v-8.23A.6.6,0,0,0,122.87,376.79Zm-14.82,12.06a7.51,7.51,0,1,1,7.51-7.51A7.51,7.51,0,0,1,108.05,388.85Z"/></g><g class="f"><path class="g" d="M144.15,384.84a.39.39,0,0,0-.29-.09l-1.3.2a7.11,7.11,0,0,0-.34-.82l1.06-.78a.36.36,0,0,0,.15-.27.37.37,0,0,0-.11-.29L139.56,379a.36.36,0,0,0-.29-.11.39.39,0,0,0-.27.15l-.78,1.06a7.11,7.11,0,0,0-.82-.34l.2-1.3a.32.32,0,0,0-.09-.29.34.34,0,0,0-.28-.13h-5.32a.34.34,0,0,0-.28.13.34.34,0,0,0-.08.29l.19,1.3a7.93,7.93,0,0,0-.82.34l-.77-1.06a.41.41,0,0,0-.27-.15.34.34,0,0,0-.29.11l-3.77,3.76a.4.4,0,0,0-.1.29.33.33,0,0,0,.15.27l1,.78c-.13.27-.24.55-.34.82l-1.29-.2a.4.4,0,0,0-.3.09.37.37,0,0,0-.13.28v5.32a.37.37,0,0,0,.13.28.4.4,0,0,0,.3.09l1.29-.2c.1.27.21.55.34.82l-1,.77a.36.36,0,0,0-.15.27.37.37,0,0,0,.1.29l3.77,3.77a.42.42,0,0,0,.29.11.38.38,0,0,0,.27-.16l.77-1.05c.28.13.55.24.82.34l-.19,1.29a.36.36,0,0,0,.08.3.37.37,0,0,0,.28.13h5.32a.37.37,0,0,0,.28-.13.33.33,0,0,0,.09-.3l-.2-1.29c.27-.1.55-.21.82-.34l.78,1.05a.37.37,0,0,0,.27.16.44.44,0,0,0,.29-.11l3.76-3.77a.34.34,0,0,0,.11-.29.39.39,0,0,0-.15-.27l-1.06-.77a7.11,7.11,0,0,0,.34-.82l1.3.2a.38.38,0,0,0,.29-.09.34.34,0,0,0,.13-.28v-5.32A.34.34,0,0,0,144.15,384.84Zm-9.58,7.8a4.86,4.86,0,1,1,4.86-4.86A4.87,4.87,0,0,1,134.57,392.64Z"/></g><polygon class="az" points="757.34 645 724.76 635.35 724.76 589.64 757.34 599.28 757.34 645"/><polygon class="ba" points="757.42 645 790 635.35 790 589.64 757.42 599.28 757.42 645"/><polygon class="bb" points="757.38 579.87 724.8 589.52 757.42 599.28 790 589.64 757.38 579.87"/><polygon class="e" points="757.38 579.87 724.8 589.52 724.76 635.35 757.42 645 790 635.35 790 589.64 757.38 579.87"/><g class="f"><path class="g" d="M779.24,607.63a.81.81,0,0,0-.65-.18l-2.82.43c-.22-.6-.47-1.2-.75-1.79l2.3-1.69a.82.82,0,0,0,.1-1.23L769.21,595a.8.8,0,0,0-.64-.23.83.83,0,0,0-.59.33l-1.69,2.3c-.6-.28-1.19-.53-1.79-.75l.43-2.82a.81.81,0,0,0-.18-.65.82.82,0,0,0-.62-.28H752.52a.82.82,0,0,0-.62.28.81.81,0,0,0-.18.65l.43,2.82c-.6.22-1.19.47-1.79.75l-1.69-2.3a.83.83,0,0,0-.59-.33.8.8,0,0,0-.64.23l-8.21,8.21a.82.82,0,0,0,.1,1.23l2.3,1.69c-.28.59-.53,1.19-.75,1.79l-2.82-.43a.85.85,0,0,0-.65.18.82.82,0,0,0-.28.62v11.61a.82.82,0,0,0,.28.62.85.85,0,0,0,.65.18l2.82-.43c.22.59.47,1.19.75,1.79l-2.3,1.69a.83.83,0,0,0-.33.59.8.8,0,0,0,.23.63l8.21,8.22a.82.82,0,0,0,1.23-.1l1.69-2.3c.6.28,1.2.53,1.79.75l-.43,2.82a.81.81,0,0,0,.18.65.82.82,0,0,0,.62.28h11.61a.82.82,0,0,0,.62-.28.81.81,0,0,0,.18-.65l-.43-2.82c.6-.22,1.19-.47,1.79-.75l1.69,2.3a.82.82,0,0,0,1.23.1l8.21-8.22a.8.8,0,0,0,.23-.63.83.83,0,0,0-.33-.59L775,622c.28-.6.53-1.2.75-1.79l2.82.43a.85.85,0,0,0,.65-.18.82.82,0,0,0,.28-.62V608.25A.82.82,0,0,0,779.24,607.63Zm-20.91,17a10.61,10.61,0,1,1,10.6-10.61A10.61,10.61,0,0,1,758.33,624.66Z"/></g><line class="e" x1="440.9" y1="676.26" x2="440.9" y2="637.26"/></g></svg>