<svg xmlns="http://www.w3.org/2000/svg" viewBox="0 0 891 270"><defs><style>.a,.b{fill:#172963;}.b{stroke:#172963;stroke-miterlimit:10;stroke-width:5px;}</style></defs><path class="a" d="M302.83,76.76v.71c-1.16.14-2,.26-2.49.35a4.22,4.22,0,0,0-1.66.85,5.18,5.18,0,0,0-1.76,2,12,12,0,0,0-.43,3.32,1.08,1.08,0,0,0,0,.75l2.11,45.36a9.74,9.74,0,0,0,1.37,4.93c.86,1.38,2.72,2.09,5.6,2.11v.67H285.79v-.67c2.6-.27,4.35-1,5.27-2.26s1.29-3.14,1.16-5.74L290.1,82.24h-.16l-21.56,55.6L248,84.27h-.17l-2.2,43.29a17.1,17.1,0,0,0,.44,5.53,4.86,4.86,0,0,0,1.93,2.82,10.28,10.28,0,0,0,3.94,1.26v.67H236.53v-.67a6.58,6.58,0,0,0,4.48-1.41,6.36,6.36,0,0,0,2-3.42,37.63,37.63,0,0,0,.73-5.61L246.19,82a1.92,1.92,0,0,0-.49-.89,9.15,9.15,0,0,0-1.23-1.29,7.78,7.78,0,0,0-1.39-1,6.66,6.66,0,0,0-2.44-1c-.69-.1-1.66-.19-2.9-.27v-.71h14.18l18.9,50,19.2-50Z"/><path class="a" d="M376.47,107.36a31.51,31.51,0,0,1-4.25,16,32.24,32.24,0,0,1-11.59,11.75,31.1,31.1,0,0,1-16.25,4.37,32.37,32.37,0,0,1-29.92-45,31.36,31.36,0,0,1,7.13-10.3A33.12,33.12,0,0,1,332,77.39,31.89,31.89,0,0,1,344.29,75a32.22,32.22,0,0,1,22.37,9,31.5,31.5,0,0,1,7.2,10.32A32.36,32.36,0,0,1,376.47,107.36Zm-7.3.17q0-12.19-4.31-19.07t-9.95-9.23a27.78,27.78,0,0,0-10.62-2.34,27.45,27.45,0,0,0-8,1.26,22.69,22.69,0,0,0-8.06,4.63,24.45,24.45,0,0,0-6.45,9.45,39.28,39.28,0,0,0-2.53,15A41,41,0,0,0,321.34,121a25.56,25.56,0,0,0,5.77,9.58,22.07,22.07,0,0,0,8.08,5.35,26.3,26.3,0,0,0,9.19,1.64,26.57,26.57,0,0,0,8.64-1.51,22.18,22.18,0,0,0,8-4.94,24.71,24.71,0,0,0,5.89-9.29A39.88,39.88,0,0,0,369.17,107.53Z"/><path class="a" d="M449.94,107.36a31.51,31.51,0,0,1-4.25,16,32.24,32.24,0,0,1-11.59,11.75,31.1,31.1,0,0,1-16.25,4.37,32.37,32.37,0,0,1-29.92-45,31.36,31.36,0,0,1,7.13-10.3,33.12,33.12,0,0,1,10.45-6.8A31.89,31.89,0,0,1,417.76,75a32.22,32.22,0,0,1,22.37,9,31.5,31.5,0,0,1,7.2,10.32A32.36,32.36,0,0,1,449.94,107.36Zm-7.3.17q0-12.19-4.31-19.07t-9.95-9.23a27.78,27.78,0,0,0-10.62-2.34,27.45,27.45,0,0,0-8,1.26,22.69,22.69,0,0,0-8.06,4.63,24.45,24.45,0,0,0-6.45,9.45,39.28,39.28,0,0,0-2.53,15A41,41,0,0,0,394.81,121a25.56,25.56,0,0,0,5.77,9.58,22.07,22.07,0,0,0,8.08,5.35,26.3,26.3,0,0,0,9.19,1.64,26.57,26.57,0,0,0,8.64-1.51,22.18,22.18,0,0,0,8-4.94,24.71,24.71,0,0,0,5.89-9.29A39.88,39.88,0,0,0,442.64,107.53Z"/><path class="a" d="M458.19,77.64h-.83v-.88H478.5a21.25,21.25,0,0,1,8.65,1.58,14.49,14.49,0,0,1,5.51,4,15.36,15.36,0,0,1,2.82,5.12,17.52,17.52,0,0,1,.85,5.31,15.1,15.1,0,0,1-1.39,6.36,13.72,13.72,0,0,1-4.27,5.25,16.58,16.58,0,0,1-7.19,3v.17q5.47,2.66,10.12,10.53l5.51,9.33q3.74,6.26,6,7.92a9,9,0,0,0,4.46,1.86v.67H498.45c-.47-.61-.92-1.2-1.33-1.76s-.86-1.17-1.33-1.81l-1.22-1.88a17,17,0,0,0-1-1.44l-7.3-12.06a30.81,30.81,0,0,0-4.5-6,17.33,17.33,0,0,0-4.29-3.3,12.39,12.39,0,0,0-3.59-1.24,24.06,24.06,0,0,0-3.75-.25v22.35q0,6.51,6.63,6.71v.67H457.36v-.67a9.18,9.18,0,0,0,3.23-.68,5.15,5.15,0,0,0,2.34-2.07,7.25,7.25,0,0,0,.94-4V84.27c0-2.43-.6-4.15-1.79-5.14A5.88,5.88,0,0,0,458.19,77.64Zm12,28.85h3.48a22,22,0,0,0,9-1.57,10.35,10.35,0,0,0,5.08-4.5,14.9,14.9,0,0,0,1.57-7.15,17.83,17.83,0,0,0-1.41-6.91,12.81,12.81,0,0,0-4.79-5.68q-3.37-2.3-9.1-2.3a16.67,16.67,0,0,0-3.81.37Z"/><path class="a" d="M536,137.84H513.12v-.67H514a5.46,5.46,0,0,0,4-1.68,6.8,6.8,0,0,0,1.68-5V84.35a7.54,7.54,0,0,0-1.55-5.08,5.28,5.28,0,0,0-4.21-1.8h-.75v-.71h20a22.45,22.45,0,0,1,7.25,1.14,16.83,16.83,0,0,1,5.62,3.16,14.53,14.53,0,0,1,3.55,4.56,12.56,12.56,0,0,1,1.24,5.53,11.89,11.89,0,0,1-3.57,9,21.59,21.59,0,0,1-9.57,5.06v.16a47.3,47.3,0,0,1,5.26.87,19.74,19.74,0,0,1,4.56,1.62,16.88,16.88,0,0,1,3.82,2.69,16.25,16.25,0,0,1,2.73,3.28,14.21,14.21,0,0,1,1.7,3.88,15.8,15.8,0,0,1,.58,4.29,13.76,13.76,0,0,1-2.46,8.21,18,18,0,0,1-5.58,5.22Q543.76,137.84,536,137.84Zm-10-33h4q4.89,0,7-1a14.94,14.94,0,0,0,2.76-1.83,11.73,11.73,0,0,0,2.74-3.65,12.77,12.77,0,0,0,1.3-6,15.51,15.51,0,0,0-.87-5.2,13.36,13.36,0,0,0-2.53-4.38,11.88,11.88,0,0,0-3.94-3,11.47,11.47,0,0,0-5-1.08,19.58,19.58,0,0,0-5.43.91Zm6.26,1.87h-6.26v22a13.14,13.14,0,0,0,.43,3.67,4.53,4.53,0,0,0,2.38,2.55,12.9,12.9,0,0,0,6,1.08q8.41,0,12-5.6a15.82,15.82,0,0,0,2.45-8.66,15.6,15.6,0,0,0-1.23-6.3,13.06,13.06,0,0,0-3.36-4.71,15.26,15.26,0,0,0-5.36-3A22.17,22.17,0,0,0,532.2,106.66Z"/><path class="a" d="M562.55,77.64h-.83v-.88h21.14a21.29,21.29,0,0,1,8.65,1.58,14.49,14.49,0,0,1,5.51,4,15.72,15.72,0,0,1,2.82,5.12,17.52,17.52,0,0,1,.85,5.31,15.1,15.1,0,0,1-1.39,6.36,13.72,13.72,0,0,1-4.27,5.25,16.58,16.58,0,0,1-7.19,3v.17q5.48,2.66,10.11,10.53l5.52,9.33q3.74,6.26,6,7.92a9,9,0,0,0,4.46,1.86v.67H602.8c-.47-.61-.91-1.2-1.32-1.76l-1.33-1.81-1.22-1.88a15.9,15.9,0,0,0-1-1.44l-7.29-12.06a30.81,30.81,0,0,0-4.5-6,17.52,17.52,0,0,0-4.29-3.3,12.5,12.5,0,0,0-3.59-1.24,24.15,24.15,0,0,0-3.75-.25v22.35q0,6.51,6.63,6.71v.67H561.72v-.67a9.18,9.18,0,0,0,3.23-.68,5.15,5.15,0,0,0,2.34-2.07,7.25,7.25,0,0,0,.94-4V84.27c0-2.43-.6-4.15-1.79-5.14A5.9,5.9,0,0,0,562.55,77.64Zm12,28.85H578a22,22,0,0,0,9-1.57,10.35,10.35,0,0,0,5.08-4.5,14.9,14.9,0,0,0,1.57-7.15,17.83,17.83,0,0,0-1.41-6.91,12.81,12.81,0,0,0-4.79-5.68q-3.37-2.3-9.1-2.3a16.54,16.54,0,0,0-3.81.37Z"/><path class="a" d="M637,76.76v.71A7.18,7.18,0,0,0,632.37,79q-1.9,1.55-1.91,5.1v46.36c0,2.35.68,4,2,5.12a7.17,7.17,0,0,0,4.52,1.59v.67H617.65v-.67a7.05,7.05,0,0,0,4.58-1.55c1.28-1,1.93-2.76,1.93-5.16V84.1c0-2.54-.65-4.28-1.93-5.22a7.55,7.55,0,0,0-4.58-1.41v-.71Z"/><path class="a" d="M643.27,77.47v-.71h23.51a46.07,46.07,0,0,1,9.1.85,39.3,39.3,0,0,1,7.46,2.26A31.55,31.55,0,0,1,689,83a26.74,26.74,0,0,1,4.07,3.42A30.82,30.82,0,0,1,698,92.83a30,30,0,0,1,3.05,7.48,32.35,32.35,0,0,1,1,8.13,31.22,31.22,0,0,1-1,8,28.05,28.05,0,0,1-2.86,7,28.82,28.82,0,0,1-4.46,5.82,32.44,32.44,0,0,1-6,4.73,28.49,28.49,0,0,1-6.76,2.82,39.29,39.29,0,0,1-10.32,1.08H643.27v-.67h.83a4.74,4.74,0,0,0,4.27-2.15,8.21,8.21,0,0,0,1.41-4.56V84.35a8.92,8.92,0,0,0-.77-3.9,5,5,0,0,0-2-2.28,5.85,5.85,0,0,0-2.86-.7Zm12.81,2.2v48.38a9.51,9.51,0,0,0,1.14,5.25,5.38,5.38,0,0,0,3.55,2.17,36.57,36.57,0,0,0,7.05.5,41.23,41.23,0,0,0,11.19-1.3,20,20,0,0,0,8.83-5.83,25.49,25.49,0,0,0,5.06-8.21,32.1,32.1,0,0,0,1.91-11.73,38.45,38.45,0,0,0-1.54-10.76,28.6,28.6,0,0,0-4.68-9.48,24.18,24.18,0,0,0-9.06-7.33,30.59,30.59,0,0,0-13.33-2.66A64.39,64.39,0,0,0,656.08,79.67Z"/><path class="a" d="M765.33,89.45h-.66a13.82,13.82,0,0,0-7-9.26,25.66,25.66,0,0,0-13.06-3.3,31.44,31.44,0,0,0-8.19,1.18,25.34,25.34,0,0,0-8.52,4.29,23.15,23.15,0,0,0-6.88,9q-2.73,5.91-2.74,14.86,0,14.27,6.66,22.81t21.37,8.54a33.32,33.32,0,0,0,8.54-.79c1.83-.52,3-1.24,3.51-2.15a7.63,7.63,0,0,0,.76-3.7V119.76q0-4-1.72-5.27a10.92,10.92,0,0,0-5.16-1.7v-.7h19.86v.7a10.58,10.58,0,0,0-4.23,1.19,4.36,4.36,0,0,0-2,2.3,11.5,11.5,0,0,0-.5,3.73v17a72.34,72.34,0,0,1-18.82,2.44,58.48,58.48,0,0,1-9.91-.83,33.5,33.5,0,0,1-10.2-3.68,28.18,28.18,0,0,1-9.37-8.46,31.67,31.67,0,0,1-6.09-19A33,33,0,0,1,719.87,85a31,31,0,0,1,10.59-7.29A34.93,34.93,0,0,1,744.35,75a40.51,40.51,0,0,1,5.77.4q2.82.39,8.41,1.59a16.7,16.7,0,0,0,3.16.5,3.14,3.14,0,0,0,3-2h.66Z"/><path class="a" d="M775.7,77.47v-.71h36.4v9.62h-.58q0-7.71-10.28-7.71H788.51v27.74h11.2a15.44,15.44,0,0,0,5.93-1.08q2.61-1.08,3-4.93h.62v13.85h-.62a7.51,7.51,0,0,0-1.41-3.63,5.41,5.41,0,0,0-2.05-1.68,4.83,4.83,0,0,0-1.81-.42,19.47,19.47,0,0,0-3.1-.24H788.51V130a9,9,0,0,0,.93,4.23c.63,1.19,2.07,1.78,4.34,1.78h9.08a13.28,13.28,0,0,0,5.39-.95,8.05,8.05,0,0,0,3.33-2.66,15.87,15.87,0,0,0,2.06-4.1h.58l-2.12,9.58H775.7v-.67h.83a5.86,5.86,0,0,0,3.81-1.57c1.25-1,1.87-2.77,1.87-5.14v-46a9.26,9.26,0,0,0-1.26-4.9q-1.28-2.07-4.42-2.07Z"/><path class="a" d="M689,181.55c-1.64,5.54-5.73,9.72-13.1,9.72-10,0-15.3-8-15.3-17.79,0-9.42,5.18-18,15.35-18,7.52,0,12,4.19,13.1,10h-2.69c-1.59-4.54-4.53-7.53-10.56-7.53-8.67,0-12.31,7.92-12.31,15.45s3.59,15.35,12.51,15.35c5.68,0,8.57-2.94,10.31-7.23Z"/><path class="a" d="M705.08,190.87v-13.1a1.7,1.7,0,0,0-.2-.8l-12.46-21h3.14c3.49,5.93,9.57,16.24,11.07,18.84,1.49-2.6,7.62-12.81,11.36-18.84h3l-13,21.18a1.53,1.53,0,0,0-.15.75v13Z"/><path class="a" d="M725.82,156H738c6.67,0,10.26,3.54,10.26,8.57a7.52,7.52,0,0,1-5.38,7.62,8.83,8.83,0,0,1,6.63,8.63c0,7-5.23,10.06-11.31,10.06H725.82Zm11.26,15c6,0,8.32-2.24,8.32-6.28,0-3.44-2.39-6.23-7.27-6.23h-9.67V171Zm-8.62,17.39h9.81c4.59,0,8.43-2.29,8.43-7.42,0-4.44-2.84-7.48-9.87-7.48h-8.37Z"/><path class="a" d="M778,173.73h-17.8v14.65h19.49l-.4,2.49H757.46V156h21.38v2.49H760.15v12.76H778Z"/><path class="a" d="M789.26,174.58v16.29h-2.74V156H799c6.88,0,10.51,3.69,10.51,9.17a7.9,7.9,0,0,1-6.52,8.17c3.58.85,6,3.19,6,9.12v1.35c0,2.44-.2,5.73.44,7.07H806.7c-.64-1.49-.49-4.28-.49-7.27v-.9c0-5.73-1.7-8.12-8.38-8.12Zm0-2.5h8.42c6.13,0,9-2.29,9-6.87,0-4.29-2.79-6.73-8.22-6.73h-9.17Z"/><line class="b" x1="635.44" y1="173.72" x2="234.94" y2="173.72"/><path class="a" d="M182.89,96.22c-11.85,7.88-22.53,14.81-33,22-3,2.09-5.16,2.4-8.39.2-9.88-6.73-20-13-30.1-19.5-1.3-.83-2.67-1.54-4.5-2.59-.13,2-.28,3.34-.29,4.7,0,20.43.06,40.85-.07,61.28,0,3.25.82,5.14,3.93,6.65,10.61,5.14,21,10.77,31.6,15.9a8.34,8.34,0,0,0,6.45.06c10.42-5.18,20.6-10.82,31-16.11,2.48-1.27,3.48-2.77,3.37-5.55-.2-5.06-.06-10.12-.06-15.4h23c0,10.46.09,20.79-.12,31.12,0,1.15-1.59,2.67-2.81,3.32q-27.39,14.67-54.94,29a5.93,5.93,0,0,1-4.71,0q-28.38-14.32-56.55-29a5.84,5.84,0,0,1-2.8-4.17c-.15-40.69-.11-81.38-.09-122.07a11.21,11.21,0,0,1,.46-1.91c6.37,4.06,12.51,7.95,18.63,11.88,12.73,8.2,25.53,16.31,38.13,24.7,3.23,2.15,5.47,2.29,8.8,0,17.12-11.68,34.45-23.06,51.71-34.53,1.14-.76,2.38-1.39,4-2.33v71.42H182.89Z"/></svg>