<svg xmlns="http://www.w3.org/2000/svg" viewBox="0 0 1005 372"><defs><style>.a,.b{fill:#172963;}.b{stroke:#172963;stroke-miterlimit:10;stroke-width:4px;}</style></defs><path class="a" d="M744,245.29c-1.64,5.53-5.73,9.71-13.1,9.71-10,0-15.3-8-15.3-17.79,0-9.42,5.18-18,15.35-18,7.52,0,12,4.19,13.1,10h-2.69c-1.59-4.54-4.53-7.53-10.56-7.53-8.68,0-12.31,7.93-12.31,15.45S722,252.51,731,252.51c5.69,0,8.58-2.94,10.32-7.22Z"/><path class="a" d="M760.06,254.61V241.5a1.7,1.7,0,0,0-.2-.8l-12.46-21h3.14c3.49,5.93,9.57,16.25,11.07,18.84,1.49-2.59,7.62-12.81,11.36-18.84h3L763,240.9a1.53,1.53,0,0,0-.15.75v13Z"/><path class="a" d="M780.79,219.72H793c6.68,0,10.27,3.54,10.27,8.57a7.54,7.54,0,0,1-5.38,7.63,8.82,8.82,0,0,1,6.63,8.62c0,7-5.24,10.07-11.32,10.07H780.79Zm11.27,15c6,0,8.32-2.24,8.32-6.28,0-3.44-2.39-6.23-7.28-6.23h-9.66v12.51Zm-8.62,17.39h9.81c4.59,0,8.43-2.29,8.43-7.42,0-4.44-2.84-7.48-9.87-7.48h-8.37Z"/><path class="a" d="M832.93,237.46h-17.8v14.65h19.49l-.4,2.5H812.44V219.72h21.38v2.49H815.13V235h17.8Z"/><path class="a" d="M844.24,238.31v16.3H841.5V219.72H854c6.88,0,10.51,3.69,10.51,9.17a7.89,7.89,0,0,1-6.53,8.17c3.59.85,6,3.19,6,9.12v1.35c0,2.44-.2,5.73.44,7.08h-2.74c-.65-1.5-.5-4.29-.5-7.28v-.9c0-5.73-1.69-8.12-8.37-8.12Zm0-2.49h8.42c6.13,0,9-2.3,9-6.88,0-4.29-2.79-6.73-8.22-6.73h-9.17Z"/><path class="a" d="M363,140.23V141c-1.28.15-2.19.28-2.74.39a4.52,4.52,0,0,0-1.83.93,5.65,5.65,0,0,0-1.94,2.24,13.59,13.59,0,0,0-.47,3.65,1.16,1.16,0,0,0,0,.82L358.37,199a10.72,10.72,0,0,0,1.51,5.43q1.41,2.28,6.16,2.32v.73H344.27v-.73q4.29-.45,5.8-2.48c1-1.36,1.43-3.46,1.28-6.32L349,146.26h-.18l-23.73,61.18-22.45-58.95h-.18l-2.42,47.64a18.87,18.87,0,0,0,.48,6.09,5.33,5.33,0,0,0,2.12,3.1,11.38,11.38,0,0,0,4.34,1.39v.73H290.07v-.73a7.32,7.32,0,0,0,4.93-1.55,7.08,7.08,0,0,0,2.21-3.76,42.5,42.5,0,0,0,.8-6.18l2.69-49.28a2.17,2.17,0,0,0-.55-1,10.28,10.28,0,0,0-1.34-1.42,10.15,10.15,0,0,0-1.53-1.12,7.37,7.37,0,0,0-2.7-1.11c-.76-.11-1.82-.21-3.19-.3v-.78H307l20.8,55,21.13-55Z"/><path class="a" d="M444.06,173.91a34.66,34.66,0,0,1-4.67,17.56,35.34,35.34,0,0,1-12.76,12.94,34.23,34.23,0,0,1-17.88,4.81A35.47,35.47,0,0,1,373,173.63a34.73,34.73,0,0,1,10.65-25.23,36.45,36.45,0,0,1,11.5-7.48,35.61,35.61,0,0,1,38.1,7.21,34.68,34.68,0,0,1,7.92,11.36A35.7,35.7,0,0,1,444.06,173.91Zm-8,.18q0-13.41-4.74-21t-11-10.15a28.1,28.1,0,0,0-20.49-1.19,25,25,0,0,0-8.88,5.09,27,27,0,0,0-7.09,10.4q-2.79,6.72-2.78,16.57a44.85,44.85,0,0,0,2.3,15.12,28.22,28.22,0,0,0,6.34,10.54,24.32,24.32,0,0,0,8.9,5.89,28.69,28.69,0,0,0,19.62.14,24.47,24.47,0,0,0,8.81-5.43,27.18,27.18,0,0,0,6.47-10.22A44,44,0,0,0,436,174.09Z"/><path class="a" d="M524.91,173.91a34.56,34.56,0,0,1-4.67,17.56,35.39,35.39,0,0,1-12.75,12.94,34.29,34.29,0,0,1-17.89,4.81,35.47,35.47,0,0,1-35.73-35.59,34.68,34.68,0,0,1,10.66-25.23A36.41,36.41,0,0,1,476,140.92a35.61,35.61,0,0,1,38.1,7.21A34.68,34.68,0,0,1,522,159.49,35.53,35.53,0,0,1,524.91,173.91Zm-8,.18q0-13.41-4.74-21T501.19,143a28.1,28.1,0,0,0-20.49-1.19,24.91,24.91,0,0,0-8.87,5.09,27,27,0,0,0-7.1,10.4Q462,164,462,173.82a45.1,45.1,0,0,0,2.3,15.12,28.22,28.22,0,0,0,6.34,10.54,24.4,24.4,0,0,0,8.9,5.89,28.69,28.69,0,0,0,19.62.14,24.38,24.38,0,0,0,8.81-5.43,27.31,27.31,0,0,0,6.48-10.22A44,44,0,0,0,516.88,174.09Z"/><path class="a" d="M534,141.19h-.91v-1h23.27a23.36,23.36,0,0,1,9.52,1.74,16,16,0,0,1,6.06,4.4A17.12,17.12,0,0,1,575,152a19.39,19.39,0,0,1,.93,5.84,16.7,16.7,0,0,1-1.53,7,15,15,0,0,1-4.7,5.77,18.15,18.15,0,0,1-7.91,3.29v.18q6,2.92,11.13,11.59L579,196q4.11,6.88,6.59,8.71a9.89,9.89,0,0,0,4.91,2.05v.73H578.3c-.52-.66-1-1.31-1.46-1.93l-1.46-2L574,201.44a16.79,16.79,0,0,0-1.07-1.57l-8-13.28A33.73,33.73,0,0,0,560,180a19,19,0,0,0-4.72-3.63,14,14,0,0,0-4-1.37,27.56,27.56,0,0,0-4.13-.27v24.59q0,7.17,7.3,7.39v.73h-21.4v-.73a10.19,10.19,0,0,0,3.56-.75,5.73,5.73,0,0,0,2.58-2.28,8.11,8.11,0,0,0,1-4.36V148.49c0-2.67-.66-4.56-2-5.65A6.49,6.49,0,0,0,534,141.19ZM547.18,173H551a24.31,24.31,0,0,0,9.88-1.73,11.39,11.39,0,0,0,5.59-4.95,16.39,16.39,0,0,0,1.74-7.88,19.46,19.46,0,0,0-1.56-7.59,14,14,0,0,0-5.27-6.25q-3.72-2.53-10-2.54a18,18,0,0,0-4.2.41Z"/><path class="a" d="M619.59,207.44H594.45v-.73h.91a6,6,0,0,0,4.41-1.84,7.56,7.56,0,0,0,1.85-5.55V148.58A8.27,8.27,0,0,0,599.9,143a5.8,5.8,0,0,0-4.63-2h-.82v-.78H616.4a24.28,24.28,0,0,1,8,1.26,18.3,18.3,0,0,1,6.19,3.47,15.94,15.94,0,0,1,3.9,5,13.73,13.73,0,0,1,1.37,6.09,13.06,13.06,0,0,1-3.93,9.85,23.68,23.68,0,0,1-10.54,5.57v.18a49.76,49.76,0,0,1,5.8,1,22,22,0,0,1,5,1.78,18.21,18.21,0,0,1,4.19,3,17.72,17.72,0,0,1,3,3.6,16.2,16.2,0,0,1,1.87,4.27,17.79,17.79,0,0,1,.63,4.72,15.06,15.06,0,0,1-2.71,9,19.54,19.54,0,0,1-6.14,5.75Q628.17,207.45,619.59,207.44Zm-11-36.36h4.38q5.39,0,7.67-1.1a16.6,16.6,0,0,0,3-2,12.72,12.72,0,0,0,3-4,14,14,0,0,0,1.44-6.61,17.06,17.06,0,0,0-1-5.73,14.9,14.9,0,0,0-2.78-4.82,13.19,13.19,0,0,0-4.34-3.28,12.62,12.62,0,0,0-5.47-1.19,21.28,21.28,0,0,0-6,1Zm6.89,2h-6.89v24.23a14.46,14.46,0,0,0,.48,4,5,5,0,0,0,2.62,2.8c1.43.8,3.64,1.19,6.62,1.19q9.26,0,13.19-6.16a17.47,17.47,0,0,0,2.69-9.53,17.22,17.22,0,0,0-1.35-6.94,14.63,14.63,0,0,0-3.69-5.18,17,17,0,0,0-5.91-3.26A24.47,24.47,0,0,0,615.44,173.13Z"/><path class="a" d="M669.51,140.23V141a7.87,7.87,0,0,0-5.11,1.69c-1.4,1.12-2.1,3-2.1,5.61v51q0,3.88,2.24,5.64a7.83,7.83,0,0,0,5,1.75v.73H648.2v-.73a7.77,7.77,0,0,0,5-1.71q2.13-1.71,2.13-5.68v-51c0-2.8-.71-4.71-2.13-5.75a8.31,8.31,0,0,0-5-1.55v-.78Z"/><path class="a" d="M676.4,141v-.78h25.87a50.48,50.48,0,0,1,10,.94,42,42,0,0,1,8.21,2.49,34,34,0,0,1,6.27,3.4,28.52,28.52,0,0,1,4.47,3.76A33.7,33.7,0,0,1,740,166.15a35.9,35.9,0,0,1,1.12,8.94,34.27,34.27,0,0,1-1.1,8.77,30.85,30.85,0,0,1-3.15,7.68A31.38,31.38,0,0,1,732,198a35.76,35.76,0,0,1-6.64,5.21,31.5,31.5,0,0,1-7.44,3.1,43.42,43.42,0,0,1-11.36,1.18H676.4v-.73h.91a5.23,5.23,0,0,0,4.7-2.37,9,9,0,0,0,1.55-5V148.58a9.75,9.75,0,0,0-.84-4.28,5.42,5.42,0,0,0-2.26-2.51,6.4,6.4,0,0,0-3.15-.78Zm14.1,2.42v53.25c0,2.61.42,4.54,1.25,5.77a5.92,5.92,0,0,0,3.9,2.39,40.69,40.69,0,0,0,7.76.55A45.28,45.28,0,0,0,715.73,204a21.81,21.81,0,0,0,9.72-6.41,28,28,0,0,0,5.57-9,35.52,35.52,0,0,0,2.1-12.91,42.78,42.78,0,0,0-1.69-11.84,31.53,31.53,0,0,0-5.16-10.43,26.74,26.74,0,0,0-10-8.08,33.78,33.78,0,0,0-14.67-2.92A71.56,71.56,0,0,0,690.5,143.43Z"/><path class="a" d="M810.73,154.2H810a15.3,15.3,0,0,0-7.76-10.2,28.26,28.26,0,0,0-14.37-3.63,34.93,34.93,0,0,0-9,1.3,27.73,27.73,0,0,0-9.38,4.72,25.41,25.41,0,0,0-7.57,9.93q-3,6.5-3,16.36,0,15.69,7.33,25.09t23.52,9.4a36.86,36.86,0,0,0,9.4-.87q3-.86,3.85-2.37a8.23,8.23,0,0,0,.85-4.06V187.55q0-4.38-1.89-5.79a11.84,11.84,0,0,0-5.69-1.87v-.78h21.86v.78a11.38,11.38,0,0,0-4.65,1.3,4.73,4.73,0,0,0-2.19,2.53,12.45,12.45,0,0,0-.55,4.1v18.71A79.41,79.41,0,0,1,790,209.22a64.92,64.92,0,0,1-10.9-.91,36.83,36.83,0,0,1-11.23-4.06,31,31,0,0,1-10.31-9.31A34.81,34.81,0,0,1,750.86,174a36.35,36.35,0,0,1,9.84-24.75,33.91,33.91,0,0,1,11.66-8,38.34,38.34,0,0,1,15.28-2.95,45.61,45.61,0,0,1,6.34.44q3.1.43,9.27,1.75a17.66,17.66,0,0,0,3.46.55,3.45,3.45,0,0,0,3.29-2.24h.73Z"/><path class="a" d="M822.14,141v-.78H862.2v10.59h-.64q0-8.49-11.32-8.49h-14v30.53h12.32a17,17,0,0,0,6.53-1.19c1.91-.79,3-2.6,3.28-5.43h.69v15.24h-.69a8.24,8.24,0,0,0-1.55-4,6,6,0,0,0-2.26-1.85,5.36,5.36,0,0,0-2-.45,20.07,20.07,0,0,0-3.42-.28H836.23v23.87a10,10,0,0,0,1,4.65c.69,1.31,2.27,2,4.77,2h10a14.48,14.48,0,0,0,5.93-1,9,9,0,0,0,3.68-2.92,17.34,17.34,0,0,0,2.25-4.52h.64l-2.32,10.54H822.14v-.73h.91a6.46,6.46,0,0,0,4.2-1.73c1.36-1.16,2-3,2-5.66V148.68a10.22,10.22,0,0,0-1.39-5.39q-1.39-2.28-4.86-2.28Z"/><line class="b" x1="690.42" y1="237.45" x2="289.92" y2="237.45"/><path class="a" d="M237.87,160c-11.85,7.88-22.53,14.82-33,22.05-3,2.1-5.16,2.4-8.39.21-9.88-6.73-20-13.05-30.1-19.51-1.3-.83-2.67-1.54-4.5-2.59-.13,2-.29,3.34-.29,4.7,0,20.43.06,40.85-.07,61.28,0,3.25.82,5.14,3.93,6.65,10.61,5.15,21,10.77,31.6,15.9a8.34,8.34,0,0,0,6.45.06c10.41-5.17,20.6-10.81,31-16.11,2.48-1.26,3.47-2.77,3.37-5.55-.2-5-.06-10.12-.06-15.4h23c0,10.46.09,20.8-.13,31.12,0,1.15-1.58,2.67-2.8,3.32q-27.39,14.67-54.94,29a6,6,0,0,1-4.72,0q-28.37-14.33-56.54-29a5.84,5.84,0,0,1-2.8-4.17c-.15-40.69-.11-81.38-.09-122.07a11.21,11.21,0,0,1,.46-1.91c6.37,4.06,12.51,7.95,18.63,11.88,12.73,8.2,25.53,16.31,38.13,24.7,3.23,2.15,5.47,2.3,8.8,0,17.12-11.68,34.45-23.06,51.71-34.53,1.14-.76,2.38-1.39,4-2.33v71.42H237.87Z"/></svg>