<svg xmlns="http://www.w3.org/2000/svg" viewBox="0 0 1854 493"><defs><style>.a{fill:#fff;}</style></defs><path class="a" d="M1451.15,369.35C1447.66,381.09,1439,390,1423.34,390c-21.25,0-32.46-16.92-32.46-37.75,0-20,11-38.17,32.57-38.17,16,0,25.38,8.88,27.81,21.25h-5.71c-3.39-9.62-9.62-16-22.42-16-18.4,0-26.12,16.81-26.12,32.78s7.61,32.57,26.54,32.57c12.06,0,18.19-6.24,21.89-15.34Z"/><path class="a" d="M1485.31,389.13V361.32a3.57,3.57,0,0,0-.42-1.69l-26.44-44.52h6.66c7.4,12.58,20.31,34.47,23.48,40,3.17-5.5,16.18-27.18,24.11-40H1519l-27.6,44.94a3.23,3.23,0,0,0-.31,1.58v27.5Z"/><path class="a" d="M1529.3,315.11h25.8c14.17,0,21.79,7.5,21.79,18.19,0,8.77-5.29,14.48-11.42,16.17,5.28,1.48,14.06,6.67,14.06,18.3,0,14.8-11.1,21.36-24,21.36H1529.3Zm23.9,31.83c12.8,0,17.66-4.76,17.66-13.33,0-7.29-5.08-13.22-15.44-13.22h-20.51v26.55Zm-18.29,36.9h20.83c9.73,0,17.87-4.86,17.87-15.76,0-9.41-6-15.86-20.94-15.86h-17.76Z"/><path class="a" d="M1639.91,352.75h-37.75v31.09h41.35l-.85,5.29h-46.21v-74h45.37v5.28h-39.66v27.07h37.75Z"/><path class="a" d="M1663.92,354.55v34.58h-5.82v-74h26.55c14.59,0,22.31,7.82,22.31,19.45,0,9.42-5.61,15.55-13.85,17.35,7.61,1.79,12.69,6.76,12.69,19.35v2.85c0,5.18-.43,12.16,1,15h-5.82c-1.37-3.17-1.06-9.1-1.06-15.44v-1.9c0-12.16-3.59-17.24-17.76-17.24Zm0-5.29h17.87c13,0,19-4.86,19-14.59,0-9.09-5.93-14.28-17.45-14.28h-19.46Z"/><path class="a" d="M642.88,146.46v1.64c-2.71.33-4.64.6-5.8.83a9.46,9.46,0,0,0-3.88,2q-3.29,2.52-4.11,4.74a28,28,0,0,0-1,7.75,2.73,2.73,0,0,0,0,1.74L633,271.06a22.74,22.74,0,0,0,3.19,11.52q3,4.83,13.07,4.93v1.55H603.09v-1.55q9.1-1,12.3-5.27t2.71-13.41l-4.94-109.59h-.38L562.43,289.06,514.8,164h-.39l-5.13,101.07q-.39,8.32,1,12.93a11.32,11.32,0,0,0,4.5,6.58,24.54,24.54,0,0,0,9.2,2.95v1.55H488.08v-1.55q6.87-.09,10.46-3.29a15,15,0,0,0,4.69-8,88.15,88.15,0,0,0,1.7-13.11l5.71-104.56a4.71,4.71,0,0,0-1.16-2.08,22.61,22.61,0,0,0-2.86-3,19.27,19.27,0,0,0-3.24-2.38,15.67,15.67,0,0,0-5.72-2.37q-2.42-.33-6.77-.63v-1.64H524l44.14,116.66L613,146.46Z"/><path class="a" d="M814.82,217.9a73.38,73.38,0,0,1-9.92,37.28,75,75,0,0,1-27.06,27.44,72.7,72.7,0,0,1-38,10.22,75.29,75.29,0,0,1-75.8-75.52,73.5,73.5,0,0,1,22.6-53.53,77.27,77.27,0,0,1,24.4-15.88,75.55,75.55,0,0,1,80.84,15.3,73.54,73.54,0,0,1,16.8,24.1A75.61,75.61,0,0,1,814.82,217.9Zm-17,.39q0-28.46-10.07-44.53t-23.24-21.54q-13.17-5.47-24.78-5.47A64,64,0,0,0,721,149.7a52.9,52.9,0,0,0-18.83,10.79q-9.15,7.84-15,22.08t-5.91,35.14q0,18.4,4.89,32.09t13.46,22.37a51.74,51.74,0,0,0,18.88,12.49,60.8,60.8,0,0,0,41.63.29,51.89,51.89,0,0,0,18.68-11.52q8.47-8,13.75-21.69T797.79,218.29Z"/><path class="a" d="M986.38,217.9a73.48,73.48,0,0,1-9.92,37.28,75,75,0,0,1-27.06,27.44,72.76,72.76,0,0,1-38,10.22,75.29,75.29,0,0,1-75.8-75.52,73.45,73.45,0,0,1,22.61-53.53,77.23,77.23,0,0,1,24.39-15.88,75.53,75.53,0,0,1,80.84,15.3,73.54,73.54,0,0,1,16.8,24.1A75.61,75.61,0,0,1,986.38,217.9Zm-17,.39q0-28.46-10.07-44.53T936,152.22q-13.17-5.47-24.79-5.47a63.85,63.85,0,0,0-18.68,2.95,52.73,52.73,0,0,0-18.83,10.79q-9.15,7.84-15.06,22.08t-5.9,35.14q0,18.4,4.89,32.09t13.45,22.37A51.83,51.83,0,0,0,890,284.66a60.8,60.8,0,0,0,41.63.29,51.93,51.93,0,0,0,18.69-11.52q8.46-8,13.74-21.69T969.34,218.29Z"/><path class="a" d="M1005.64,148.49h-1.93v-2h49.37q11.91,0,20.19,3.68a33.8,33.8,0,0,1,12.87,9.34,36.26,36.26,0,0,1,6.59,12,41.19,41.19,0,0,1,2,12.4,35.5,35.5,0,0,1-3.24,14.86,32,32,0,0,1-10,12.24,38.58,38.58,0,0,1-16.8,7v.39q12.78,6.19,23.62,24.59l12.88,21.79q8.71,14.61,14,18.49a21,21,0,0,0,10.41,4.35v1.55h-25.95q-1.65-2.13-3.1-4.11c-1-1.32-2-2.73-3.1-4.21q-1-1.46-2.85-4.41a34.19,34.19,0,0,0-2.28-3.34l-17-28.17a71.51,71.51,0,0,0-10.5-14,40.29,40.29,0,0,0-10-7.7,29.21,29.21,0,0,0-8.38-2.9,57.22,57.22,0,0,0-8.76-.58v52.18q0,15.19,15.49,15.68v1.55h-45.4v-1.55a21.82,21.82,0,0,0,7.55-1.59,12.11,12.11,0,0,0,5.47-4.84q2.17-3.45,2.18-9.25V164q0-8.52-4.17-12A13.86,13.86,0,0,0,1005.64,148.49Zm28,67.38h8.14q12.77,0,21-3.68a24.08,24.08,0,0,0,11.86-10.5q3.69-6.83,3.68-16.7a41.39,41.39,0,0,0-3.29-16.12,29.85,29.85,0,0,0-11.18-13.26q-7.89-5.38-21.25-5.38a37.75,37.75,0,0,0-8.91.87Z"/><path class="a" d="M1187.27,289.06h-53.35v-1.55h1.94a12.73,12.73,0,0,0,9.34-3.92q3.91-3.91,3.92-11.76V164.17q0-7.63-3.63-11.86a12.34,12.34,0,0,0-9.83-4.21h-1.74v-1.64h46.57a51.66,51.66,0,0,1,16.94,2.66,38.82,38.82,0,0,1,13.12,7.36,33.84,33.84,0,0,1,8.28,10.65,29.14,29.14,0,0,1,2.9,12.92q0,12.88-8.32,20.91T1191,212.77v.39a104.49,104.49,0,0,1,12.3,2A46.71,46.71,0,0,1,1214,219a39.1,39.1,0,0,1,8.9,6.29,37.76,37.76,0,0,1,6.39,7.65,34,34,0,0,1,4,9.05,37.09,37.09,0,0,1,1.36,10,32,32,0,0,1-5.76,19.17,41.64,41.64,0,0,1-13,12.2Q1205.47,289.07,1187.27,289.06Zm-23.43-77.16h9.29q11.43,0,16.27-2.32a35.29,35.29,0,0,0,6.43-4.26,27,27,0,0,0,6.39-8.52,29.77,29.77,0,0,0,3-14,36.37,36.37,0,0,0-2-12.15,31.38,31.38,0,0,0-5.91-10.21,27.78,27.78,0,0,0-9.19-7,26.84,26.84,0,0,0-11.62-2.52,45.14,45.14,0,0,0-12.68,2.13Zm14.62,4.36h-14.62v51.41a30.94,30.94,0,0,0,1,8.56c.68,2.3,2.54,4.28,5.57,6s7.71,2.52,14,2.52q19.65,0,28-13.07a37.07,37.07,0,0,0,5.71-20.24,36.49,36.49,0,0,0-2.86-14.71,30.77,30.77,0,0,0-7.84-11,35.64,35.64,0,0,0-12.54-6.92A51.67,51.67,0,0,0,1178.46,216.26Z"/><path class="a" d="M1293.18,146.46v1.64a16.77,16.77,0,0,0-10.84,3.58q-4.46,3.58-4.46,11.91V271.83q0,8.24,4.75,12a16.68,16.68,0,0,0,10.55,3.72v1.55H1248v-1.55a16.54,16.54,0,0,0,10.7-3.63q4.5-3.63,4.5-12.05V163.59q0-8.9-4.5-12.2a17.68,17.68,0,0,0-10.7-3.29v-1.64Z"/><path class="a" d="M1307.8,148.1v-1.64h54.89a106.69,106.69,0,0,1,21.25,2,89.48,89.48,0,0,1,17.43,5.28,74.06,74.06,0,0,1,13.31,7.21,62.29,62.29,0,0,1,9.49,8A71.26,71.26,0,0,1,1435.69,184a70.41,70.41,0,0,1,7.11,17.48,75.68,75.68,0,0,1,2.38,19,72.56,72.56,0,0,1-2.33,18.59,65.48,65.48,0,0,1-6.68,16.31,66.56,66.56,0,0,1-10.41,13.61,75,75,0,0,1-14.08,11,66.29,66.29,0,0,1-15.78,6.59q-8.91,2.51-24.11,2.51h-64v-1.55h1.93q6.69,0,10-5a19.19,19.19,0,0,0,3.29-10.65V164.17a20.79,20.79,0,0,0-1.79-9.1,11.68,11.68,0,0,0-4.8-5.32,13.61,13.61,0,0,0-6.68-1.65Zm29.91,5.13v113q0,8.32,2.67,12.24a12.5,12.5,0,0,0,8.27,5.08,86.57,86.57,0,0,0,16.46,1.17q15.5,0,26.14-3t20.62-13.61a59.17,59.17,0,0,0,11.81-19.17q4.46-11.32,4.46-27.39a90.37,90.37,0,0,0-3.59-25.13,66.49,66.49,0,0,0-10.94-22.12,56.54,56.54,0,0,0-21.15-17.13q-12.92-6.2-31.12-6.2A151.66,151.66,0,0,0,1337.71,153.23Z"/><path class="a" d="M1592.82,176.08h-1.55q-3.11-13.94-16.46-21.64t-30.5-7.69a73.49,73.49,0,0,0-19.12,2.76,58.66,58.66,0,0,0-19.89,10q-9.69,7.26-16.07,21.05t-6.39,34.71q0,33.3,15.53,53.25t49.91,19.94q13.56,0,20-1.84t8.18-5a17.69,17.69,0,0,0,1.79-8.62V246.85q0-9.28-4-12.29t-12-4v-1.65h46.37v1.65q-6.39.67-9.88,2.76a10.16,10.16,0,0,0-4.64,5.37,26.64,26.64,0,0,0-1.16,8.71v39.7a169.3,169.3,0,0,1-44,5.71,138.15,138.15,0,0,1-23.13-1.94,78,78,0,0,1-23.82-8.61A65.76,65.76,0,0,1,1480,262.54a73.91,73.91,0,0,1-14.23-44.44,77,77,0,0,1,20.86-52.52,72.2,72.2,0,0,1,24.74-17,81.75,81.75,0,0,1,32.43-6.25,97.73,97.73,0,0,1,13.46.92q6.57.93,19.65,3.73a37.83,37.83,0,0,0,7.36,1.16q4.74,0,7-4.74h1.55Z"/><path class="a" d="M1617,148.1v-1.64h85v22.46h-1.35q0-18-24-18h-29.73v64.77h26.14a36,36,0,0,0,13.85-2.52q6.09-2.52,7-11.52h1.45V234h-1.45a17.51,17.51,0,0,0-3.29-8.47,12.85,12.85,0,0,0-4.8-3.93,11.4,11.4,0,0,0-4.21-1,43.74,43.74,0,0,0-7.26-.59h-27.4v50.64a21,21,0,0,0,2.18,9.87q2.19,4.17,10.12,4.17h21.2a30.66,30.66,0,0,0,12.59-2.23,18.87,18.87,0,0,0,7.79-6.2,37,37,0,0,0,4.79-9.58H1707L1702,289.06h-85v-1.55H1619a13.69,13.69,0,0,0,8.9-3.68q4.37-3.68,4.36-12V164.37a21.61,21.61,0,0,0-3-11.43q-3-4.83-10.31-4.84Z"/><path class="a" d="M377.33,188.29c-25.15,16.72-47.81,31.44-70,46.79-6.42,4.44-11,5.1-17.8.43-21-14.28-42.53-27.68-63.88-41.38-2.75-1.77-5.67-3.28-9.54-5.5-.27,4.19-.61,7.08-.61,10,0,43.34.11,86.68-.16,130,0,6.91,1.74,10.92,8.34,14.12,22.51,10.91,44.53,22.85,67.05,33.73,3.79,1.83,10,2,13.69.13,22.1-11,43.71-23,65.69-34.18,5.26-2.69,7.37-5.88,7.14-11.78-.42-10.72-.12-21.48-.12-32.68h48.72c0,22.21.19,44.13-.27,66-.05,2.43-3.36,5.66-6,7Q361.47,402.15,303,432.65a12.64,12.64,0,0,1-10,0Q232.83,402.25,173,371c-2.84-1.48-5.94-5.83-5.95-8.85q-.47-129.51-.19-259a24.08,24.08,0,0,1,1-4.06c13.53,8.63,26.56,16.88,39.53,25.23,27,17.39,54.17,34.6,80.92,52.4,6.85,4.56,11.61,4.87,18.68.05,36.32-24.79,73.08-48.94,109.71-73.28,2.42-1.61,5-2.94,8.51-5V250.11H377.33Z"/></svg>