<svg xmlns="http://www.w3.org/2000/svg" viewBox="0 0 1011 957"><defs><style>.a{fill:#f2f5f9;}.b{fill:#e1e8ef;}.c{fill:#cadaf1;}.d{fill:#6c8bb7;}.e{fill:#87a1cf;}.f{fill:#d2dfee;}.g{fill:none;stroke:#556884;stroke-linecap:round;stroke-miterlimit:10;stroke-width:1.93px;}.h{fill:#b0c9e2;}.i{fill:#fff;}.j{fill:#314e9e;}.k{fill:#233f7c;}.l{fill:#172963;}.m{fill:#a4bfd8;}</style></defs><circle class="a" cx="500" cy="427.19" r="368.78" transform="translate(-155.63 478.67) rotate(-45)"/><path class="b" d="M927.76,885.73H92.24a21.18,21.18,0,0,1-21.18-21.18h0a21.18,21.18,0,0,1,21.18-21.18H927.76a21.18,21.18,0,0,1,21.18,21.18h0A21.18,21.18,0,0,1,927.76,885.73Z"/><path class="c" d="M422.77,93.22A56.88,56.88,0,0,0,366.53,142h-8.67a23.29,23.29,0,0,0,0,46.58H487.69a23.29,23.29,0,1,0,0-46.58h-8.64a56.88,56.88,0,0,0-56.28-48.82Z"/><path class="c" d="M215.48,273.38a82.33,82.33,0,0,0-81.42,70.67H121.5a33.72,33.72,0,1,0,0,67.43h188a33.72,33.72,0,1,0,0-67.43H297a82.33,82.33,0,0,0-81.47-70.67Z"/><path class="c" d="M815,596.62a53.94,53.94,0,0,0-53.34,46.31h-8.23a22.09,22.09,0,1,0,0,44.18H876.54a22.09,22.09,0,0,0,0-44.18h-8.2A53.94,53.94,0,0,0,815,596.62Z"/><path class="d" d="M138.25,460.38H603c20.3,0,39.51,15.77,42.91,35.22l52.54,300.29c3.4,19.44-10.3,35.21-30.59,35.21H203.11c-20.3,0-39.51-15.77-42.91-35.21L107.66,495.6C104.26,476.15,118,460.38,138.25,460.38Z"/><path class="e" d="M155.39,460.38H620.14c20.29,0,39.5,15.77,42.91,35.22l52.53,300.29C719,815.33,705.29,831.1,685,831.1H220.24c-20.29,0-39.5-15.77-42.91-35.21L124.8,495.6C121.4,476.15,135.09,460.38,155.39,460.38Z"/><path class="f" d="M152.36,475.73c-9,0-14.52,6.73-13,15.7l54,308.63a19,19,0,0,0,18.44,15.7H688c9,0,14.52-6.74,13-15.7L647,491.43a19,19,0,0,0-18.45-15.7Z"/><path class="g" d="M411.28,475.73H152.36c-9,0-14.52,6.73-13,15.7l54,308.63a19,19,0,0,0,18.44,15.7H688c9,0,14.52-6.74,13-15.7"/><path class="d" d="M203.29,864.55H878.83c10.94,0,19.8-7.49,19.8-16.73h0c0-9.23-8.86-16.72-19.8-16.72H203.29c-10.93,0-19.79,7.49-19.79,16.72h0C183.5,857.06,192.36,864.55,203.29,864.55Z"/><path class="e" d="M382,864.55H915.66c7,0,12.68-7.49,12.68-16.73h0c0-9.23-5.68-16.72-12.68-16.72H382c-7,0-12.68,7.49-12.68,16.72h0C369.3,857.06,375,864.55,382,864.55Z"/><path class="e" d="M91.25,525.38H345.33a16.13,16.13,0,0,1,15.17,12.49l5.23,26.23c1.37,6.89-3.19,12.48-10.18,12.48H101.46A16.12,16.12,0,0,1,86.3,564.1l-5.23-26.23C79.69,531,84.25,525.38,91.25,525.38Z"/><path class="h" d="M99.82,525.38H353.9a16.13,16.13,0,0,1,15.17,12.49l5.23,26.23c1.37,6.89-3.19,12.48-10.19,12.48H110A16.11,16.11,0,0,1,94.87,564.1l-5.23-26.23C88.26,531,92.82,525.38,99.82,525.38Z"/><path class="i" d="M181.54,543.24c-4.28,0-7,3.46-6.2,7.74h0a9.92,9.92,0,0,0,9.28,7.75h0c4.27,0,7.05-3.47,6.19-7.75A9.92,9.92,0,0,0,181.54,543.24Zm35.34,0c-4.27,0-7,3.46-6.2,7.74h0a9.93,9.93,0,0,0,9.29,7.75h0c4.28,0,7.05-3.47,6.2-7.75A9.93,9.93,0,0,0,216.88,543.24Zm35.35,0c-4.28,0-7,3.46-6.2,7.74h0a9.92,9.92,0,0,0,9.28,7.75h0c4.27,0,7.05-3.47,6.19-7.75A9.92,9.92,0,0,0,252.23,543.24Zm35.35,0c-4.28,0-7.06,3.46-6.21,7.74h0a9.91,9.91,0,0,0,9.28,7.75h0c4.28,0,7-3.47,6.2-7.75A9.92,9.92,0,0,0,287.58,543.24Zm35.34,0c-4.28,0-7.05,3.46-6.2,7.74h0a9.92,9.92,0,0,0,9.29,7.75h0c4.28,0,7.05-3.47,6.2-7.75A9.94,9.94,0,0,0,322.92,543.24Z"/><path class="i" d="M102.26,531.32H130a9.36,9.36,0,0,1,8.8,7.24l4.95,24.84a5.81,5.81,0,0,1-5.91,7.24H110.1a9.34,9.34,0,0,1-8.79-7.24l-5-24.84A5.81,5.81,0,0,1,102.26,531.32Z"/><path class="j" d="M116.85,534.83a5.24,5.24,0,0,0-5.27,6.58h0a8.44,8.44,0,0,0,7.9,6.58h0a5.24,5.24,0,0,0,5.27-6.58,8.45,8.45,0,0,0-7.9-6.58ZM115.08,550c-5.11,0-8.41,4.12-7.39,9.23l1.58,7.94h28l-1.58-7.94A11.8,11.8,0,0,0,124.67,550Z"/><path class="e" d="M104.39,591.26H358.47a16.11,16.11,0,0,1,15.16,12.48L378.87,630c1.37,6.9-3.19,12.49-10.19,12.49H114.6A16.11,16.11,0,0,1,99.44,630l-5.23-26.23C92.83,596.85,97.39,591.26,104.39,591.26Z"/><path class="h" d="M113,591.26H367a16.11,16.11,0,0,1,15.16,12.48L387.43,630c1.38,6.9-3.18,12.49-10.18,12.49H123.17A16.11,16.11,0,0,1,108,630l-5.23-26.23C101.4,596.85,106,591.26,113,591.26Z"/><path class="g" d="M183.08,642.46H377.41a10.11,10.11,0,0,0,9.93-12l-3-16.28"/><path class="g" d="M168.58,576.69H362.91a10.1,10.1,0,0,0,9.93-12l-3-16.28"/><path class="i" d="M115.4,597.19h27.78a9.33,9.33,0,0,1,8.79,7.25l5,24.84a5.81,5.81,0,0,1-5.91,7.24H123.24a9.34,9.34,0,0,1-8.79-7.24l-5-24.84A5.81,5.81,0,0,1,115.4,597.19Z"/><path class="j" d="M125.93,601.13a4.61,4.61,0,0,0-4.62,5.77l1.48,7.4a3.19,3.19,0,0,0-2.39,3.94l2.06,10.32a5.16,5.16,0,0,0,4.83,4h18.63a3.2,3.2,0,0,0,3.22-4l-2.06-10.32a5.2,5.2,0,0,0-4-3.94l-1.48-7.4a7.42,7.42,0,0,0-6.92-5.77Zm.7,3.48h8.79a2.86,2.86,0,0,1,2.74,2.29l1.46,7.31H126.25l-1.45-7.31A1.79,1.79,0,0,1,126.63,604.61Zm7.19,14a3.44,3.44,0,0,1,3.22,2.67h0a2.18,2.18,0,0,1-.9,2.32l.7,3.52a1,1,0,0,1-1.06,1.32,1.69,1.69,0,0,1-1.58-1.32l-.7-3.52a3.46,3.46,0,0,1-1.82-2.32,2.13,2.13,0,0,1,2.14-2.68Z"/><path class="i" d="M194.68,609.11c-4.28,0-7.06,3.47-6.21,7.74h0a9.92,9.92,0,0,0,9.28,7.74h0c4.28,0,7.05-3.47,6.2-7.74A9.92,9.92,0,0,0,194.68,609.11Zm35.34,0c-4.27,0-7.05,3.47-6.2,7.74h0a9.93,9.93,0,0,0,9.29,7.74h0c4.28,0,7-3.47,6.2-7.74A9.93,9.93,0,0,0,230,609.11Zm35.35,0c-4.28,0-7.06,3.47-6.2,7.74h0a9.92,9.92,0,0,0,9.28,7.74h0c4.27,0,7.05-3.47,6.19-7.74A9.92,9.92,0,0,0,265.37,609.11Zm35.34,0c-4.27,0-7,3.47-6.2,7.74h0a9.93,9.93,0,0,0,9.29,7.74h0c4.28,0,7.05-3.47,6.2-7.74A9.92,9.92,0,0,0,300.71,609.11Zm35.35,0c-4.28,0-7.05,3.47-6.2,7.74h0a9.92,9.92,0,0,0,9.28,7.74h0c4.27,0,7.05-3.47,6.19-7.74A9.91,9.91,0,0,0,336.06,609.11Z"/><line class="g" x1="220.24" y1="831.1" x2="898.63" y2="831.1"/><path class="g" d="M382,831.1c-22.43,0-15.92,33.45,0,33.45H559.44"/><path class="d" d="M425,253.25c-45,0-83.9,3.65-117.45,11.18L296.16,269c17.61,46,2.15,78.53-36.77,94.65,54.29,268.75,260.38,316.37,260.38,316.37l11.41-4.61c35.53-13.37,165.06-78.07,108.51-311.76-46.08-16.12-76-48.63-78.8-94.65-42.36-9.57-84.17-15.79-135.87-15.79Z"/><path class="g" d="M307.57,264.43,296.16,269c17.61,46,2.15,78.53-36.77,94.65,54.29,268.75,260.38,316.37,260.38,316.37"/><path class="e" d="M436.43,248.64c-51.71,0-90.76,6.22-128.86,15.79,17.61,46,2.15,78.53-36.77,94.65,54.29,268.76,260.38,316.37,260.38,316.37s185-47.61,119.92-316.37c-46.08-16.12-76-48.63-78.8-94.65-42.36-9.57-84.17-15.79-135.87-15.79Z"/><path class="f" d="M439.48,262.39c-45.73,0-80.87,5.08-114.85,13,5.56,20.53,5.41,39.37-1,55-6.7,16.31-19.78,28.65-36.93,37.48,27.43,125.57,87.84,198.09,141.87,240.25,49.49,38.62,90.89,50.79,99.42,53.05,7.53-2.26,43.53-14.43,75.88-53.05,35.31-42.16,63.51-114.68,35.19-240.25C618,359,599.43,346.63,585.49,330.32a113.73,113.73,0,0,1-25.41-55c-37.48-7.88-74.88-13-120.6-13Z"/><path class="g" d="M439.48,262.39h0c-45.73,0-80.87,5.08-114.85,13,5.56,20.53,5.41,39.37-1,55-6.7,16.31-19.78,28.65-36.93,37.48,27.43,125.57,87.84,198.09,141.87,240.25,49.49,38.62,90.89,50.79,99.42,53.05,7.53-2.26,43.53-14.43,75.88-53.05"/><path class="d" d="M420.65,339.16c4,17.91-7.32,32.43-25.23,32.43s-35.66-14.52-39.63-32.43h0c-4-17.9,7.32-32.42,25.23-32.42h0C398.93,306.74,416.67,321.26,420.65,339.16Z"/><path class="d" d="M437.92,417c4,17.91-7.32,32.43-25.23,32.43S377,434.9,373.07,417h0c-4-17.91,7.32-32.43,25.23-32.43h0C416.21,384.56,434,399.08,437.92,417Z"/><path class="d" d="M455.2,494.82c4,17.91-7.32,32.43-25.23,32.43s-35.65-14.52-39.63-32.43h0c-4-17.91,7.32-32.43,25.23-32.43h0C433.48,462.39,451.23,476.91,455.2,494.82Z"/><path class="d" d="M498.47,339.16c4,17.91-7.32,32.43-25.23,32.43s-35.65-14.52-39.62-32.43,7.32-32.42,25.23-32.42S494.5,321.26,498.47,339.16Z"/><path class="k" d="M515.75,417c4,17.91-7.32,32.43-25.23,32.43S454.87,434.9,450.89,417s7.32-32.43,25.23-32.43S511.77,399.08,515.75,417Z"/><path class="d" d="M533,494.82c4,17.91-7.32,32.43-25.23,32.43s-35.65-14.52-39.63-32.43,7.32-32.43,25.23-32.43S529.05,476.91,533,494.82Z"/><path class="d" d="M576.3,339.16c4,17.91-7.32,32.43-25.23,32.43h0c-17.91,0-35.65-14.52-39.63-32.43h0c-4-17.9,7.32-32.42,25.23-32.42h0c17.91,0,35.65,14.51,39.63,32.42Z"/><path class="d" d="M593.58,417c4,17.91-7.32,32.43-25.23,32.43h0c-17.91,0-35.65-14.52-39.63-32.43h0c-4-17.91,7.32-32.43,25.23-32.43h0c17.91,0,35.65,14.52,39.63,32.43Z"/><path class="d" d="M610.86,494.82c4,17.91-7.32,32.43-25.23,32.43h0c-17.91,0-35.65-14.52-39.63-32.43h0c-4-17.91,7.32-32.43,25.23-32.43h0c17.91,0,35.65,14.52,39.63,32.43Z"/><path class="d" d="M398.78,359.41h-8.1L383.49,327h-4l-1.8-8.11h12.14Z"/><path class="d" d="M478.42,331.06a11.24,11.24,0,0,1,.09,4.75,9.3,9.3,0,0,1-1.77,3.86,9,9,0,0,1-3.26,2.6,10.22,10.22,0,0,1-4.5,1h-4.07a3.52,3.52,0,0,0-1.51.31,3,3,0,0,0-1.67,2.15,4,4,0,0,0,0,1.58l.9,4h19.14l1.8,8.11H456.37l-2.7-12.14a11.1,11.1,0,0,1-.09-4.72,9.37,9.37,0,0,1,1.74-3.87,8.85,8.85,0,0,1,3.29-2.59,10.26,10.26,0,0,1,4.51-1h4.06a3.6,3.6,0,0,0,1.51-.31,2.9,2.9,0,0,0,1.09-.85,3.13,3.13,0,0,0,.58-1.3,4,4,0,0,0,0-1.61,4.89,4.89,0,0,0-.67-1.58,5.16,5.16,0,0,0-1.15-1.27,4.76,4.76,0,0,0-1.47-.87,4.44,4.44,0,0,0-1.65-.31H450.93l-1.8-8.11h14.45a13.23,13.23,0,0,1,4.93,1,17.4,17.4,0,0,1,7.9,6.47,14,14,0,0,1,2,4.71Z"/><path class="d" d="M559.84,347.27a11.06,11.06,0,0,1,.09,4.71,9.28,9.28,0,0,1-1.77,3.87,9,9,0,0,1-3.26,2.6,10.25,10.25,0,0,1-4.5,1H534.19l-1.79-8.11h16.2a3.48,3.48,0,0,0,1.51-.31,2.77,2.77,0,0,0,1.08-.84,3,3,0,0,0,.59-1.3,3.69,3.69,0,0,0,0-1.58,4.78,4.78,0,0,0-.66-1.58,5,5,0,0,0-1.16-1.27,5.08,5.08,0,0,0-1.46-.88,4.51,4.51,0,0,0-1.65-.31h-11l-1.8-8.1h11a3.64,3.64,0,0,0,1.51-.31,2.94,2.94,0,0,0,1.08-.85,3,3,0,0,0,.59-1.3,4,4,0,0,0-.05-1.61,4.66,4.66,0,0,0-.66-1.58,5,5,0,0,0-1.16-1.27,4.83,4.83,0,0,0-1.46-.87,4.51,4.51,0,0,0-1.65-.31H527l-1.8-8.11h16.2a13.23,13.23,0,0,1,4.93,1,16.37,16.37,0,0,1,4.42,2.63,16.78,16.78,0,0,1,3.48,3.84,14.4,14.4,0,0,1,2,4.71,11.43,11.43,0,0,1,.14,4.35,9.49,9.49,0,0,1-1.48,3.75,16.77,16.77,0,0,1,3.15,3.79,13.87,13.87,0,0,1,1.78,4.32Z"/><path class="d" d="M424.52,429.13h-4l1.8,8.1h-8.1l-1.8-8.1H392.14l-2.67-32.38h8.1l1.87,24.31h11.15l-4.49-20.24h8.1l4.49,20.24h4Z"/><path class="d" d="M499.5,424.5a12.31,12.31,0,0,1,.14,5.34,9.23,9.23,0,0,1-1.9,4,9.07,9.07,0,0,1-3.51,2.51,11.91,11.91,0,0,1-4.61.87H473.31l-1.8-8.1h16.31a5,5,0,0,0,1.59-.25,3,3,0,0,0,1.31-.82,2.93,2.93,0,0,0,.75-1.44,4.5,4.5,0,0,0,0-2.12,5.27,5.27,0,0,0-.87-2,5.17,5.17,0,0,0-1.39-1.44,5.35,5.35,0,0,0-1.69-.88,5.08,5.08,0,0,0-1.71-.31H469.46l-2.77-23.15h25l1.8,8.1h-17.7l.81,6.95H484a15,15,0,0,1,5,.87,16.11,16.11,0,0,1,4.63,2.54,16.64,16.64,0,0,1,3.68,4,15.18,15.18,0,0,1,2.22,5.28Z"/><path class="d" d="M577.94,421.81a15.27,15.27,0,0,1,.19,6.18,12.44,12.44,0,0,1-2.08,5.11,11.11,11.11,0,0,1-4.15,3.44,12.85,12.85,0,0,1-5.85,1.27,17.58,17.58,0,0,1-6.52-1.27,21.91,21.91,0,0,1-5.84-3.44,23,23,0,0,1-4.58-5.11,18.86,18.86,0,0,1-2.62-6.18,38.35,38.35,0,0,1-.92-7.6,30.08,30.08,0,0,1,.67-7,23.58,23.58,0,0,1,2.23-6.12,18.58,18.58,0,0,1,3.71-4.89h10.93a23.59,23.59,0,0,0-2.76,2.46,26.38,26.38,0,0,0-2.43,2.91,25.49,25.49,0,0,0-2,3.27,21.38,21.38,0,0,0-1.4,3.59,10.43,10.43,0,0,1,2.31-1.39,6.84,6.84,0,0,1,2.81-.59,17.66,17.66,0,0,1,6.41,1.16,17.32,17.32,0,0,1,5.39,3.19,19.13,19.13,0,0,1,4,4.85,21,21,0,0,1,2.41,6.19Zm-8.1,0a10.07,10.07,0,0,0-1.21-3,10.27,10.27,0,0,0-2-2.51,9.12,9.12,0,0,0-2.7-1.72,8.2,8.2,0,0,0-3.16-.62,6.31,6.31,0,0,0-2.88.62,4.88,4.88,0,0,0-1.93,1.72,5.87,5.87,0,0,0-.88,2.51,8.52,8.52,0,0,0,.16,3,10.68,10.68,0,0,0,1.17,3,11.32,11.32,0,0,0,2.05,2.51,10,10,0,0,0,2.68,1.75,7.85,7.85,0,0,0,3.14.65,6.31,6.31,0,0,0,2.88-.62,5.06,5.06,0,0,0,1.94-1.69,6.12,6.12,0,0,0,.9-2.55A8.09,8.09,0,0,0,569.84,421.81Z"/><path class="d" d="M432.45,474.58l-4.84,40.48h-8.67l4.19-32.38H405.91l-1.8-8.1Z"/><path class="d" d="M518.39,503.6a9.74,9.74,0,0,1-.12,5,9.24,9.24,0,0,1-2.53,4,12.32,12.32,0,0,1-4.45,2.6,17.42,17.42,0,0,1-5.94,1,21.43,21.43,0,0,1-6.37-1,21.78,21.78,0,0,1-5.63-2.6,17.58,17.58,0,0,1-4.27-4,12.94,12.94,0,0,1-2.37-5,11.23,11.23,0,0,1-.26-3.08,9.82,9.82,0,0,1,.58-2.85,9.52,9.52,0,0,1,1.41-2.43,8.47,8.47,0,0,1,2.12-1.92,12.93,12.93,0,0,1-2-1.75,18.48,18.48,0,0,1-1.65-2.09,15.53,15.53,0,0,1-1.24-2.25,13.15,13.15,0,0,1-.77-2.35,8.94,8.94,0,0,1,.06-4.43,8.76,8.76,0,0,1,2.1-3.64,10.27,10.27,0,0,1,3.74-2.49,13.43,13.43,0,0,1,5-.9,16.88,16.88,0,0,1,5.45.9,18.17,18.17,0,0,1,4.84,2.49,15.33,15.33,0,0,1,3.72,3.64,11.56,11.56,0,0,1,2.06,4.43,10.3,10.3,0,0,1,.24,2.35,11.6,11.6,0,0,1-.23,2.28,9.22,9.22,0,0,1-.72,2.09,7.38,7.38,0,0,1-1.16,1.78,17,17,0,0,1,2.93,1.89,16.16,16.16,0,0,1,2.46,2.43,15.51,15.51,0,0,1,1.84,2.82,13.71,13.71,0,0,1,1.11,3.08Zm-14.21-17.84a4.77,4.77,0,0,0-.86-1.84,6.45,6.45,0,0,0-1.52-1.52,7.42,7.42,0,0,0-2-1,7.08,7.08,0,0,0-2.23-.36,5.76,5.76,0,0,0-2.09.36,4.36,4.36,0,0,0-1.55,1,3.74,3.74,0,0,0-.85,1.52,3.8,3.8,0,0,0,0,1.84,5.05,5.05,0,0,0,.83,1.83,6.84,6.84,0,0,0,1.52,1.47,8.22,8.22,0,0,0,2,1,7.28,7.28,0,0,0,2.26.37,5.68,5.68,0,0,0,2.06-.37,4.22,4.22,0,0,0,1.53-1,3.14,3.14,0,0,0,.86-1.47A3.52,3.52,0,0,0,504.18,485.76Zm6.11,17.61a6.36,6.36,0,0,0-1.18-2.51A8.66,8.66,0,0,0,507,498.8a10.68,10.68,0,0,0-2.79-1.38,9.84,9.84,0,0,0-3.14-.51,7.84,7.84,0,0,0-2.9.51A6.35,6.35,0,0,0,496,498.8a4.94,4.94,0,0,0-1.21,2.06,5.06,5.06,0,0,0,0,2.51,6.42,6.42,0,0,0,1.14,2.49,8.89,8.89,0,0,0,2.1,1.95,11.35,11.35,0,0,0,2.77,1.29,10.57,10.57,0,0,0,3.12.46,8.64,8.64,0,0,0,2.92-.46,6.31,6.31,0,0,0,2.2-1.29,4.39,4.39,0,0,0,1.23-1.95A4.63,4.63,0,0,0,510.29,503.37Z"/><path class="d" d="M593.09,490a36.31,36.31,0,0,1,.9,7.63,29.93,29.93,0,0,1-.67,7,23.86,23.86,0,0,1-2.24,6.1,18.7,18.7,0,0,1-3.71,4.88H576.44a21.55,21.55,0,0,0,2.79-2.46,24.8,24.8,0,0,0,2.4-2.9,24.28,24.28,0,0,0,2-3.28,22.73,22.73,0,0,0,1.41-3.56,12.47,12.47,0,0,1-2.34,1.42,7,7,0,0,1-2.78.56,18.17,18.17,0,0,1-6.44-1.13,18.64,18.64,0,0,1-5.39-3.19,19.42,19.42,0,0,1-4.05-4.88,21.7,21.7,0,0,1-2.39-6.19,15.84,15.84,0,0,1-.21-6.18,12.25,12.25,0,0,1,2.11-5.11,11,11,0,0,1,4.11-3.47A12.88,12.88,0,0,1,573.5,474a17.43,17.43,0,0,1,6.52,1.27,22.12,22.12,0,0,1,10.43,8.58,18.29,18.29,0,0,1,2.64,6.18Zm-8.67,0a10.19,10.19,0,0,0-1.2-3,10.65,10.65,0,0,0-2.09-2.54,9.64,9.64,0,0,0-2.7-1.75,7.85,7.85,0,0,0-3.14-.65,6,6,0,0,0-2.87.65,5.15,5.15,0,0,0-1.91,1.7,5.68,5.68,0,0,0-.91,2.51,8.76,8.76,0,0,0,.17,3.07,10.81,10.81,0,0,0,1.19,3.05,10.36,10.36,0,0,0,2,2.49,9.53,9.53,0,0,0,2.66,1.69,8.06,8.06,0,0,0,3.16.62,6.18,6.18,0,0,0,2.88-.62,5,5,0,0,0,2-1.69,5.87,5.87,0,0,0,.91-2.49,8.15,8.15,0,0,0-.14-3.05Z"/><path class="d" d="M551,575.75c4,17.91-7.32,32.43-25.23,32.43s-35.65-14.52-39.63-32.43,7.32-32.42,25.23-32.42S547,557.85,551,575.75Z"/><path class="d" d="M527.77,575.87q-1.5-6.75-4.48-10a9.11,9.11,0,0,0-7-3.28,5.46,5.46,0,0,0-5.46,3.25q-1.49,3.24,0,10t4.42,10a9,9,0,0,0,6.91,3.27,6.8,6.8,0,0,0,3.41-.79,5,5,0,0,0,2.11-2.45,10.25,10.25,0,0,0,.75-4.12A26.05,26.05,0,0,0,527.77,575.87Zm7.71,0a31.83,31.83,0,0,1,.89,9.74,13.69,13.69,0,0,1-2,6.43A9.39,9.39,0,0,1,530,595.6a16.19,16.19,0,0,1-6.06,1.07,20,20,0,0,1-6.57-1.1,17.87,17.87,0,0,1-5.93-3.58,24.19,24.19,0,0,1-4.87-6.44,37.41,37.41,0,0,1-3.43-9.68,31.68,31.68,0,0,1-.88-9.71,14.08,14.08,0,0,1,2-6.44,9.55,9.55,0,0,1,4.35-3.56,16.18,16.18,0,0,1,6.08-1.1,19.58,19.58,0,0,1,6.55,1.13,17.13,17.13,0,0,1,6,3.59,23.79,23.79,0,0,1,4.9,6.43,37.5,37.5,0,0,1,3.42,9.66Z"/><path class="e" d="M424.93,334.88c4,17.91-7.32,32.43-25.23,32.43s-35.65-14.52-39.63-32.43h0c-4-17.91,7.32-32.43,25.23-32.43h0C403.21,302.45,421,317,424.93,334.88Z"/><path class="e" d="M442.21,412.71c4,17.91-7.32,32.43-25.23,32.43s-35.65-14.52-39.63-32.43h0c-4-17.91,7.32-32.43,25.23-32.43h0C420.49,380.28,438.23,394.8,442.21,412.71Z"/><path class="e" d="M459.49,490.54c4,17.91-7.32,32.42-25.23,32.42s-35.65-14.51-39.63-32.42h0c-4-17.91,7.32-32.43,25.23-32.43h0C437.77,458.11,455.51,472.63,459.49,490.54Z"/><path class="e" d="M502.76,334.88c4,17.91-7.32,32.43-25.23,32.43s-35.65-14.52-39.63-32.43,7.32-32.43,25.23-32.43S498.78,317,502.76,334.88Z"/><path class="l" d="M520,412.71c4,17.91-7.31,32.43-25.22,32.43s-35.66-14.52-39.63-32.43,7.32-32.43,25.23-32.43S516.06,394.8,520,412.71Z"/><path class="e" d="M537.31,490.54c4,17.91-7.32,32.42-25.23,32.42s-35.65-14.51-39.62-32.42,7.32-32.43,25.23-32.43S533.34,472.63,537.31,490.54Z"/><path class="e" d="M580.58,334.88c4,17.91-7.31,32.43-25.22,32.43h0c-17.91,0-35.66-14.52-39.63-32.43h0c-4-17.91,7.32-32.43,25.23-32.43h0c17.91,0,35.65,14.52,39.62,32.43Z"/><path class="e" d="M597.86,412.71c4,17.91-7.32,32.43-25.23,32.43h0c-17.91,0-35.65-14.52-39.62-32.43h0c-4-17.91,7.32-32.43,25.22-32.43h0c17.9,0,35.65,14.52,39.62,32.43Z"/><path class="e" d="M615.14,490.54c4,17.91-7.32,32.42-25.23,32.42h0c-17.91,0-35.65-14.51-39.63-32.42h0c-4-17.91,7.32-32.43,25.23-32.43h0c17.91,0,35.65,14.52,39.63,32.43Z"/><path class="i" d="M403.06,355.12H395l-7.19-32.38h-4l-1.8-8.1h12.14Z"/><path class="i" d="M482.7,326.78a11.36,11.36,0,0,1,.1,4.74,9.54,9.54,0,0,1-1.77,3.87,9.11,9.11,0,0,1-3.26,2.6,10.26,10.26,0,0,1-4.51,1H469.2a3.45,3.45,0,0,0-1.51.31,2.87,2.87,0,0,0-1.11.87,3,3,0,0,0-.56,1.27,3.69,3.69,0,0,0,0,1.58l.89,4H486.1l1.79,8.1H460.65L458,343a10.75,10.75,0,0,1-.09-4.71,9.26,9.26,0,0,1,1.74-3.87,8.8,8.8,0,0,1,3.29-2.6,10.19,10.19,0,0,1,4.5-1h4.07a3.52,3.52,0,0,0,1.51-.31,2.92,2.92,0,0,0,1.08-.84,3.15,3.15,0,0,0,.59-1.3,4,4,0,0,0,0-1.61,5,5,0,0,0-1.82-2.85,5.08,5.08,0,0,0-1.46-.88,4.51,4.51,0,0,0-1.65-.31H455.21l-1.8-8.1h14.46a13.26,13.26,0,0,1,4.93,1,16.34,16.34,0,0,1,4.42,2.62,17.2,17.2,0,0,1,3.48,3.84,14.13,14.13,0,0,1,2,4.72Z"/><path class="i" d="M564.13,343a10.94,10.94,0,0,1,.08,4.72,9.35,9.35,0,0,1-1.76,3.86,9,9,0,0,1-3.27,2.6,10.19,10.19,0,0,1-4.5,1h-16.2l-1.8-8.1h16.2a3.53,3.53,0,0,0,1.52-.31,2.94,2.94,0,0,0,1.08-.85,3.09,3.09,0,0,0,.59-1.3A3.87,3.87,0,0,0,556,343a4.66,4.66,0,0,0-.66-1.58,5.16,5.16,0,0,0-1.15-1.27,4.76,4.76,0,0,0-1.47-.87,4.44,4.44,0,0,0-1.65-.31h-11l-1.8-8.11h11a3.45,3.45,0,0,0,1.51-.31,2.88,2.88,0,0,0,1.09-.84,3,3,0,0,0,.58-1.3,4,4,0,0,0,0-1.61,5,5,0,0,0-.66-1.58,5.21,5.21,0,0,0-1.16-1.27,5,5,0,0,0-1.47-.88,4.44,4.44,0,0,0-1.65-.31h-16.2l-1.8-8.1H545.7a13.21,13.21,0,0,1,4.92,1,16.39,16.39,0,0,1,4.43,2.62,16.92,16.92,0,0,1,3.47,3.84,14,14,0,0,1,2,4.72,11.43,11.43,0,0,1,.15,4.35,9.36,9.36,0,0,1-1.49,3.75,16.55,16.55,0,0,1,3.16,3.78,14.32,14.32,0,0,1,1.78,4.32Z"/><path class="i" d="M428.81,424.85h-4l1.8,8.1h-8.1l-1.8-8.1H396.43l-2.68-32.38h8.11l1.86,24.3h11.15l-4.49-20.24h8.1l4.5,20.24h4Z"/><path class="i" d="M503.78,420.22a12.26,12.26,0,0,1,.14,5.33,9.07,9.07,0,0,1-1.9,4,8.92,8.92,0,0,1-3.51,2.51,11.68,11.68,0,0,1-4.6.88H477.59l-1.8-8.1h16.32a5,5,0,0,0,1.58-.26,3.05,3.05,0,0,0,2.07-2.26,4.61,4.61,0,0,0-.05-2.11,5.3,5.3,0,0,0-.86-2,5.62,5.62,0,0,0-1.39-1.44,5.43,5.43,0,0,0-1.69-.87,5.17,5.17,0,0,0-1.71-.31H473.74L471,392.47h25l1.8,8.1h-17.7l.8,6.94h7.4a15,15,0,0,1,5,.88,15.75,15.75,0,0,1,4.63,2.54,16.7,16.7,0,0,1,3.69,4,15.36,15.36,0,0,1,2.21,5.28Z"/><path class="i" d="M582.23,417.52a15.45,15.45,0,0,1,.18,6.18,12.25,12.25,0,0,1-2.08,5.11,11.08,11.08,0,0,1-4.15,3.45,13,13,0,0,1-5.84,1.27,17.75,17.75,0,0,1-6.52-1.27,22.11,22.11,0,0,1-5.85-3.45,23,23,0,0,1-4.58-5.11,18.75,18.75,0,0,1-2.61-6.18,36.91,36.91,0,0,1-.92-7.59,29.51,29.51,0,0,1,.66-7,23.65,23.65,0,0,1,2.23-6.13,19,19,0,0,1,3.72-4.88h10.92a24.33,24.33,0,0,0-2.76,2.45,28.38,28.38,0,0,0-2.43,2.91,25.09,25.09,0,0,0-2,3.28,20.49,20.49,0,0,0-1.41,3.58,10.46,10.46,0,0,1,2.32-1.38,6.64,6.64,0,0,1,2.8-.59,18,18,0,0,1,11.81,4.34,19.32,19.32,0,0,1,4,4.86,20.85,20.85,0,0,1,2.42,6.18Zm-8.1,0a10.88,10.88,0,0,0-3.24-5.53,9,9,0,0,0-2.69-1.72,8.07,8.07,0,0,0-3.16-.63,6.25,6.25,0,0,0-2.89.63,4.87,4.87,0,0,0-1.93,1.72,6,6,0,0,0-.88,2.51,8.46,8.46,0,0,0,.16,3,10.56,10.56,0,0,0,1.17,3,11.65,11.65,0,0,0,2.06,2.52,10,10,0,0,0,2.67,1.75,7.88,7.88,0,0,0,3.14.65,6.18,6.18,0,0,0,2.88-.63,5,5,0,0,0,1.94-1.69,6,6,0,0,0,.91-2.54A8.58,8.58,0,0,0,574.13,417.52Z"/><path class="i" d="M436.74,470.29l-4.85,40.49h-8.67l4.19-32.38H410.19l-1.8-8.11Z"/><path class="i" d="M522.67,499.32a9.54,9.54,0,0,1-.12,5.05,9.28,9.28,0,0,1-2.52,4,12.39,12.39,0,0,1-4.45,2.59,17.46,17.46,0,0,1-5.94,1,22.52,22.52,0,0,1-12-3.55,17.82,17.82,0,0,1-4.28-4,12.84,12.84,0,0,1-2.36-5.05,10.89,10.89,0,0,1-.26-3.08,9.38,9.38,0,0,1,.58-2.85,9.19,9.19,0,0,1,1.41-2.43,8.43,8.43,0,0,1,2.11-1.92,14.62,14.62,0,0,1-2-1.75,19.42,19.42,0,0,1-1.65-2.09,15.56,15.56,0,0,1-1.23-2.26,12.36,12.36,0,0,1-.78-2.34,8.94,8.94,0,0,1,.06-4.43,8.79,8.79,0,0,1,2.1-3.65,10.33,10.33,0,0,1,3.74-2.48,13.47,13.47,0,0,1,5-.9,16.89,16.89,0,0,1,5.46.9,18.29,18.29,0,0,1,4.84,2.48,15.74,15.74,0,0,1,3.72,3.65,11.54,11.54,0,0,1,2.05,4.43,10.22,10.22,0,0,1,.24,2.34,11,11,0,0,1-.23,2.29,8.48,8.48,0,0,1-.72,2.09,7.09,7.09,0,0,1-1.16,1.78,16.34,16.34,0,0,1,2.94,1.89,16.09,16.09,0,0,1,2.45,2.43,15.23,15.23,0,0,1,1.85,2.82,13,13,0,0,1,1.1,3.08Zm-14.21-17.85a4.52,4.52,0,0,0-.86-1.83,6.68,6.68,0,0,0-1.52-1.53,7,7,0,0,0-2-1,6.8,6.8,0,0,0-2.22-.37,5.65,5.65,0,0,0-2.1.37,4.21,4.21,0,0,0-1.55,1,4.11,4.11,0,0,0-.85,1.53,3.76,3.76,0,0,0,0,1.83,5,5,0,0,0,.83,1.84,7.26,7.26,0,0,0,1.51,1.47,7.92,7.92,0,0,0,2,1,6.89,6.89,0,0,0,2.25.37,5.53,5.53,0,0,0,2.07-.37,4.25,4.25,0,0,0,1.53-1,3.33,3.33,0,0,0,.86-1.47A3.56,3.56,0,0,0,508.46,481.47Zm6.12,17.62a6.5,6.5,0,0,0-1.18-2.51,8.53,8.53,0,0,0-2.13-2.06,10.12,10.12,0,0,0-2.79-1.39,9.78,9.78,0,0,0-3.13-.51,7.94,7.94,0,0,0-2.91.51,6.32,6.32,0,0,0-2.18,1.39,4.84,4.84,0,0,0-1.24,4.57,6.44,6.44,0,0,0,1.14,2.48,8.86,8.86,0,0,0,2.1,1.95,11.08,11.08,0,0,0,2.78,1.3,10.8,10.8,0,0,0,3.12.45,9,9,0,0,0,2.92-.45,6,6,0,0,0,2.19-1.3,4.22,4.22,0,0,0,1.24-1.95A4.7,4.7,0,0,0,514.58,499.09Z"/><path class="i" d="M597.38,485.75a37.67,37.67,0,0,1,.9,7.62,29.87,29.87,0,0,1-.68,7,23.57,23.57,0,0,1-2.23,6.1,19.17,19.17,0,0,1-3.72,4.89H580.73a23.87,23.87,0,0,0,2.78-2.46,23.27,23.27,0,0,0,2.41-2.91,22.58,22.58,0,0,0,2-3.27,22.15,22.15,0,0,0,1.41-3.56,11.37,11.37,0,0,1-2.34,1.41,6.74,6.74,0,0,1-2.78.57,18.11,18.11,0,0,1-6.43-1.13,18.79,18.79,0,0,1-5.4-3.19,20.09,20.09,0,0,1-4.05-4.89,21.33,21.33,0,0,1-2.38-6.18,15.66,15.66,0,0,1-.22-6.18,12.39,12.39,0,0,1,2.11-5.11,10.91,10.91,0,0,1,4.12-3.47,12.84,12.84,0,0,1,5.84-1.27A17.43,17.43,0,0,1,584.3,471a21.26,21.26,0,0,1,5.88,3.47,21.81,21.81,0,0,1,4.55,5.11,18.52,18.52,0,0,1,2.65,6.18Zm-8.67,0a10.19,10.19,0,0,0-1.2-3,10.7,10.7,0,0,0-2.09-2.54,9.42,9.42,0,0,0-2.7-1.75,7.72,7.72,0,0,0-3.14-.65,6,6,0,0,0-2.88.65,5.12,5.12,0,0,0-1.91,1.69,5.86,5.86,0,0,0-.91,2.51,8.83,8.83,0,0,0,.18,3.08,10.9,10.9,0,0,0,1.18,3.05,10.12,10.12,0,0,0,2,2.48,9.71,9.71,0,0,0,2.66,1.7,8.24,8.24,0,0,0,3.16.62A6.38,6.38,0,0,0,586,493a5,5,0,0,0,2-1.7,5.79,5.79,0,0,0,.92-2.48,8.36,8.36,0,0,0-.14-3.05Z"/><path class="e" d="M555.28,571.47c4,17.91-7.32,32.43-25.23,32.43s-35.65-14.52-39.63-32.43S497.74,539,515.65,539,551.31,553.56,555.28,571.47Z"/><path class="i" d="M532.05,571.58c-1-4.49-2.49-7.84-4.48-10a9.1,9.1,0,0,0-7-3.27,5.47,5.47,0,0,0-5.46,3.24q-1.49,3.26,0,10.05t4.43,10a9,9,0,0,0,6.91,3.27,6.85,6.85,0,0,0,3.41-.79,5.13,5.13,0,0,0,2.11-2.46,10.21,10.21,0,0,0,.75-4.12A26.25,26.25,0,0,0,532.05,571.58Zm7.71,0a31.86,31.86,0,0,1,.89,9.74,13.84,13.84,0,0,1-2,6.44,9.48,9.48,0,0,1-4.38,3.56,16.4,16.4,0,0,1-6.06,1.07,20.16,20.16,0,0,1-6.56-1.1,17.68,17.68,0,0,1-5.94-3.59,24.35,24.35,0,0,1-4.87-6.43,37.13,37.13,0,0,1-3.42-9.69,31.7,31.7,0,0,1-.89-9.71,13.91,13.91,0,0,1,2-6.43,9.39,9.39,0,0,1,4.35-3.56,15.94,15.94,0,0,1,6.08-1.1,19.23,19.23,0,0,1,6.54,1.13,17.16,17.16,0,0,1,6,3.58,24.08,24.08,0,0,1,4.91,6.44,36.92,36.92,0,0,1,3.41,9.65Z"/><path class="l" d="M359.86,707.41c10.93.07,20.87,10.28,22.17,22.81l4.08,39.34c1.3,12.52-6.53,22.61-17.46,22.53l-60.72-.42c-10.95-.08-20.87-10.29-22.17-22.81l-4.08-39.35c-1.3-12.52,6.51-22.6,17.46-22.53h1.55l-1.3-12.53c-1-9.33,4.87-16.87,13-16.82l28.08.2c8.14.06,15.56,7.7,16.53,17l1.3,12.54Zm-8.5-.06-1.3-12.53c-.52-5-4.45-9-8.76-9l-28.08-.2c-4.32,0-7.41,4-6.9,8.92l1.3,12.53,43.74.31m-14.28,49.58c4.91-1.22,8.12-6.32,7.49-12.43-.74-7.09-6.35-12.86-12.55-12.9s-10.59,5.66-9.86,12.75c.63,6,4.84,11.14,9.9,12.51l-1.4,13,10.53.08-4.11-13"/><path class="l" d="M198.36,140.73a88.29,88.29,0,0,0-15.56,1.59,7.31,7.31,0,0,0-5.86,7.18v13.85a68.52,68.52,0,0,0-9,3.73l-9.86-9.86a7.25,7.25,0,0,0-9.16-.95,86.32,86.32,0,0,0-12.18,9.91,87.15,87.15,0,0,0-9.91,12.18,7.24,7.24,0,0,0,1,9.15l9.81,9.81a66.82,66.82,0,0,0-3.77,9.1H120a7.29,7.29,0,0,0-7.18,5.86,76.88,76.88,0,0,0,0,31.11,7.29,7.29,0,0,0,7.18,5.86h13.8a67.46,67.46,0,0,0,3.8,9.18l-9.8,9.8a7.26,7.26,0,0,0-1,9.16,87,87,0,0,0,9.9,12.18,88.33,88.33,0,0,0,12.18,9.91,7.26,7.26,0,0,0,9.16-1l9.79-9.78a68.25,68.25,0,0,0,9.11,3.77v13.85a7.3,7.3,0,0,0,5.87,7.18,87.15,87.15,0,0,0,15.55,1.59,87.26,87.26,0,0,0,15.56-1.59,7.29,7.29,0,0,0,5.86-7.18V292.52a66.63,66.63,0,0,0,9.21-3.81l9.85,9.86a7.25,7.25,0,0,0,9.22.91A81.17,81.17,0,0,0,270,277.32a7.25,7.25,0,0,0-1-9.16l-9.78-9.79a67.83,67.83,0,0,0,3.77-9.12h14a7.3,7.3,0,0,0,7.2-5.94,80.74,80.74,0,0,0-.19-31,7.29,7.29,0,0,0-7.17-5.86H262.94a68.58,68.58,0,0,0-3.75-9l9.91-9.91a7.27,7.27,0,0,0,.91-9.23,81.18,81.18,0,0,0-22.17-21.9,7.24,7.24,0,0,0-9.15,1l-9.81,9.8a68.9,68.9,0,0,0-9.1-3.77v-14a7.3,7.3,0,0,0-5.94-7.19A87.22,87.22,0,0,0,198.36,140.73Zm.7,55.19a32.76,32.76,0,0,1,32.76,32.76h0a32.76,32.76,0,0,1-32.76,32.76h0a32.74,32.74,0,0,1-32.76-32.76h0a32.76,32.76,0,0,1,32.76-32.76Z"/><path class="m" d="M313.71,98.5a50.52,50.52,0,0,0-9.1.93,4.27,4.27,0,0,0-3.43,4.2v8.11a39.76,39.76,0,0,0-5.27,2.18l-5.78-5.77a4.25,4.25,0,0,0-5.36-.56,45,45,0,0,0-12.92,12.93,4.25,4.25,0,0,0,.56,5.36l5.74,5.74a41.14,41.14,0,0,0-2.21,5.32h-8.12a4.26,4.26,0,0,0-4.2,3.43,44.57,44.57,0,0,0,0,18.21,4.26,4.26,0,0,0,4.2,3.43h8.08a40,40,0,0,0,2.22,5.38l-5.73,5.73a4.25,4.25,0,0,0-.56,5.36,50.76,50.76,0,0,0,5.8,7.13,51.52,51.52,0,0,0,7.12,5.8,4.25,4.25,0,0,0,5.36-.56l5.73-5.73a38.24,38.24,0,0,0,5.34,2.21v8.11a4.27,4.27,0,0,0,3.43,4.2,45,45,0,0,0,18.21,0,4.27,4.27,0,0,0,3.43-4.2v-8.1a40.23,40.23,0,0,0,5.39-2.23l5.76,5.77a4.25,4.25,0,0,0,5.4.53,47.3,47.3,0,0,0,12.82-13,4.25,4.25,0,0,0-.56-5.36l-5.72-5.73a40.82,40.82,0,0,0,2.21-5.34h8.17a4.26,4.26,0,0,0,4.21-3.47,51,51,0,0,0,.83-9.06,51.55,51.55,0,0,0-.93-9.11,4.28,4.28,0,0,0-4.21-3.43h-8.11a39.34,39.34,0,0,0-2.2-5.29l5.8-5.8a4.24,4.24,0,0,0,.54-5.4,51,51,0,0,0-5.85-7,51.61,51.61,0,0,0-7.13-5.8,4.23,4.23,0,0,0-5.35.56l-5.74,5.74a40.69,40.69,0,0,0-5.33-2.21v-8.19a4.28,4.28,0,0,0-3.48-4.21A50.88,50.88,0,0,0,313.71,98.5Zm.41,32.3A19.18,19.18,0,0,1,333.3,150h0a19.18,19.18,0,0,1-19.18,19.18h0A19.18,19.18,0,0,1,294.94,150h0a19.18,19.18,0,0,1,19.18-19.17Z"/><path class="g" d="M313.72,129.94a19.61,19.61,0,0,1,0,39.21"/><path class="c" d="M203.11,48.19A45.49,45.49,0,0,0,195,49a3.83,3.83,0,0,0-3.06,3.76V60a34.64,34.64,0,0,0-4.71,2L182,56.82a3.81,3.81,0,0,0-4.8-.5,45.78,45.78,0,0,0-6.37,5.18,46.51,46.51,0,0,0-5.18,6.37,3.79,3.79,0,0,0,.5,4.79l5.13,5.14a34.8,34.8,0,0,0-2,4.76h-7.26a3.83,3.83,0,0,0-3.76,3.06,45.4,45.4,0,0,0-.83,8.14,45.31,45.31,0,0,0,.83,8.14,3.83,3.83,0,0,0,3.76,3.07h7.22a34.66,34.66,0,0,0,2,4.8l-5.13,5.13a3.79,3.79,0,0,0-.5,4.79,45.91,45.91,0,0,0,5.18,6.37,46.07,46.07,0,0,0,6.38,5.19,3.8,3.8,0,0,0,4.79-.5l5.12-5.12a35.45,35.45,0,0,0,4.77,2v7.25A3.81,3.81,0,0,0,195,138.6a46.23,46.23,0,0,0,8.13.84,45.52,45.52,0,0,0,8.15-.84,3.81,3.81,0,0,0,3.06-3.75v-7.24a35.48,35.48,0,0,0,4.82-2l5.15,5.16a3.81,3.81,0,0,0,4.83.48A46.09,46.09,0,0,0,235.4,126a45.33,45.33,0,0,0,5.18-6.37,3.79,3.79,0,0,0-.5-4.79L235,109.74a37.45,37.45,0,0,0,2-4.77h7.31a3.82,3.82,0,0,0,3.76-3.11,45.79,45.79,0,0,0,.74-8.1,46.34,46.34,0,0,0-.84-8.14,3.8,3.8,0,0,0-3.75-3.06H236.9a34.37,34.37,0,0,0-2-4.73l5.19-5.19a3.79,3.79,0,0,0,.47-4.82A42.15,42.15,0,0,0,229,56.36a3.81,3.81,0,0,0-4.8.5L219.09,62a35.45,35.45,0,0,0-4.77-2V52.69a3.81,3.81,0,0,0-3.11-3.76A44.87,44.87,0,0,0,203.11,48.19Zm.37,28.88a17.14,17.14,0,0,1,17.14,17.14h0a17.14,17.14,0,0,1-17.14,17.14h0a17.14,17.14,0,0,1-17.14-17.14h0a17.14,17.14,0,0,1,17.14-17.14Z"/><rect class="l" x="445.43" y="103.68" width="202.28" height="71.52"/><polyline class="g" points="648.49 139.44 648.49 175.2 532.27 175.2"/><polyline class="g" points="573.38 103.68 445.43 103.68 445.43 158.73"/><path class="i" d="M471.18,125.91h6.31a1.55,1.55,0,0,1,.31,0,.65.65,0,0,1,.27.17l.19.18.19.27a1.56,1.56,0,0,0,.16.25l16.57,23.32,16.58-23.32a.72.72,0,0,0,.2-.25l.19-.27.19-.18a.74.74,0,0,1,.25-.17,1.41,1.41,0,0,1,.33,0h6.27l-19.87,27.94c-.42.6-.78.91-1.09.91h-6.05c-.31,0-.68-.31-1.13-.91Z"/><path class="i" d="M539.39,154.76h-4.84a.34.34,0,0,1-.38-.38v-28.1a.34.34,0,0,1,.38-.37H564a8.47,8.47,0,0,1,6.16,2.52,8.37,8.37,0,0,1,1.86,9.41,9.15,9.15,0,0,1-1.86,2.74,8.55,8.55,0,0,1-2.77,1.84,8.8,8.8,0,0,1-3.39.67H539.76v11.29A.33.33,0,0,1,539.39,154.76Zm.37-23.33v6.14H564a3,3,0,0,0,2.21-.9,3,3,0,0,0,0-4.33,3.05,3.05,0,0,0-2.21-.91Z"/><path class="i" d="M617.9,154.67h0v0l-26.5-21.38v21.13a.34.34,0,0,1-.38.38h-4.84a.34.34,0,0,1-.38-.38v-28.1a.34.34,0,0,1,.38-.37H591a.34.34,0,0,1,.25.13h0l26.47,21.42V126.28a.33.33,0,0,1,.37-.37H623a.33.33,0,0,1,.37.37v28.1a.33.33,0,0,1-.37.38h-4.85A.29.29,0,0,1,617.9,154.67Z"/><rect class="h" x="803.79" y="159.95" width="5.78" height="21.08" transform="translate(115.72 620.34) rotate(-45)"/><rect class="l" x="824.84" y="170.11" width="16.36" height="53.43" rx="3.8" transform="translate(104.84 646.74) rotate(-45)"/><circle class="f" cx="765.47" cy="129.28" r="49.66"/><circle class="m" cx="765.47" cy="129.28" r="38.12"/><circle class="g" cx="765.47" cy="129.28" r="38.12"/></svg>