<svg xmlns="http://www.w3.org/2000/svg" xmlns:xlink="http://www.w3.org/1999/xlink" viewBox="0 0 1069 1000"><defs><style>.a{isolation:isolate;}.b,.c,.j{fill:#172963;}.c,.x{stroke:#172963;}.c,.i,.x{stroke-miterlimit:10;}.c{stroke-width:1px;}.d{fill:url(#a);}.e{fill:url(#b);}.f,.h{opacity:0.66;}.f,.h,.j,.t{mix-blend-mode:multiply;}.f{fill:url(#c);}.g{fill:url(#d);}.h{fill:url(#e);}.i,.x{fill:none;}.i{stroke:#fff;stroke-width:1.75px;}.k{fill:url(#f);}.l{opacity:0.6;}.m{fill:#fff;}.n{fill:url(#g);}.o{fill:url(#h);}.p{fill:url(#i);}.q{fill:url(#j);}.r{fill:url(#k);}.s{fill:url(#l);}.u{fill:url(#m);}.v{fill:url(#n);}.w{fill:url(#o);}.x{stroke-width:3.77px;}.y{fill:url(#p);}.z{fill:url(#q);}.aa{fill:url(#r);}.ab{fill:url(#s);}.ac{fill:url(#t);}.ad{fill:url(#u);}.ae{fill:url(#v);}.af{fill:url(#w);}.ag{fill:url(#x);}.ah{fill:url(#y);}.ai{fill:url(#z);}.aj{fill:url(#aa);}.ak{fill:url(#ab);}.al{fill:url(#ac);}.am{fill:url(#ad);}.an{fill:url(#ae);}.ao{fill:url(#af);}.ap{fill:url(#ag);}.aq{fill:url(#ah);}.ar{fill:url(#ai);}.as{fill:url(#aj);}.at{fill:url(#ak);}.au{fill:url(#al);}.av{fill:url(#am);}.aw{fill:url(#an);}.ax{fill:url(#ao);}.ay{fill:url(#ap);}.az{fill:url(#aq);}.ba{fill:url(#ar);}.bb{fill:url(#as);}</style><linearGradient id="a" x1="377.81" y1="474.69" x2="537.17" y2="474.69" gradientUnits="userSpaceOnUse"><stop offset="0" stop-color="#fff" stop-opacity="0"/><stop offset="1" stop-color="#fff"/></linearGradient><linearGradient id="b" x1="617.27" y1="833.73" x2="617.27" y2="562.9" gradientUnits="userSpaceOnUse"><stop offset="0" stop-color="#c197fc" stop-opacity="0"/><stop offset="0" stop-color="#172963" stop-opacity="0.1"/><stop offset="1" stop-color="#172963"/></linearGradient><linearGradient id="c" x1="900.4" y1="833.73" x2="900.4" y2="562.9" gradientTransform="matrix(-1, 0, 0, 1, 1358.1, 0)" xlink:href="#b"/><linearGradient id="d" x1="378.02" y1="339" x2="696.95" y2="339" xlink:href="#a"/><linearGradient id="e" x1="378.02" y1="562.63" x2="696.95" y2="562.63" gradientUnits="userSpaceOnUse"><stop offset="0" stop-color="#c197fc" stop-opacity="0"/><stop offset="0.1" stop-color="#c096fc" stop-opacity="0.02"/><stop offset="0.22" stop-color="#be94fc" stop-opacity="0.08"/><stop offset="0.36" stop-color="#ba91fc" stop-opacity="0.18"/><stop offset="0.51" stop-color="#b48cfc" stop-opacity="0.33"/><stop offset="0.66" stop-color="#ad85fc" stop-opacity="0.51"/><stop offset="0.82" stop-color="#a47dfc" stop-opacity="0.73"/><stop offset="0.99" stop-color="#9a74fc" stop-opacity="0.99"/><stop offset="0.99" stop-color="#9a74fc"/></linearGradient><linearGradient id="f" x1="537.59" y1="474.69" x2="696.95" y2="474.69" xlink:href="#a"/><linearGradient id="g" x1="506.55" y1="667.9" x2="539.13" y2="667.9" xlink:href="#a"/><linearGradient id="h" x1="539.21" y1="667.9" x2="571.79" y2="667.9" xlink:href="#a"/><linearGradient id="i" x1="506.59" y1="640.16" x2="571.79" y2="640.16" xlink:href="#a"/><linearGradient id="j" x1="724.35" y1="301.01" x2="756.93" y2="301.01" xlink:href="#a"/><linearGradient id="k" x1="757.01" y1="301.01" x2="789.59" y2="301.01" xlink:href="#a"/><linearGradient id="l" x1="724.4" y1="273.27" x2="789.59" y2="273.27" xlink:href="#a"/><linearGradient id="m" x1="286.38" y1="301.01" x2="318.96" y2="301.01" xlink:href="#a"/><linearGradient id="n" x1="319.04" y1="301.01" x2="351.62" y2="301.01" xlink:href="#a"/><linearGradient id="o" x1="286.43" y1="273.27" x2="351.62" y2="273.27" xlink:href="#a"/><linearGradient id="p" x1="504.22" y1="234.58" x2="536.8" y2="234.58" xlink:href="#a"/><linearGradient id="q" x1="536.88" y1="234.58" x2="569.46" y2="234.58" xlink:href="#a"/><linearGradient id="r" x1="504.26" y1="206.84" x2="569.46" y2="206.84" xlink:href="#a"/><linearGradient id="s" x1="286.38" y1="609.66" x2="318.96" y2="609.66" xlink:href="#a"/><linearGradient id="t" x1="319.04" y1="609.66" x2="351.62" y2="609.66" xlink:href="#a"/><linearGradient id="u" x1="286.43" y1="581.93" x2="351.62" y2="581.93" xlink:href="#a"/><linearGradient id="v" x1="724.35" y1="609.66" x2="756.93" y2="609.66" xlink:href="#a"/><linearGradient id="w" x1="757.01" y1="609.66" x2="789.59" y2="609.66" xlink:href="#a"/><linearGradient id="x" x1="724.4" y1="581.93" x2="789.59" y2="581.93" xlink:href="#a"/><linearGradient id="y" x1="185.05" y1="235.78" x2="217.63" y2="235.78" xlink:href="#a"/><linearGradient id="z" x1="217.71" y1="235.78" x2="250.29" y2="235.78" xlink:href="#a"/><linearGradient id="aa" x1="185.09" y1="208.04" x2="250.29" y2="208.04" xlink:href="#a"/><linearGradient id="ab" x1="822.74" y1="443.69" x2="855.32" y2="443.69" xlink:href="#a"/><linearGradient id="ac" x1="855.4" y1="443.69" x2="887.98" y2="443.69" xlink:href="#a"/><linearGradient id="ad" x1="822.78" y1="415.95" x2="887.98" y2="415.95" xlink:href="#a"/><linearGradient id="ae" x1="822.74" y1="235.78" x2="855.32" y2="235.78" xlink:href="#a"/><linearGradient id="af" x1="855.4" y1="235.78" x2="887.98" y2="235.78" xlink:href="#a"/><linearGradient id="ag" x1="822.78" y1="208.04" x2="887.98" y2="208.04" xlink:href="#a"/><linearGradient id="ah" x1="185.05" y1="676.05" x2="217.63" y2="676.05" xlink:href="#a"/><linearGradient id="ai" x1="217.71" y1="676.05" x2="250.29" y2="676.05" xlink:href="#a"/><linearGradient id="aj" x1="185.09" y1="648.31" x2="250.29" y2="648.31" xlink:href="#a"/><linearGradient id="ak" x1="185.05" y1="443.69" x2="217.63" y2="443.69" xlink:href="#a"/><linearGradient id="al" x1="217.71" y1="443.69" x2="250.29" y2="443.69" xlink:href="#a"/><linearGradient id="am" x1="185.09" y1="415.95" x2="250.29" y2="415.95" xlink:href="#a"/><linearGradient id="an" x1="822.74" y1="676.05" x2="855.32" y2="676.05" xlink:href="#a"/><linearGradient id="ao" x1="855.4" y1="676.05" x2="887.98" y2="676.05" xlink:href="#a"/><linearGradient id="ap" x1="822.78" y1="648.31" x2="887.98" y2="648.31" xlink:href="#a"/><linearGradient id="aq" x1="506.55" y1="772.73" x2="539.13" y2="772.73" xlink:href="#a"/><linearGradient id="ar" x1="539.21" y1="772.73" x2="571.79" y2="772.73" xlink:href="#a"/><linearGradient id="as" x1="506.59" y1="744.99" x2="571.79" y2="744.99" xlink:href="#a"/></defs><g class="a"><path class="b" d="M585.83,165.81a2.67,2.67,0,0,1-2.74,2c-2.1,0-3.2-1.67-3.2-3.72s1.08-3.76,3.21-3.76a2.55,2.55,0,0,1,2.74,2.09h-.56a2.11,2.11,0,0,0-2.21-1.57c-1.82,0-2.58,1.65-2.58,3.23s.75,3.21,2.62,3.21a2.15,2.15,0,0,0,2.16-1.51Z"/><path class="b" d="M589.19,167.75V165a.34.34,0,0,0,0-.16l-2.6-4.39h.65l2.32,3.94c.31-.54,1.59-2.68,2.37-3.94h.63l-2.72,4.43a.32.32,0,0,0,0,.16v2.7Z"/><path class="b" d="M593.53,160.46h2.54c1.4,0,2.15.74,2.15,1.79a1.58,1.58,0,0,1-1.13,1.6,1.84,1.84,0,0,1,1.39,1.8,2.09,2.09,0,0,1-2.37,2.1h-2.58Zm2.35,3.14c1.26,0,1.74-.47,1.74-1.32s-.5-1.3-1.52-1.3h-2v2.62Zm-1.8,3.63h2c1,0,1.76-.48,1.76-1.55s-.59-1.56-2.06-1.56h-1.75Z"/><path class="b" d="M604.43,164.17h-3.72v3.06h4.07l-.08.52h-4.56v-7.29h4.47V161h-3.9v2.67h3.72Z"/><path class="b" d="M606.79,164.35v3.4h-.57v-7.29h2.61c1.44,0,2.2.77,2.2,1.92a1.65,1.65,0,0,1-1.36,1.71c.75.17,1.25.66,1.25,1.9v.28a5,5,0,0,0,.09,1.48h-.57a4.68,4.68,0,0,1-.11-1.52v-.18c0-1.2-.35-1.7-1.75-1.7Zm0-.52h1.76c1.28,0,1.88-.48,1.88-1.44s-.59-1.41-1.72-1.41h-1.92Z"/><path class="b" d="M506.2,143.85V144l-.58.08a1,1,0,0,0-.38.19,1.23,1.23,0,0,0-.4.47,2.46,2.46,0,0,0-.1.76.28.28,0,0,0,0,.18l.48,10.43a2.31,2.31,0,0,0,.32,1.14c.19.31.62.48,1.29.48v.16h-4.55v-.16a1.64,1.64,0,0,0,1.21-.52,2,2,0,0,0,.26-1.32l-.48-10.8h0l-5,12.8-4.69-12.33h0l-.51,10a4.13,4.13,0,0,0,.1,1.27,1.11,1.11,0,0,0,.45.65,2.31,2.31,0,0,0,.9.29v.16h-3.54v-.16a1.39,1.39,0,0,0,1.5-1.11,8,8,0,0,0,.16-1.29l.57-10.3a.46.46,0,0,0-.12-.21,1.88,1.88,0,0,0-.28-.29,2,2,0,0,0-.32-.24,1.54,1.54,0,0,0-.56-.23l-.67-.06v-.16h3.26l4.35,11.49,4.42-11.49Z"/><path class="b" d="M523.14,150.88a7.27,7.27,0,0,1-1,3.68,7.35,7.35,0,0,1-2.67,2.7,7.16,7.16,0,0,1-3.74,1,7.4,7.4,0,0,1-5.24-12.72,7.69,7.69,0,0,1,2.41-1.56,7.29,7.29,0,0,1,2.81-.55,7.45,7.45,0,0,1,2.77.52,7.55,7.55,0,0,1,2.38,1.54,7.22,7.22,0,0,1,1.65,2.37A7.3,7.3,0,0,1,523.14,150.88Zm-1.68,0a8.21,8.21,0,0,0-1-4.38,5.17,5.17,0,0,0-2.29-2.13,6.4,6.4,0,0,0-2.45-.54,6.15,6.15,0,0,0-1.84.3,5.08,5.08,0,0,0-1.85,1.06,5.68,5.68,0,0,0-1.49,2.17,9.25,9.25,0,0,0-.58,3.47,9.46,9.46,0,0,0,.48,3.16,6,6,0,0,0,1.33,2.2,5,5,0,0,0,1.86,1.23,5.94,5.94,0,0,0,4.1,0,5.07,5.07,0,0,0,1.84-1.13,5.76,5.76,0,0,0,1.36-2.14A9.36,9.36,0,0,0,521.46,150.92Z"/><path class="b" d="M540,150.88a7.27,7.27,0,0,1-1,3.68,7.35,7.35,0,0,1-2.67,2.7,7.15,7.15,0,0,1-3.73,1,7.4,7.4,0,0,1-5.25-12.72,7.8,7.8,0,0,1,2.41-1.56,7.54,7.54,0,0,1,5.58,0,7.44,7.44,0,0,1,2.38,1.54,7.24,7.24,0,0,1,1.66,2.37A7.46,7.46,0,0,1,540,150.88Zm-1.68,0a8.21,8.21,0,0,0-1-4.38,5.12,5.12,0,0,0-2.29-2.13,6.39,6.39,0,0,0-2.44-.54,6,6,0,0,0-1.84.3,5,5,0,0,0-1.86,1.06,5.55,5.55,0,0,0-1.48,2.17,9,9,0,0,0-.59,3.47,9.45,9.45,0,0,0,.49,3.16,5.9,5.9,0,0,0,1.32,2.2,5.2,5.2,0,0,0,1.86,1.23,5.94,5.94,0,0,0,4.1,0,5.07,5.07,0,0,0,1.84-1.13,5.76,5.76,0,0,0,1.36-2.14A9.14,9.14,0,0,0,538.36,150.92Z"/><path class="b" d="M541.94,144.05h-.19v-.2h4.86a5,5,0,0,1,2,.36,3.45,3.45,0,0,1,1.27.92,3.53,3.53,0,0,1,.65,1.18,4,4,0,0,1,.19,1.22,3.52,3.52,0,0,1-.32,1.46,3.15,3.15,0,0,1-1,1.21,3.73,3.73,0,0,1-1.66.68v0a5.89,5.89,0,0,1,2.33,2.43l1.27,2.14a6.55,6.55,0,0,0,1.38,1.82,2,2,0,0,0,1,.43v.16H551.2l-.31-.41c-.09-.13-.19-.27-.3-.41s-.16-.24-.28-.44-.2-.3-.23-.33l-1.68-2.77a6.69,6.69,0,0,0-1-1.38,3.86,3.86,0,0,0-1-.76,3,3,0,0,0-.82-.29,7.3,7.3,0,0,0-.87-.05v5.14a1.38,1.38,0,0,0,1.53,1.54v.16h-4.47v-.16a2.17,2.17,0,0,0,.74-.15,1.3,1.3,0,0,0,.54-.48,1.73,1.73,0,0,0,.21-.91V145.57a1.44,1.44,0,0,0-.41-1.18A1.34,1.34,0,0,0,541.94,144.05Zm2.75,6.63h.8a5.12,5.12,0,0,0,2.07-.36,2.34,2.34,0,0,0,1.17-1,3.47,3.47,0,0,0,.36-1.65,4.22,4.22,0,0,0-.32-1.59,3,3,0,0,0-1.11-1.3,3.58,3.58,0,0,0-2.09-.53,4.19,4.19,0,0,0-.88.08Z"/><path class="b" d="M559.83,157.9h-5.26v-.16h.19a1.3,1.3,0,0,0,.93-.38,1.62,1.62,0,0,0,.38-1.16V145.59a1.74,1.74,0,0,0-.36-1.17,1.21,1.21,0,0,0-1-.41h-.18v-.16h4.59a5,5,0,0,1,1.67.26,3.67,3.67,0,0,1,1.29.72,3.26,3.26,0,0,1,.82,1,2.9,2.9,0,0,1,.29,1.28,2.77,2.77,0,0,1-.82,2.06,5.11,5.11,0,0,1-2.21,1.16v0a9,9,0,0,1,1.21.2,4.47,4.47,0,0,1,1.05.37,4,4,0,0,1,.88.62,3.69,3.69,0,0,1,.63.75,3.45,3.45,0,0,1,.39.9,3.62,3.62,0,0,1,.13,1,3.22,3.22,0,0,1-.56,1.89,4,4,0,0,1-1.29,1.2A5.78,5.78,0,0,1,559.83,157.9Zm-2.31-7.61h.92a3.87,3.87,0,0,0,1.6-.23,3.44,3.44,0,0,0,.63-.42,2.53,2.53,0,0,0,.63-.83,3,3,0,0,0,.3-1.39,3.34,3.34,0,0,0-.2-1.19,2.9,2.9,0,0,0-.58-1,2.65,2.65,0,0,0-2.05-.94,4.46,4.46,0,0,0-1.25.21Zm1.44.43h-1.44v5.07a2.88,2.88,0,0,0,.1.84,1.07,1.07,0,0,0,.55.59,3.69,3.69,0,0,0,4.14-1,3.69,3.69,0,0,0,.56-2,3.54,3.54,0,0,0-.28-1.45,3,3,0,0,0-.77-1.09,3.59,3.59,0,0,0-1.24-.68A5.19,5.19,0,0,0,559,150.72Z"/><path class="b" d="M570.26,143.85V144a1.65,1.65,0,0,0-1.06.35,1.41,1.41,0,0,0-.44,1.17V156.2a1.42,1.42,0,0,0,.46,1.18,1.68,1.68,0,0,0,1,.36v.16h-4.45v-.16a1.64,1.64,0,0,0,1.05-.35,1.44,1.44,0,0,0,.45-1.19V145.53a1.4,1.4,0,0,0-.45-1.2,1.74,1.74,0,0,0-1.05-.32v-.16Z"/><path class="b" d="M571.7,144v-.16h5.41a10.58,10.58,0,0,1,2.1.19,8.4,8.4,0,0,1,1.71.52,7.37,7.37,0,0,1,1.32.71,6.3,6.3,0,0,1,.93.79,7.12,7.12,0,0,1,1.14,1.48,7.31,7.31,0,0,1,.7,1.72,7.79,7.79,0,0,1,.23,1.87A7.17,7.17,0,0,1,585,153a6.2,6.2,0,0,1-.66,1.61,6.68,6.68,0,0,1-1,1.34,7.71,7.71,0,0,1-1.39,1.09,6.53,6.53,0,0,1-1.56.65,9.21,9.21,0,0,1-2.37.25H571.7v-.16h.2a1.1,1.1,0,0,0,1-.49,1.93,1.93,0,0,0,.32-1.05V145.59a2.22,2.22,0,0,0-.17-.9,1.16,1.16,0,0,0-.48-.52,1.28,1.28,0,0,0-.65-.16Zm2.95.5v11.13a2.24,2.24,0,0,0,.26,1.21,1.22,1.22,0,0,0,.82.5,8.21,8.21,0,0,0,1.62.12,9.52,9.52,0,0,0,2.58-.3,4.63,4.63,0,0,0,2-1.34,6,6,0,0,0,1.16-1.89,7.49,7.49,0,0,0,.44-2.7,9.11,9.11,0,0,0-.35-2.48,6.84,6.84,0,0,0-1.08-2.18,5.57,5.57,0,0,0-2.08-1.69,7.18,7.18,0,0,0-3.07-.61A15.35,15.35,0,0,0,574.65,144.51Z"/><path class="b" d="M599.79,146.76h-.16a3.19,3.19,0,0,0-1.62-2.13,6,6,0,0,0-3-.76,6.93,6.93,0,0,0-1.89.28,5.91,5.91,0,0,0-2,1,5.38,5.38,0,0,0-1.58,2.08,8.1,8.1,0,0,0-.63,3.42,8.31,8.31,0,0,0,1.53,5.24q1.53,2,4.92,2a7.74,7.74,0,0,0,2-.18,1.3,1.3,0,0,0,.81-.5,1.7,1.7,0,0,0,.18-.85v-2.57a1.46,1.46,0,0,0-.4-1.21,2.51,2.51,0,0,0-1.19-.4V152h4.57v.16a2.43,2.43,0,0,0-1,.28,1,1,0,0,0-.46.53,2.5,2.5,0,0,0-.11.85v3.91a16.49,16.49,0,0,1-4.33.57,14.41,14.41,0,0,1-2.28-.19,7.71,7.71,0,0,1-2.35-.85,6.6,6.6,0,0,1-2.16-1.95,7.31,7.31,0,0,1-1.4-4.38,7.52,7.52,0,0,1,.53-2.76,7.37,7.37,0,0,1,1.53-2.41,7,7,0,0,1,2.43-1.68,8.08,8.08,0,0,1,3.2-.61,9.8,9.8,0,0,1,1.33.09c.43.06,1.07.18,1.93.36a3.64,3.64,0,0,0,.73.12.71.71,0,0,0,.68-.47h.16Z"/><path class="b" d="M602.17,144v-.16h8.37v2.21h-.13c0-1.18-.79-1.78-2.36-1.78h-2.93v6.39h2.57a3.68,3.68,0,0,0,1.37-.25,1.23,1.23,0,0,0,.68-1.14h.15v3.19h-.15a1.7,1.7,0,0,0-.32-.84,1.29,1.29,0,0,0-.47-.38,1.06,1.06,0,0,0-.42-.1,4.17,4.17,0,0,0-.71-.06h-2.7v5a2.15,2.15,0,0,0,.21,1c.15.27.48.41,1,.41h2.09a3.16,3.16,0,0,0,1.24-.22,2,2,0,0,0,.77-.61,4,4,0,0,0,.47-.95H611l-.49,2.21h-8.37v-.16h.19a1.37,1.37,0,0,0,.88-.36,1.49,1.49,0,0,0,.43-1.18V145.61a2.18,2.18,0,0,0-.29-1.13,1.12,1.12,0,0,0-1-.47Z"/><line class="c" x1="574.64" y1="164.17" x2="490.91" y2="164.17"/><path class="b" d="M480,148c-2.47,1.64-4.71,3.09-6.9,4.61a1.31,1.31,0,0,1-1.75,0c-2.07-1.41-4.19-2.73-6.3-4.08-.27-.17-.55-.32-.94-.54,0,.41-.05.7-.06,1,0,4.27,0,8.54,0,12.81a1.29,1.29,0,0,0,.82,1.39c2.22,1.08,4.39,2.26,6.61,3.33a1.76,1.76,0,0,0,1.35,0c2.17-1.08,4.3-2.26,6.47-3.37A1.09,1.09,0,0,0,480,162c0-1.05,0-2.11,0-3.22h4.8c0,2.19,0,4.35,0,6.51,0,.24-.33.56-.58.69Q478.47,169,472.71,172a1.2,1.2,0,0,1-1,0q-5.94-3-11.82-6.07a1.21,1.21,0,0,1-.59-.87c0-8.51,0-17,0-25.52a2,2,0,0,1,.1-.4l3.89,2.49c2.66,1.71,5.34,3.41,8,5.16a1.39,1.39,0,0,0,1.84,0c3.58-2.44,7.2-4.82,10.81-7.21.24-.16.5-.29.84-.49v14.93H480Z"/><polygon class="d" points="537.17 610.1 377.81 562.9 377.81 339.27 537.17 386.48 537.17 610.1"/><polygon class="e" points="537.59 833.73 696.95 786.53 696.95 562.9 537.59 610.1 537.59 833.73"/><polygon class="f" points="537.38 833.73 378.02 786.53 378.02 562.9 537.38 610.1 537.38 833.73"/><polygon class="g" points="537.38 291.52 378.02 338.72 537.59 386.48 696.95 339.27 537.38 291.52"/><polygon class="h" points="537.38 515.15 378.02 562.35 537.59 610.1 696.95 562.9 537.38 515.15"/><polygon class="i" points="537.38 291.52 378.02 338.72 377.81 562.9 537.59 610.1 696.95 562.9 696.95 339.27 537.38 291.52"/><path class="j" d="M605.85,448.93a46.78,46.78,0,0,0-33-74.28V357.36H542.24v17.05h-10.6V357.36H501v17.05H476.49v30.94h13.77v94.87H476.49v30.94H501v15.46h30.66V531.16h10.6v15.46H572.9V531.16h2.39a46.78,46.78,0,0,0,30.56-82.23Zm-37.71-43.58a15.87,15.87,0,1,1,0,31.74H520.92V405.35Zm7.15,94.87H520.92V468.48h54.37a15.87,15.87,0,0,1,0,31.74Z"/><ellipse class="j" cx="533.32" cy="561.73" rx="52.41" ry="3.49"/><polygon class="k" points="537.59 610.1 696.95 562.9 696.95 339.27 537.59 386.48 537.59 610.1"/><g class="l"><polygon class="m" points="378.27 337.88 537.68 386.16 537.92 386.23 537.92 386.48 537.59 486.02 537.26 386.48 537.5 386.79 377.77 339.56 378.27 337.88"/></g><polygon class="m" points="534.97 610.1 535.84 574.54 536.72 610.1 534.97 610.1"/><line class="i" x1="319.15" y1="328.69" x2="318.92" y2="572.22"/><line class="i" x1="503.65" y1="242.69" x2="352.39" y2="287.5"/><line class="i" x1="723.63" y1="288.44" x2="569.72" y2="242.38"/><line class="i" x1="755.87" y1="572.22" x2="755.87" y2="328.69"/><line class="i" x1="572.41" y1="658.63" x2="723.66" y2="613.83"/><line class="i" x1="352.2" y1="614.13" x2="505.96" y2="659.55"/><polygon class="n" points="539.13 695.58 506.55 685.93 506.55 640.22 539.13 649.87 539.13 695.58"/><polygon class="o" points="539.21 695.58 571.79 685.93 571.79 640.22 539.21 649.87 539.21 695.58"/><polygon class="p" points="539.17 630.46 506.59 640.11 539.21 649.87 571.79 640.22 539.17 630.46"/><polygon class="i" points="539.17 630.46 506.59 640.11 506.55 685.93 539.21 695.58 571.79 685.93 571.79 640.22 539.17 630.46"/><polygon class="j" points="562.22 646.22 531.57 675.86 515.16 664.67 513.89 666.11 529.5 683.58 532.17 686.57 534.81 683.29 563.63 647.51 562.22 646.22"/><polygon class="q" points="756.93 328.69 724.35 319.05 724.35 273.33 756.93 282.98 756.93 328.69"/><polygon class="r" points="757.01 328.69 789.59 319.05 789.59 273.33 757.01 282.98 757.01 328.69"/><polygon class="s" points="756.97 263.57 724.39 273.22 757.01 282.98 789.59 273.33 756.97 263.57"/><polygon class="i" points="756.97 263.57 724.39 273.22 724.35 319.05 757.01 328.69 789.59 319.05 789.59 273.33 756.97 263.57"/><g class="t"><path class="b" d="M761.92,292.26a.56.56,0,0,0-.46-.13l-2,.3a13.52,13.52,0,0,0-.53-1.26l1.63-1.2a.59.59,0,0,0,.24-.42.58.58,0,0,0-.17-.45l-5.82-5.82a.54.54,0,0,0-.45-.16.56.56,0,0,0-.42.23L752.75,285a13.69,13.69,0,0,0-1.27-.53l.31-2a.6.6,0,0,0-.14-.46.55.55,0,0,0-.43-.2H743a.54.54,0,0,0-.43.2.6.6,0,0,0-.14.46l.31,2a13.69,13.69,0,0,0-1.27.53l-1.2-1.63a.55.55,0,0,0-.42-.23.52.52,0,0,0-.44.16l-5.82,5.82a.57.57,0,0,0,.06.87l1.64,1.2a13.52,13.52,0,0,0-.53,1.26l-2-.3a.55.55,0,0,0-.46.13.57.57,0,0,0-.2.43v8.23a.57.57,0,0,0,.2.44.59.59,0,0,0,.46.13l2-.31a13.69,13.69,0,0,0,.53,1.27l-1.64,1.2a.58.58,0,0,0-.23.42.59.59,0,0,0,.17.45l5.82,5.81a.56.56,0,0,0,.44.17.58.58,0,0,0,.42-.23l1.2-1.64c.42.21.85.38,1.27.54l-.31,2a.58.58,0,0,0,.14.46.54.54,0,0,0,.43.2h8.23a.55.55,0,0,0,.43-.2.58.58,0,0,0,.14-.46l-.31-2c.42-.16.85-.33,1.27-.54l1.19,1.64a.6.6,0,0,0,.42.23.58.58,0,0,0,.45-.17l5.82-5.81a.59.59,0,0,0,.17-.45.59.59,0,0,0-.24-.42l-1.63-1.2a13.69,13.69,0,0,0,.53-1.27l2,.31a.59.59,0,0,0,.46-.13.57.57,0,0,0,.2-.44v-8.23A.57.57,0,0,0,761.92,292.26ZM747.1,304.32a7.51,7.51,0,1,1,7.52-7.51A7.51,7.51,0,0,1,747.1,304.32Z"/></g><g class="t"><path class="b" d="M783.21,300.31a.4.4,0,0,0-.3-.09l-1.29.2c-.1-.27-.21-.55-.34-.82l1.05-.77a.39.39,0,0,0,.15-.28.4.4,0,0,0-.1-.29l-3.77-3.76a.34.34,0,0,0-.29-.11.39.39,0,0,0-.27.15l-.77,1.06c-.28-.13-.55-.24-.82-.34l.19-1.3a.34.34,0,0,0-.08-.29.34.34,0,0,0-.28-.13H771a.36.36,0,0,0-.29.13.34.34,0,0,0-.08.29l.2,1.3a8.33,8.33,0,0,0-.82.34l-.78-1.06a.39.39,0,0,0-.27-.15.36.36,0,0,0-.29.11l-3.76,3.76a.37.37,0,0,0-.11.29.39.39,0,0,0,.15.28l1.06.77c-.13.27-.25.55-.35.82l-1.29-.2a.43.43,0,0,0-.3.09.37.37,0,0,0-.13.28v5.32a.37.37,0,0,0,.13.28.41.41,0,0,0,.3.09l1.29-.2c.1.27.22.55.35.82l-1.06.77a.39.39,0,0,0-.15.27.38.38,0,0,0,.11.3l3.76,3.76a.39.39,0,0,0,.29.11.37.37,0,0,0,.27-.16l.78-1.05a8.33,8.33,0,0,0,.82.34l-.2,1.29a.36.36,0,0,0,.08.3.39.39,0,0,0,.29.13h5.32a.37.37,0,0,0,.28-.13.36.36,0,0,0,.08-.3l-.19-1.29c.27-.1.54-.21.82-.34l.77,1.05a.37.37,0,0,0,.27.16.38.38,0,0,0,.29-.11l3.77-3.76a.41.41,0,0,0,.1-.3.39.39,0,0,0-.15-.27l-1.06-.77a7.21,7.21,0,0,0,.35-.82l1.29.2a.4.4,0,0,0,.3-.09.37.37,0,0,0,.13-.28v-5.32A.37.37,0,0,0,783.21,300.31Zm-9.58,7.8a4.86,4.86,0,1,1,4.86-4.86A4.86,4.86,0,0,1,773.63,308.11Z"/></g><polygon class="u" points="318.96 328.69 286.38 319.05 286.38 273.33 318.96 282.98 318.96 328.69"/><polygon class="v" points="319.05 328.69 351.62 319.05 351.62 273.33 319.05 282.98 319.05 328.69"/><polygon class="w" points="319 263.57 286.43 273.22 319.05 282.98 351.62 273.33 319 263.57"/><polygon class="i" points="319 263.57 286.43 273.22 286.38 319.05 319.05 328.69 351.62 319.05 351.62 273.33 319 263.57"/><g class="t"><path class="b" d="M330.3,286.46H307.72a5,5,0,0,0-5,5v20.81a5,5,0,0,0,5,5H330.3a5,5,0,0,0,5-5V291.47A5,5,0,0,0,330.3,286.46Zm-9,13,1.09,11.93h-5.58l1.09-11.93a4.29,4.29,0,1,1,3.4,0Z"/><path class="x" d="M330.13,289.5v-4.13A11.12,11.12,0,0,0,319,274.24h0a11.13,11.13,0,0,0-11.13,11.13v4.13"/></g><polygon class="y" points="536.8 262.26 504.22 252.61 504.22 206.9 536.8 216.55 536.8 262.26"/><polygon class="z" points="536.88 262.26 569.46 252.61 569.46 206.9 536.88 216.55 536.88 262.26"/><polygon class="aa" points="536.84 197.14 504.26 206.78 536.88 216.55 569.46 206.9 536.84 197.14"/><polygon class="i" points="536.84 197.14 504.26 206.78 504.22 252.61 536.88 262.26 569.46 252.61 569.46 206.9 536.84 197.14"/><g class="t"><path class="b" d="M547.52,221.23H524.94a5,5,0,0,0-5,5v20.8a5,5,0,0,0,5,5h22.58a5,5,0,0,0,5-5v-20.8A5,5,0,0,0,547.52,221.23Zm-9,13,1.09,11.94H534l1.09-11.94a4.29,4.29,0,1,1,3.4,0Z"/><path class="x" d="M547.36,224.27v-4.13A11.13,11.13,0,0,0,536.23,209h0a11.12,11.12,0,0,0-11.13,11.12v4.13"/></g><polygon class="ab" points="318.96 637.35 286.38 627.7 286.38 581.98 318.96 591.63 318.96 637.35"/><polygon class="ac" points="319.05 637.35 351.62 627.7 351.62 581.98 319.05 591.63 319.05 637.35"/><polygon class="ad" points="319 572.22 286.43 581.87 319.05 591.63 351.62 581.98 319 572.22"/><polygon class="i" points="319 572.22 286.43 581.87 286.38 627.7 319.05 637.35 351.62 627.7 351.62 581.98 319 572.22"/><g class="t"><path class="b" d="M330.3,595.11H307.72a5,5,0,0,0-5,5v20.8a5,5,0,0,0,5,5H330.3a5,5,0,0,0,5-5v-20.8A5,5,0,0,0,330.3,595.11Zm-9,13L322.4,620h-5.58l1.09-11.94a4.29,4.29,0,1,1,3.4,0Z"/><path class="x" d="M330.13,598.15V594A11.12,11.12,0,0,0,319,582.9h0A11.12,11.12,0,0,0,307.88,594v4.13"/></g><polygon class="ae" points="756.93 637.35 724.35 627.7 724.35 581.98 756.93 591.63 756.93 637.35"/><polygon class="af" points="757.01 637.35 789.59 627.7 789.59 581.98 757.01 591.63 757.01 637.35"/><polygon class="ag" points="756.97 572.22 724.39 581.87 757.01 591.63 789.59 581.98 756.97 572.22"/><polygon class="i" points="756.97 572.22 724.39 581.87 724.35 627.7 757.01 637.35 789.59 627.7 789.59 581.98 756.97 572.22"/><g class="t"><path class="b" d="M769.4,595.11H746.82a5,5,0,0,0-5,5v20.8a5,5,0,0,0,5,5H769.4a5,5,0,0,0,5-5v-20.8A5,5,0,0,0,769.4,595.11Zm-9,13L761.5,620h-5.58L757,608.08a4.29,4.29,0,1,1,3.41,0Z"/><path class="x" d="M769.24,598.15V594a11.12,11.12,0,0,0-11.13-11.12h0A11.13,11.13,0,0,0,747,594v4.13"/></g><line class="i" x1="821.87" y1="216.8" x2="625.54" y2="158.04"/><line class="i" x1="857.09" y1="406.24" x2="857.09" y2="263.46"/><line class="i" x1="857.09" y1="638.61" x2="857.09" y2="471.37"/><line class="i" x1="571.8" y1="759.89" x2="822.32" y2="685.69"/><line class="i" x1="252.79" y1="685.77" x2="505.07" y2="760.29"/><line class="i" x1="217.87" y1="471.37" x2="217.71" y2="638.61"/><line class="i" x1="218.06" y1="263.46" x2="217.93" y2="406.24"/><line class="i" x1="441.69" y1="160.01" x2="251.61" y2="216.31"/><polygon class="ah" points="217.63 263.46 185.05 253.81 185.05 208.1 217.63 217.75 217.63 263.46"/><polygon class="ai" points="217.71 263.46 250.29 253.81 250.29 208.1 217.71 217.75 217.71 263.46"/><polygon class="aj" points="217.67 198.34 185.09 207.99 217.71 217.75 250.29 208.1 217.67 198.34"/><polygon class="i" points="217.67 198.34 185.09 207.99 185.05 253.81 217.71 263.46 250.29 253.81 250.29 208.1 217.67 198.34"/><path class="j" d="M210.78,251.33l5.68-15.18a2.2,2.2,0,0,0-.46-2.27l1.76-4.12a11.2,11.2,0,1,0-1.61-.69l-1.76,4.13a2.18,2.18,0,0,0-1.95,1.24l-7,14.61a1.33,1.33,0,0,0-.11.24,2.92,2.92,0,0,0,5.47,2Zm18.39-28.79a8.55,8.55,0,1,1,.06-6.53A8.54,8.54,0,0,1,229.17,222.54Z"/><polygon class="ak" points="855.32 471.37 822.74 461.72 822.74 416.01 855.32 425.65 855.32 471.37"/><polygon class="al" points="855.4 471.37 887.98 461.72 887.98 416.01 855.4 425.65 855.4 471.37"/><polygon class="am" points="855.36 406.24 822.78 415.89 855.4 425.65 887.98 416.01 855.36 406.24"/><polygon class="i" points="855.36 406.24 822.78 415.89 822.74 461.72 855.4 471.37 887.98 461.72 887.98 416.01 855.36 406.24"/><path class="b" d="M850.8,459.24l5.68-15.18a2.21,2.21,0,0,0-.46-2.27l1.76-4.13a11.06,11.06,0,1,0-1.61-.68l-1.76,4.13a2.19,2.19,0,0,0-2,1.23l-7,14.61a2.56,2.56,0,0,0-.11.24,2.92,2.92,0,0,0,5.47,2.05Zm18.39-28.8a8.55,8.55,0,1,1,.06-6.53A8.54,8.54,0,0,1,869.19,430.44Z"/><polygon class="an" points="855.32 263.46 822.74 253.81 822.74 208.1 855.32 217.75 855.32 263.46"/><polygon class="ao" points="855.4 263.46 887.98 253.81 887.98 208.1 855.4 217.75 855.4 263.46"/><polygon class="ap" points="855.36 198.34 822.78 207.99 855.4 217.75 887.98 208.1 855.36 198.34"/><polygon class="i" points="855.36 198.34 822.78 207.99 822.74 253.81 855.4 263.46 887.98 253.81 887.98 208.1 855.36 198.34"/><polygon class="b" points="877.86 214.11 847.21 243.75 830.8 232.56 829.54 234 845.14 251.48 847.81 254.47 850.45 251.18 879.27 215.4 877.86 214.11"/><polygon class="aq" points="217.63 703.73 185.05 694.08 185.05 648.37 217.63 658.02 217.63 703.73"/><polygon class="ar" points="217.71 703.73 250.29 694.08 250.29 648.37 217.71 658.02 217.71 703.73"/><polygon class="as" points="217.67 638.61 185.09 648.25 217.71 658.02 250.29 648.37 217.67 638.61"/><polygon class="i" points="217.67 638.61 185.09 648.25 185.05 694.08 217.71 703.73 250.29 694.08 250.29 648.37 217.67 638.61"/><polygon class="j" points="240.17 653.21 209.52 682.85 193.11 671.66 191.85 673.1 207.45 690.58 210.12 693.57 212.76 690.28 241.59 654.5 240.17 653.21"/><polygon class="at" points="217.63 471.37 185.05 461.72 185.05 416.01 217.63 425.65 217.63 471.37"/><polygon class="au" points="217.71 471.37 250.29 461.72 250.29 416.01 217.71 425.65 217.71 471.37"/><polygon class="av" points="217.67 406.24 185.09 415.89 217.71 425.65 250.29 416.01 217.67 406.24"/><polygon class="i" points="217.67 406.24 185.09 415.89 185.05 461.72 217.71 471.37 250.29 461.72 250.29 416.01 217.67 406.24"/><g class="t"><path class="b" d="M220.84,435.52a.57.57,0,0,0-.46-.13l-2,.31a12.72,12.72,0,0,0-.54-1.27l1.64-1.2a.58.58,0,0,0,.23-.42.61.61,0,0,0-.16-.45l-5.82-5.82a.54.54,0,0,0-.45-.16.55.55,0,0,0-.42.23l-1.2,1.63a12.64,12.64,0,0,0-1.27-.53l.31-2a.6.6,0,0,0-.13-.46.61.61,0,0,0-.44-.2h-8.22a.61.61,0,0,0-.44.2.56.56,0,0,0-.13.46l.31,2a12.64,12.64,0,0,0-1.27.53l-1.2-1.63a.55.55,0,0,0-.42-.23.54.54,0,0,0-.45.16l-5.82,5.82a.54.54,0,0,0-.16.45.55.55,0,0,0,.23.42l1.63,1.2a12.64,12.64,0,0,0-.53,1.27l-2-.31a.6.6,0,0,0-.46.13.61.61,0,0,0-.2.44v8.22a.61.61,0,0,0,.2.44.6.6,0,0,0,.46.13l2-.31a12.64,12.64,0,0,0,.53,1.27l-1.63,1.2a.55.55,0,0,0-.23.42.54.54,0,0,0,.16.45l5.82,5.82a.57.57,0,0,0,.45.16.55.55,0,0,0,.42-.23l1.2-1.63a12.64,12.64,0,0,0,1.27.53l-.31,2a.57.57,0,0,0,.13.47.61.61,0,0,0,.44.2h8.22a.57.57,0,0,0,.57-.67l-.31-2a12.64,12.64,0,0,0,1.27-.53l1.2,1.63a.55.55,0,0,0,.42.23.57.57,0,0,0,.45-.16l5.82-5.82a.61.61,0,0,0,.16-.45.58.58,0,0,0-.23-.42l-1.64-1.2a12.72,12.72,0,0,0,.54-1.27l2,.31a.57.57,0,0,0,.66-.57V436A.57.57,0,0,0,220.84,435.52ZM206,447.58a7.51,7.51,0,1,1,7.51-7.51A7.51,7.51,0,0,1,206,447.58Z"/></g><g class="t"><path class="b" d="M242.13,443.57a.39.39,0,0,0-.29-.09l-1.3.2a7.11,7.11,0,0,0-.34-.82l1.06-.77a.43.43,0,0,0,.15-.27.34.34,0,0,0-.11-.29l-3.76-3.77a.46.46,0,0,0-.29-.11.37.37,0,0,0-.27.16l-.78,1.05c-.27-.13-.55-.24-.82-.34l.2-1.29a.4.4,0,0,0-.09-.3.37.37,0,0,0-.28-.13h-5.32a.37.37,0,0,0-.28.13.4.4,0,0,0-.09.3l.2,1.29c-.27.1-.55.21-.82.34l-.77-1.05a.41.41,0,0,0-.27-.16.42.42,0,0,0-.29.11l-3.77,3.77a.42.42,0,0,0-.11.29.41.41,0,0,0,.16.27l1.05.77c-.13.27-.24.55-.34.82l-1.29-.2a.4.4,0,0,0-.3.09.37.37,0,0,0-.13.28v5.32a.37.37,0,0,0,.13.28.4.4,0,0,0,.3.09l1.29-.2c.1.27.21.55.34.82l-1.05.78a.37.37,0,0,0-.16.27.46.46,0,0,0,.11.29l3.77,3.76a.38.38,0,0,0,.29.11.43.43,0,0,0,.27-.15l.77-1.06a7.11,7.11,0,0,0,.82.34l-.2,1.3a.39.39,0,0,0,.09.29.34.34,0,0,0,.28.13h5.32a.34.34,0,0,0,.28-.13.39.39,0,0,0,.09-.29l-.2-1.3a7.11,7.11,0,0,0,.82-.34l.78,1.06a.39.39,0,0,0,.27.15.41.41,0,0,0,.29-.11l3.76-3.76a.37.37,0,0,0,.11-.29.39.39,0,0,0-.15-.27l-1.06-.78a7.11,7.11,0,0,0,.34-.82l1.3.2a.39.39,0,0,0,.29-.09.34.34,0,0,0,.13-.28v-5.32A.34.34,0,0,0,242.13,443.57Zm-9.58,7.8a4.86,4.86,0,1,1,4.86-4.86A4.87,4.87,0,0,1,232.55,451.37Z"/></g><polygon class="aw" points="855.32 703.73 822.74 694.08 822.74 648.37 855.32 658.02 855.32 703.73"/><polygon class="ax" points="855.4 703.73 887.98 694.08 887.98 648.37 855.4 658.02 855.4 703.73"/><polygon class="ay" points="855.36 638.61 822.78 648.25 855.4 658.02 887.98 648.37 855.36 638.61"/><polygon class="i" points="855.36 638.61 822.78 648.25 822.74 694.08 855.4 703.73 887.98 694.08 887.98 648.37 855.36 638.61"/><g class="t"><path class="b" d="M877.22,666.37a.82.82,0,0,0-.65-.19l-2.82.43c-.22-.59-.47-1.19-.75-1.79l2.3-1.69a.81.81,0,0,0,.33-.59.8.8,0,0,0-.23-.63l-8.22-8.22a.8.8,0,0,0-.63-.23.81.81,0,0,0-.59.33l-1.69,2.31c-.6-.29-1.2-.54-1.79-.76l.43-2.82a.81.81,0,0,0-.8-.93H850.5a.82.82,0,0,0-.62.28.81.81,0,0,0-.18.65l.43,2.82a18.46,18.46,0,0,0-1.79.76l-1.69-2.31a.82.82,0,0,0-1.23-.1l-8.21,8.22a.8.8,0,0,0-.23.63.81.81,0,0,0,.33.59l2.3,1.69c-.28.6-.53,1.2-.75,1.79l-2.82-.43a.82.82,0,0,0-.65.19.78.78,0,0,0-.28.61v11.61a.82.82,0,0,0,.28.62.81.81,0,0,0,.65.18l2.82-.43c.22.6.47,1.2.75,1.79l-2.3,1.69a.82.82,0,0,0-.1,1.23l8.21,8.21a.8.8,0,0,0,.64.23.77.77,0,0,0,.59-.33l1.69-2.3c.6.28,1.19.53,1.79.75l-.43,2.82a.81.81,0,0,0,.18.65.82.82,0,0,0,.62.28h11.61a.81.81,0,0,0,.8-.93l-.43-2.82c.59-.22,1.19-.47,1.79-.75l1.69,2.3a.75.75,0,0,0,.59.33.77.77,0,0,0,.63-.23l8.22-8.21a.82.82,0,0,0-.1-1.23L873,680.75c.29-.6.54-1.19.76-1.79l2.81.43a.82.82,0,0,0,.66-.18.86.86,0,0,0,.28-.62V667A.82.82,0,0,0,877.22,666.37Zm-20.92,17a10.61,10.61,0,1,1,10.61-10.6A10.61,10.61,0,0,1,856.3,683.39Z"/></g><polygon class="az" points="539.13 800.41 506.55 790.76 506.55 745.04 539.13 754.69 539.13 800.41"/><polygon class="ba" points="539.21 800.41 571.79 790.76 571.79 745.04 539.21 754.69 539.21 800.41"/><polygon class="bb" points="539.17 735.28 506.59 744.93 539.21 754.69 571.79 745.04 539.17 735.28"/><polygon class="i" points="539.17 735.28 506.59 744.93 506.55 790.76 539.21 800.41 571.79 790.76 571.79 745.04 539.17 735.28"/><g class="t"><path class="b" d="M549.85,759.92H527.27a5,5,0,0,0-5,5v20.8a5,5,0,0,0,5,5h22.58a5,5,0,0,0,5-5v-20.8A5,5,0,0,0,549.85,759.92Zm-9,13L542,784.83h-5.58l1.09-11.94a4.29,4.29,0,1,1,3.4,0Z"/><path class="x" d="M549.69,763v-9.37a11.13,11.13,0,0,0-11.13-11.13h0a11.13,11.13,0,0,0-11.13,11.13v.63"/></g><line class="i" x1="538.88" y1="734.99" x2="538.88" y2="695.99"/></g></svg>