<svg xmlns="http://www.w3.org/2000/svg" viewBox="0 0 1773 531"><defs><style>.a,.b{fill:#fff;}.b{stroke:#fff;stroke-miterlimit:10;stroke-width:7px;}</style></defs><path class="a" d="M580.22,174.19v1.49c-2.45.3-4.2.54-5.26.75a8.53,8.53,0,0,0-3.5,1.8,10.67,10.67,0,0,0-3.73,4.29,25.64,25.64,0,0,0-.92,7,2.51,2.51,0,0,0,0,1.58L571.28,287a20.61,20.61,0,0,0,2.89,10.43q2.73,4.38,11.84,4.47v1.4H544.2v-1.4q8.24-.87,11.13-4.77T557.79,285l-4.47-99.22H553L507.39,303.29,464.27,190.06h-.35l-4.65,91.5q-.34,7.53.92,11.7a10.3,10.3,0,0,0,4.08,6,22.09,22.09,0,0,0,8.32,2.67v1.4H440.08v-1.4q6.23-.09,9.46-3a13.51,13.51,0,0,0,4.25-7.23,78.2,78.2,0,0,0,1.54-11.87l5.17-94.66a4.21,4.21,0,0,0-1.05-1.88,19.71,19.71,0,0,0-2.59-2.72,17.37,17.37,0,0,0-2.93-2.15,14.1,14.1,0,0,0-5.17-2.15c-1.47-.2-3.51-.39-6.14-.57v-1.49h30l40,105.62,40.58-105.62Z"/><path class="a" d="M735.88,238.88a66.56,66.56,0,0,1-9,33.74,68,68,0,0,1-24.5,24.85A65.86,65.86,0,0,1,668,306.71a68.15,68.15,0,0,1-68.62-68.36,66.61,66.61,0,0,1,20.46-48.47A70.06,70.06,0,0,1,642,175.51a68.35,68.35,0,0,1,73.18,13.85,66.46,66.46,0,0,1,15.21,21.82A68.37,68.37,0,0,1,735.88,238.88Zm-15.42.35q0-25.77-9.12-40.32t-21-19.5a58.6,58.6,0,0,0-22.43-4.95A57.94,57.94,0,0,0,651,177.13a47.72,47.72,0,0,0-17,9.77q-8.29,7.09-13.63,20t-5.35,31.81q0,16.65,4.43,29.05T631.54,288a47,47,0,0,0,17.09,11.31,55,55,0,0,0,37.69.26,46.83,46.83,0,0,0,16.91-10.43q7.66-7.23,12.45-19.63T720.46,239.23Z"/><path class="a" d="M891.19,238.88a66.47,66.47,0,0,1-9,33.74,68,68,0,0,1-24.49,24.85,65.91,65.91,0,0,1-34.36,9.24,68.15,68.15,0,0,1-68.63-68.36,66.56,66.56,0,0,1,20.47-48.47,69.94,69.94,0,0,1,22.09-14.37,68.37,68.37,0,0,1,73.18,13.85,66.76,66.76,0,0,1,15.21,21.82A68.37,68.37,0,0,1,891.19,238.88Zm-15.43.35q0-25.77-9.11-40.32t-21-19.5a58.61,58.61,0,0,0-22.44-4.95,57.93,57.93,0,0,0-16.91,2.67,47.76,47.76,0,0,0-17,9.77q-8.28,7.09-13.63,20t-5.34,31.81q0,16.65,4.42,29.05T786.85,288a46.89,46.89,0,0,0,17.09,11.31,55,55,0,0,0,37.68.26,46.79,46.79,0,0,0,16.92-10.43q7.66-7.23,12.44-19.63T875.76,239.23Z"/><path class="a" d="M908.63,176h-1.76v-1.84h44.7q10.78,0,18.28,3.33A30.8,30.8,0,0,1,981.5,186a32.59,32.59,0,0,1,6,10.83,37,37,0,0,1,1.8,11.21,32.07,32.07,0,0,1-2.94,13.46,28.86,28.86,0,0,1-9,11.08,35,35,0,0,1-15.21,6.32v.35q11.56,5.61,21.39,22.26l11.65,19.72Q1003,294.44,1007.8,298a19,19,0,0,0,9.42,3.94v1.4H993.73c-1-1.28-1.93-2.52-2.8-3.72l-2.81-3.81c-.58-.88-1.45-2.21-2.58-4a31.69,31.69,0,0,0-2.06-3l-15.43-25.51a64.75,64.75,0,0,0-9.51-12.66,36.27,36.27,0,0,0-9.07-7,26.42,26.42,0,0,0-7.58-2.63,52.29,52.29,0,0,0-7.93-.53v47.24q0,13.77,14,14.2v1.4H906.87v-1.4a19.6,19.6,0,0,0,6.84-1.44,10.88,10.88,0,0,0,4.95-4.39,15.43,15.43,0,0,0,2-8.37V190.06q0-7.71-3.76-10.87A12.6,12.6,0,0,0,908.63,176ZM934,237h7.36q11.56,0,19-3.34A21.84,21.84,0,0,0,971,224.19q3.33-6.16,3.33-15.11a37.57,37.57,0,0,0-3-14.6,27.08,27.08,0,0,0-10.12-12q-7.14-4.87-19.24-4.87a33.84,33.84,0,0,0-8.06.79Z"/><path class="a" d="M1073.05,303.29h-48.29v-1.4h1.75a11.55,11.55,0,0,0,8.46-3.55q3.54-3.54,3.55-10.65V190.23q0-6.91-3.29-10.73a11.13,11.13,0,0,0-8.9-3.82h-1.57v-1.49h42.15a47.09,47.09,0,0,1,15.34,2.41,35.2,35.2,0,0,1,11.88,6.67,30.42,30.42,0,0,1,7.49,9.64,26.35,26.35,0,0,1,2.63,11.7q0,11.65-7.54,18.93t-20.24,10.69v.35a94.3,94.3,0,0,1,11.13,1.84,41.77,41.77,0,0,1,9.64,3.42,35.45,35.45,0,0,1,8.06,5.7,34.07,34.07,0,0,1,5.79,6.92,31.09,31.09,0,0,1,3.59,8.2,33.69,33.69,0,0,1,1.23,9.07,29,29,0,0,1-5.22,17.35,37.58,37.58,0,0,1-11.79,11Q1089.53,303.29,1073.05,303.29Zm-21.21-69.85h8.41c6.9,0,11.8-.7,14.73-2.1a32.53,32.53,0,0,0,5.83-3.86,24.56,24.56,0,0,0,5.78-7.71,27.05,27.05,0,0,0,2.76-12.71,32.73,32.73,0,0,0-1.84-11,28.42,28.42,0,0,0-5.35-9.25,25.24,25.24,0,0,0-8.32-6.31,24.45,24.45,0,0,0-10.52-2.27,41.05,41.05,0,0,0-11.48,1.92Zm13.23,3.95h-13.23v46.53a27.9,27.9,0,0,0,.92,7.76c.61,2.08,2.29,3.87,5,5.39s7,2.28,12.71,2.28q17.79,0,25.33-11.83A33.55,33.55,0,0,0,1101,269.2a33.18,33.18,0,0,0-2.59-13.32,27.83,27.83,0,0,0-7.1-9.95,32.33,32.33,0,0,0-11.35-6.27A47.07,47.07,0,0,0,1065.07,237.39Z"/><path class="a" d="M1129.23,176h-1.75v-1.84h44.7q10.77,0,18.27,3.33a30.84,30.84,0,0,1,11.66,8.46,33,33,0,0,1,6,10.83,37.31,37.31,0,0,1,1.79,11.21,32.22,32.22,0,0,1-2.93,13.46,29,29,0,0,1-9,11.08,35,35,0,0,1-15.21,6.32v.35q11.58,5.61,21.39,22.26l11.66,19.72q7.88,13.23,12.66,16.74a19,19,0,0,0,9.42,3.94v1.4h-23.49c-1-1.28-1.93-2.52-2.8-3.72s-1.81-2.47-2.81-3.81q-.87-1.32-2.58-4a31.69,31.69,0,0,0-2.06-3l-15.43-25.51a64,64,0,0,0-9.51-12.66,36.09,36.09,0,0,0-9.07-7,26.42,26.42,0,0,0-7.58-2.63,52.19,52.19,0,0,0-7.93-.53v47.24q0,13.77,14,14.2v1.4h-41.1v-1.4a19.54,19.54,0,0,0,6.83-1.44,11,11,0,0,0,5-4.39,15.52,15.52,0,0,0,2-8.37V190.06q0-7.71-3.77-10.87A12.58,12.58,0,0,0,1129.23,176Zm25.33,61h7.36q11.57,0,19-3.34a21.86,21.86,0,0,0,10.73-9.51Q1195,218,1195,209.08a37.57,37.57,0,0,0-3-14.6,27,27,0,0,0-10.12-12q-7.14-4.87-19.24-4.87a33.84,33.84,0,0,0-8.06.79Z"/><path class="a" d="M1286.64,174.19v1.49a15.19,15.19,0,0,0-9.82,3.25q-4,3.24-4,10.78v98q0,7.46,4.3,10.83a15.06,15.06,0,0,0,9.55,3.37v1.4h-40.93v-1.4a14.93,14.93,0,0,0,9.68-3.28c2.72-2.2,4.08-5.83,4.08-10.92v-98q0-8.07-4.08-11.05a16,16,0,0,0-9.68-3v-1.49Z"/><path class="a" d="M1299.87,175.68v-1.49h49.7a96.27,96.27,0,0,1,19.24,1.8,81.39,81.39,0,0,1,15.77,4.78,66.39,66.39,0,0,1,12.05,6.53,55.84,55.84,0,0,1,8.59,7.23,64.47,64.47,0,0,1,10.43,13.63,63.62,63.62,0,0,1,6.44,15.82,68.06,68.06,0,0,1,2.15,17.17,65.77,65.77,0,0,1-2.1,16.83,59.33,59.33,0,0,1-6.05,14.77,60.62,60.62,0,0,1-9.42,12.31,67.57,67.57,0,0,1-12.75,10,60.17,60.17,0,0,1-14.29,6q-8.07,2.28-21.82,2.27h-57.94v-1.4h1.76q6,0,9-4.56a17.28,17.28,0,0,0,3-9.64V190.23A18.79,18.79,0,0,0,1312,182a10.55,10.55,0,0,0-4.34-4.82,12.37,12.37,0,0,0-6-1.49Zm27.09,4.65V282.61q0,7.54,2.41,11.09a11.36,11.36,0,0,0,7.49,4.6,79,79,0,0,0,14.9,1.05q14,0,23.66-2.76t18.67-12.31a53.92,53.92,0,0,0,10.7-17.36q4-10.25,4-24.8a81.92,81.92,0,0,0-3.25-22.75,60.32,60.32,0,0,0-9.9-20,51.33,51.33,0,0,0-19.15-15.52q-11.7-5.6-28.18-5.6A137.4,137.4,0,0,0,1327,180.33Z"/><path class="a" d="M1557.9,201h-1.4q-2.8-12.62-14.9-19.59a54.38,54.38,0,0,0-27.61-7,66.71,66.71,0,0,0-17.31,2.49,53,53,0,0,0-18,9.08q-8.76,6.57-14.55,19.06t-5.79,31.42q0,30.15,14.07,48.2t45.18,18.06q12.27,0,18.06-1.67t7.4-4.55a16,16,0,0,0,1.63-7.8V265.08q0-8.41-3.64-11.13t-10.91-3.59v-1.49h42v1.49a22.33,22.33,0,0,0-8.94,2.49,9.22,9.22,0,0,0-4.21,4.87,24.34,24.34,0,0,0-1,7.89v35.93a152.87,152.87,0,0,1-39.79,5.17,125.06,125.06,0,0,1-20.95-1.75,70.7,70.7,0,0,1-21.56-7.8,59.47,59.47,0,0,1-19.81-17.88,66.88,66.88,0,0,1-12.88-40.23,69.65,69.65,0,0,1,18.89-47.55,65.53,65.53,0,0,1,22.39-15.42,74,74,0,0,1,29.36-5.66,87.11,87.11,0,0,1,12.18.84q6,.83,17.8,3.37a34.63,34.63,0,0,0,6.66,1.05q4.29,0,6.31-4.29h1.4Z"/><path class="a" d="M1579.81,175.68v-1.49h77v20.34h-1.22q0-16.31-21.74-16.3h-26.91v58.63h23.67a32.58,32.58,0,0,0,12.53-2.28q5.52-2.28,6.31-10.43h1.32v29.27h-1.32a15.78,15.78,0,0,0-3-7.66,11.47,11.47,0,0,0-4.34-3.55,10.16,10.16,0,0,0-3.81-.88,39.91,39.91,0,0,0-6.57-.53h-24.81v45.84a19,19,0,0,0,2,8.94q2,3.76,9.15,3.77h19.2a27.73,27.73,0,0,0,11.39-2,17.21,17.21,0,0,0,7.06-5.6,33.68,33.68,0,0,0,4.34-8.68h1.22l-4.47,20.24h-77v-1.4h1.75a12.46,12.46,0,0,0,8.07-3.33q3.94-3.33,3.94-10.87V190.41a19.48,19.48,0,0,0-2.67-10.34q-2.67-4.38-9.34-4.39Z"/><path class="a" d="M1396.5,395.71c-3.47,11.69-12.11,20.54-27.7,20.54-21.18,0-32.35-16.86-32.35-37.61,0-19.91,11-38,32.45-38,15.91,0,25.28,8.85,27.71,21.17h-5.69c-3.37-9.58-9.59-15.91-22.34-15.91-18.33,0-26,16.75-26,32.66S1350.15,411,1369,411c12,0,18.12-6.21,21.8-15.27Z"/><path class="a" d="M1430.53,415.41V387.7a3.64,3.64,0,0,0-.42-1.69l-26.34-44.35h6.64c7.37,12.54,20.23,34.34,23.39,39.82,3.16-5.48,16.12-27.07,24-39.82h6.32l-27.5,44.77a3.28,3.28,0,0,0-.31,1.58v27.4Z"/><path class="a" d="M1474.36,341.66h25.71c14.11,0,21.7,7.48,21.7,18.12,0,8.74-5.27,14.43-11.38,16.12,5.27,1.47,14,6.64,14,18.22,0,14.75-11.06,21.29-23.91,21.29h-26.13Zm23.81,31.71c12.75,0,17.59-4.74,17.59-13.27,0-7.27-5-13.17-15.38-13.17h-20.44v26.44Zm-18.23,36.77h20.76c9.69,0,17.8-4.85,17.8-15.7,0-9.38-6-15.8-20.86-15.8h-17.7Z"/><path class="a" d="M1584.56,379.16H1547v31h41.19l-.84,5.27h-46V341.66h45.2v5.27H1547v27h37.61Z"/><path class="a" d="M1608.48,381v34.45h-5.8V341.66h26.45c14.53,0,22.22,7.8,22.22,19.38,0,9.38-5.58,15.49-13.8,17.28,7.59,1.79,12.65,6.74,12.65,19.28v2.85c0,5.16-.43,12.11.94,15h-5.79c-1.37-3.16-1-9.06-1-15.39v-1.89c0-12.12-3.59-17.17-17.7-17.17Zm0-5.27h17.8c13,0,19-4.85,19-14.54,0-9.06-5.9-14.22-17.38-14.22h-19.38Z"/><line class="b" x1="1283.33" y1="379.14" x2="436.72" y2="379.14"/><path class="a" d="M326.69,215.32c-25.06,16.66-47.64,31.32-69.78,46.61-6.4,4.43-10.92,5.08-17.74.43-20.88-14.22-42.36-27.58-63.64-41.23-2.74-1.76-5.64-3.26-9.51-5.48-.26,4.18-.6,7.06-.6,9.95,0,43.17.11,86.35-.16,129.52,0,6.88,1.73,10.88,8.31,14.07,22.43,10.87,44.36,22.77,66.8,33.6,3.77,1.83,9.94,2,13.64.14,22-10.94,43.54-22.87,65.44-34.06,5.24-2.68,7.35-5.86,7.12-11.73-.42-10.69-.12-21.4-.12-32.56H375c0,22.12.19,44-.27,65.79-.05,2.42-3.35,5.64-5.93,7q-57.92,31-116.14,61.38a12.58,12.58,0,0,1-10,0q-60-30.3-119.54-61.4c-2.82-1.47-5.91-5.8-5.92-8.82q-.47-129-.19-258a24,24,0,0,1,1-4c13.48,8.6,26.46,16.82,39.38,25.13,26.93,17.33,54,34.47,80.62,52.21,6.82,4.54,11.56,4.85,18.6.05,36.19-24.7,72.81-48.76,109.3-73,2.42-1.61,5-2.93,8.49-4.92v151H326.69Z"/></svg>