<svg xmlns="http://www.w3.org/2000/svg" viewBox="0 0 1293 1550"><defs><style>.a{fill:#172963;opacity:0.14;}</style></defs><path class="a" d="M952.92,488.42c-99,65.84-188.28,123.79-275.79,184.25-25.3,17.48-43.15,20.06-70.11,1.69-82.54-56.23-167.44-109-251.53-163-10.83-6.94-22.3-12.89-37.58-21.65-1,16.5-2.37,27.9-2.38,39.3-.13,170.65.44,341.3-.63,511.94-.17,27.19,6.84,43,32.85,55.6,88.64,43,175.31,90,264,132.81,14.91,7.21,39.3,7.79,53.9.54,87-43.26,172.1-90.37,258.65-134.6,20.73-10.59,29.05-23.18,28.14-46.38-1.65-42.24-.47-84.58-.47-128.69h191.84c0,87.44.76,173.76-1.06,260-.2,9.58-13.25,22.28-23.45,27.73q-228.85,122.52-459,242.6c-10.53,5.48-28.75,5.44-39.4,0Q383.9,1330.94,148.48,1208c-11.17-5.83-23.38-23-23.42-34.86q-1.8-509.93-.75-1019.87c0-3.6,1.67-7.19,3.84-16,53.27,34,104.58,66.46,155.65,99.32C390.22,305.11,497.11,372.88,602.43,443c27,17.94,45.7,19.16,73.54.17,143-97.6,287.76-192.71,432-288.54,9.56-6.35,19.87-11.58,33.54-19.47v596.7H952.92Z"/></svg>