<svg xmlns="http://www.w3.org/2000/svg" viewBox="0 0 925 962"><defs><style>.a{isolation:isolate;}.b{fill:#ffb491;}.c{fill:#ffceb7;}.c,.k,.l{opacity:0.5;}.c,.l{mix-blend-mode:multiply;}.d{fill:#b46037;}.e{fill:#fff;}.f{fill:#002644;}.g{fill:#005374;}.h{fill:#d2dfee;}.i{fill:#359acb;}.j{fill:#172963;}.k{mix-blend-mode:soft-light;}.l{fill:#90c5ec;}.m{fill:#1c5ab5;}.n{fill:#ffd7be;}</style></defs><g class="a"><path class="b" d="M726.51,565.57c.13,5.79-7.74,13.51-11,19.1A17.52,17.52,0,0,0,714,588.6s0,0,0,.07c-2,7.13-3.69,19.8-7.55,27.3,0,0,0,.07,0,.09a16.88,16.88,0,0,1-2.23,3.34s-.05,2.56-.42,6.57c-.91,10.15-3.81,29.54-12.94,40.25-12.24,14.34-69.23,42.88-69.23,42.88s2.73,9.5-5.41,16.12l2.85,5c1.77,3.11,4.36,7.62,7.7,13.34q2.7,4.65,6,10.39c.5.85,1,1.72,1.52,2.58a1.09,1.09,0,0,0,.06.11c.11.2.22.39.35.59.34.63.73,1.28,1.1,1.93,5.34,9.06,11.65,19.73,18.85,31.73l.07.11c1.25,2.12,2.56,4.27,3.86,6.46,9.47,15.72,20.28,33.47,32.2,52.7a337.13,337.13,0,0,1-66.45,46.31q-13.05,7-26.79,12.8C591,897.9,580.29,878.69,569,855.52c-8.22-16.8-16.77-35.67-24.27-55.06-.29-.7-.55-1.37-.81-2.06-.67-1.76-1.34-3.54-2-5.32-1.33-3.55-2.61-7.13-3.82-10.71-2.1-6.07-4-12.15-5.79-18.2-9.89-33.88-14.1-66.54-5.47-90a106.92,106.92,0,0,1,11-21.34,176.3,176.3,0,0,1,17.85-22.71c16.39-17.94,33.31-30.76,36.28-34.42s7.2-17,10.52-28.59c.17-.65.37-1.28.54-1.93,1.93-6.83,3.52-12.79,4.32-15.48.58-2,1.17-4.38,1.71-7.09v0c.11-.45.2-.93.28-1.41v0c1.41-7.29,2.61-16.55,3.47-25.57,1.28-13.14,11.15-21.06,16.77-17.33-1.19-13.27,9.91-22.19,15.49-18.93,6.61-10.85,24-5.9,25.7,8a9,9,0,0,1,1.39-2c3.68-4.15,12.36-8.27,18.71,3.4,7.25,13.3,17.9,52.38,17.35,68.1,0,.24,0,.46,0,.68a4.7,4.7,0,0,1,0,.54,7.29,7.29,0,0,1,1-.52C716.3,554.16,726.36,557.65,726.51,565.57Z"/><path class="c" d="M621.61,709.1s2.73,9.5-5.41,16.12l2.85,5c1.77,3.11,4.36,7.62,7.7,13.34q2.7,4.65,6,10.39c.5.85,1,1.72,1.52,2.58a1.09,1.09,0,0,0,.06.11c.11.2.22.39.35.59.34.63.73,1.28,1.1,1.93,5.34,9.06,11.65,19.73,18.85,31.73l.07.11c1.25,2.12,2.56,4.27,3.86,6.46,9.47,15.72,20.28,33.47,32.2,52.7a337.13,337.13,0,0,1-66.45,46.31c-9.72-14.92-21.52-33-33.31-50.93-12.41-18.93-24.75-37.73-34.55-52.61l-1.15-1.74c-.68-1-1.33-2-2-3-2.56-3.93-4.92-7.51-7-10.65l-9.72-14.75c7.07-3.84,13.43-7.55,19.15-11.11,21.43-13.36,33.81-24.76,40.49-33.27.48-.6.94-1.21,1.37-1.8,5.23-7.17,6.14-12,5.12-13.9,12.43-1.71,76.73-36.76,82.42-41.29s14.09-18,18.58-35.4c-.91,10.15-3.81,29.54-12.94,40.25C678.6,680.56,621.61,709.1,621.61,709.1Z"/><path class="d" d="M668.17,490.2c-1.53,4.45-1.38,9.48-1.08,14.11a136.28,136.28,0,0,0,2.09,16c.56,3.09,1.47,6.17,1.93,9.26a2.68,2.68,0,0,1,.07.27s0,0,0,.05c0-.34-.17.65-.19.81a52.92,52.92,0,0,0-.4,5.77,78.89,78.89,0,0,0,.6,10.75,89.89,89.89,0,0,0,2.56,13.51l.11-.83c-3.39,6.38-5.09,13.56-6.13,20.67a92.35,92.35,0,0,0-1,11.39,1.09,1.09,0,0,0,2.17,0,90,90,0,0,1,2-16.92,54.43,54.43,0,0,1,4.47-13.38,2.62,2.62,0,0,0,.23-2.36c-.31-1.21-.58-2.43-.84-3.65a95.11,95.11,0,0,1-1.84-13,68,68,0,0,1-.11-8c.06-1.26.16-2.51.31-3.77a6.42,6.42,0,0,0,.12-1.69c-.22-1.56-.72-3.12-1-4.66-.68-3.22-1.27-6.44-1.77-9.69a105.86,105.86,0,0,1-1.31-12.93c-.12-3.7-.09-7.6,1.12-11.13.46-1.33-1.63-1.9-2.09-.58Z"/><path class="d" d="M644,481.35c-3,8.63-1.7,18.55.19,27.28.76,3.55,1.7,7.07,2.81,10.53.29.91.59,1.82.91,2.73a2.42,2.42,0,0,1,.19.51c-.07-.44-.1.13-.14.36-.09.64-.17,1.29-.24,1.94-1,9.58,1.16,19.51,3.87,28.66.42,1.44.88,2.87,1.36,4.29a7.22,7.22,0,0,1,.67,1.87c0-.24-.49.83-.53,1-.29.8-.57,1.61-.83,2.42-.5,1.52-1,3.05-1.4,4.58-.74,2.65-1.37,5.33-1.87,8-1,5.39-1.89,11.51-.79,17,.28,1.36,2.37.79,2.09-.58a5,5,0,0,1-.1-.68c-.1-.89-.16-1.78-.19-2.68a55.91,55.91,0,0,1,.67-10,92.92,92.92,0,0,1,4.08-16.27c.44-1.28,1.25-2.52.77-3.84-.36-1-.7-2-1-3-2.76-8.57-4.87-17.66-4.8-26.7,0-1.21.06-2.42.16-3.62a13.26,13.26,0,0,0,.35-3.23,9.85,9.85,0,0,0-.49-1.38q-1.41-4.15-2.49-8.42a87.39,87.39,0,0,1-2.6-15c-.38-5.08-.24-10.32,1.47-15.17.47-1.32-1.63-1.88-2.09-.57Z"/><path class="d" d="M628.68,500.48a57.4,57.4,0,0,0,.75,16.13q.48,2.83,1.2,5.63a9.71,9.71,0,0,1,.64,2.31c0-.51-.42.66-.27.29a7.78,7.78,0,0,0-.25.86c-.18.65-.35,1.3-.5,1.95-.33,1.39-.6,2.78-.81,4.18a69,69,0,0,0-.76,7.46,88.69,88.69,0,0,0,.36,13.34c.22,2.21.48,4.44.91,6.62,0-.28.07-.55.11-.83a79,79,0,0,0-5.66,22.22,90.13,90.13,0,0,0-.76,11.49,1.09,1.09,0,0,0,2.17,0,99.83,99.83,0,0,1,3-23.34c.53-2,1.15-4.08,1.87-6.07.44-1.21,1.51-2.82,1.38-4.1s-.46-2.8-.63-4.2c-.36-3-.57-6.13-.64-9.21a74.65,74.65,0,0,1,.67-12.14,55.11,55.11,0,0,1,1.29-6.36c.28-1,.81-2,.54-3.06-2-7.58-3.27-15.31-2.41-23.17.15-1.38-2-1.37-2.17,0Z"/><path class="d" d="M633.22,525.54a36.12,36.12,0,0,0,7.1-.75,1.08,1.08,0,0,0-.57-2.08,32.3,32.3,0,0,1-6.53.68,1.09,1.09,0,0,0-1.08,1.07,1.11,1.11,0,0,0,1.08,1.08Z"/><path class="d" d="M649.46,523.43a19.71,19.71,0,0,0,9.4-1.18,1.1,1.1,0,0,0,.75-1.32,1.09,1.09,0,0,0-1.33-.75,18.3,18.3,0,0,1-8.82,1.1,1.08,1.08,0,0,0-1.08,1.07,1.11,1.11,0,0,0,1.08,1.08Z"/><path class="d" d="M672.7,530.65a23.63,23.63,0,0,0,11.67-2.84c1.22-.65.14-2.51-1.08-1.85a21.46,21.46,0,0,1-10.59,2.53,1.08,1.08,0,0,0,0,2.16Z"/><path class="d" d="M654.67,560.53a12.11,12.11,0,0,0,10.77-.12c1.23-.64.15-2.49-1.08-1.86a9.8,9.8,0,0,1-8.6.12,1.11,1.11,0,0,0-1.47.39,1.08,1.08,0,0,0,.38,1.47Z"/><path class="d" d="M630.87,560.26a14.52,14.52,0,0,0,11.29,1c1.31-.43.75-2.51-.57-2.08a12.29,12.29,0,0,1-9.63-.83c-1.22-.66-2.31,1.2-1.09,1.86Z"/><path class="d" d="M609.37,542.9a19.76,19.76,0,0,0,12,1.34,1.08,1.08,0,0,0,.75-1.32,1.1,1.1,0,0,0-1.32-.76A17.23,17.23,0,0,1,610.45,541a1.1,1.1,0,0,0-1.47.38,1.09,1.09,0,0,0,.39,1.48Z"/><path class="d" d="M602.48,567.12a13.41,13.41,0,0,0,10.57,2.34,1.08,1.08,0,1,0-.57-2.08,11.29,11.29,0,0,1-8.91-2.12,1.08,1.08,0,0,0-1.47.39,1.11,1.11,0,0,0,.38,1.47Z"/><path class="d" d="M674.85,561.74a18,18,0,0,0,11.5.47,1.08,1.08,0,0,0-.58-2.07,16,16,0,0,1-10.35-.47,1.08,1.08,0,0,0-1.32.75,1.1,1.1,0,0,0,.75,1.32Z"/><path class="d" d="M670.05,592a13.71,13.71,0,0,0-6.52.94,1.09,1.09,0,0,0-.75,1.32,1.08,1.08,0,0,0,1.32.75,13,13,0,0,1,3-.82h0l.23,0,.34,0c.26,0,.52,0,.79,0a14.09,14.09,0,0,1,1.59.06,1.06,1.06,0,0,0,1.07-1.07,1.11,1.11,0,0,0-1.07-1.08Z"/><path class="d" d="M652.18,592.52a10.51,10.51,0,0,0-7.27.25,1.11,1.11,0,0,0-.75,1.32,1.08,1.08,0,0,0,1.32.75,8.56,8.56,0,0,1,3-.69h.82l.4,0,.23,0h0a9.24,9.24,0,0,1,1.63.4,1.08,1.08,0,0,0,1.32-.75,1.1,1.1,0,0,0-.75-1.33Z"/><path class="d" d="M628.34,592.38a12.06,12.06,0,0,0-7.56.83,1.08,1.08,0,0,0-.39,1.47,1.11,1.11,0,0,0,1.48.39,10,10,0,0,1,1.41-.49,9.27,9.27,0,0,1,1.41-.27,9.78,9.78,0,0,1,3.08.15,1.08,1.08,0,0,0,.57-2.08Z"/><path class="d" d="M609.69,721a112.61,112.61,0,0,0-67.51-7.39c-1.36.27-.78,2.35.57,2.08a110.88,110.88,0,0,1,51.81,2.12,107.89,107.89,0,0,1,14.05,5c1.25.55,2.35-1.31,1.08-1.86Z"/><path class="d" d="M572.25,717.94a123.93,123.93,0,0,0-31.13,1.54c-1.36.24-.78,2.31.58,2.08a121.66,121.66,0,0,1,30.55-1.47c1.38.11,1.37-2,0-2.15Z"/><path class="e" d="M638.94,751.26l-14.06-21.53c-42.87,1.88-105.14,42-105.14,42l12.69,25.46Z"/><path class="f" d="M707,834.72c-4,4.13-8.17,8.12-12.43,12-.52.5-1.06,1-1.6,1.48-.72.62-1.41,1.27-2.13,1.9a337.13,337.13,0,0,1-66.45,46.31q-13.05,7-26.79,12.8c-5,2.12-10.1,4.14-15.26,6l-27.12-54.66-33.42-67.34s2.19-1.72,6.44-4.58c2.56-1.71,5.84-3.86,9.85-6.33,2.49-1.52,5.27-3.17,8.31-4.88a381.33,381.33,0,0,1,80.38-34c2-.58,4-1.15,6-1.71,1.87-.52,3.76-1,5.66-1.54l32.39,44.61Z"/><path class="g" d="M643,755.42a216,216,0,0,0-40.1,12,324.62,324.62,0,0,0-40.35,19.43c-7.26,4.12-14.37,8.52-21.27,13.23-1.14.77-.06,2.64,1.09,1.85,24.31-16.56,51.25-30.13,79.34-38.94a187.05,187.05,0,0,1,21.86-5.54c1.36-.25.78-2.33-.57-2.07Z"/><path class="g" d="M694.54,846.74c-.52.5-1.06,1-1.6,1.48q-16.89-25.38-33.83-50.74a3.62,3.62,0,0,1-.22-.32c-1.39-2.06-2.76-4.14-4.14-6.2l-.07-.11-20.86-31.23c-.42-.63-.85-1.28-1.28-1.91-.63-1-1.26-1.91-1.91-2.87-1.89-2.81-3.78-5.66-5.66-8.48-.76-1.14,1.1-2.23,1.86-1.08,1.93,2.91,3.88,5.79,5.82,8.7.56.84,1.1,1.67,1.67,2.51a1.09,1.09,0,0,0,.06.11l.39.59c.43.63.85,1.26,1.28,1.88l10,15,14.38,21.54q9.88,14.8,19.76,29.58Q687.37,836,694.54,846.74Z"/><path class="g" d="M629.29,776.29c3,4.57,7.42,7,9.9,5.35s2.07-6.64-.92-11.22-7.43-7-9.91-5.36S626.3,771.71,629.29,776.29Z"/><path class="g" d="M617.67,781.08c2,3,5,4.65,6.61,3.57s1.37-4.43-.62-7.48-4.95-4.66-6.6-3.58S615.68,778,617.67,781.08Z"/><path class="b" d="M477.82,927.09a276.16,276.16,0,0,1-30.21-1.62c-21.6-2.23-51.5-7.45-78.43-19.65,15.44-90.63,23.53-154.61,23.53-154.61a16,16,0,0,1-11.12-12.87s-63.56-4.81-80.31-13.45c-12.51-6.45-22.56-23.29-27.24-32.33-1.86-3.58-2.88-5.93-2.88-5.93-9-4.46-18.5-23.92-23.62-27.85s-15.36-8.1-17.44-13.5c-3-7.73,5.93-15.1,14.22-14-6.7-13.26-12-55.26-10.29-70.7s14.51-12.12,18.09-8.92c-3.76-13.52,10.5-24.72,20.73-17.17,3.93-5.12,17.59-1.09,21.49,11.64,3.8-5.57,15.93-2,22.1,9.69s13.14,23.53,18,29.49,24.65,32.89,31.68,36.75,61.6,16.93,90,47.94C510.44,729.48,477.82,927.09,477.82,927.09Z"/><path class="c" d="M447.61,925.47c-21.6-2.23-51.5-7.45-78.43-19.65,15.44-90.63,23.53-154.61,23.53-154.61a16,16,0,0,1-11.12-12.87s-63.56-4.81-80.31-13.45c-12.51-6.45-22.56-23.29-27.24-32.33,10.74,14.4,23.66,23.66,30.62,25.7s79.77,10.1,91.91,7c-.6,5.36,17.27,23.3,84,30.53C480.55,755.78,458,870.55,447.61,925.47Z"/><path class="d" d="M253.91,554.85a28.85,28.85,0,0,1,4.74,8.63,99.64,99.64,0,0,1,3.55,11.32c1.39,5.43,2.35,10.91,3.38,16.41a8.56,8.56,0,0,0,1.19,2.5A57.32,57.32,0,0,1,270,601,90.86,90.86,0,0,1,273.73,614c.46,2.18.82,4.92,1.19,6.79a1.75,1.75,0,0,0,.75,1.22c.91.77,1.77,1.58,2.6,2.43a54.52,54.52,0,0,1,4.8,5.6A88,88,0,0,1,293.51,648c.55,1.28,2.42.17,1.88-1.1a90.19,90.19,0,0,0-5.23-10c-3.62-6.11-7.88-12.11-13.38-16.68l.32.77a97.09,97.09,0,0,0-4.78-20c-.61-1.69-1.29-3.37-2-5s-1.74-3.13-2.44-4.74a9.14,9.14,0,0,1-.42-2.13q-.45-2.64-1-5.27a150.68,150.68,0,0,0-3.81-15.41c-1.62-5.22-3.54-10.9-7.2-15.08-.92-1-2.45.49-1.53,1.54Z"/><path class="d" d="M272.92,537.49c5.93,6.63,8.26,16.17,9.75,24.71q.87,5.07,1.28,10.19c.07.93.14,1.87.18,2.8a4.69,4.69,0,0,0,.89,2.31c4.75,8.26,6.58,18.23,7.57,27.6.25,2.3.27,4.64.52,6.94a1.75,1.75,0,0,0,.33.94c1,1.44,2.42,2.7,3.55,4.06,2,2.36,3.84,4.81,5.57,7.36a64.71,64.71,0,0,1,6.62,12,25.32,25.32,0,0,1,1.49,4.56c.26,1.37,2.35.79,2.09-.58a34.25,34.25,0,0,0-3.13-8.22A89.81,89.81,0,0,0,295,611.45l.32.77a98.14,98.14,0,0,0-.9-10.27,82.58,82.58,0,0,0-4.91-20.14,45.48,45.48,0,0,0-2.25-4.79,7.89,7.89,0,0,0-.61-1.06c-.11-.16-.45-.64-.3-.2a1.38,1.38,0,0,1,0-.29c-.15-1.26-.15-2.56-.26-3.83a106.08,106.08,0,0,0-2.63-16.43c-1.69-6.84-4.2-13.92-9-19.25-.94-1-2.47.49-1.54,1.53Z"/><path class="d" d="M294,548.92A59.45,59.45,0,0,1,300.4,570a11.85,11.85,0,0,0,.16,1.46,8.26,8.26,0,0,0,1.66,2.31c.62.81,1.21,1.65,1.77,2.5a67.11,67.11,0,0,1,5.71,10.63,86.82,86.82,0,0,1,5.08,15.48,5.36,5.36,0,0,0,.23,1,10.44,10.44,0,0,0,2,2.12c.72.76,1.42,1.54,2.09,2.33a79.33,79.33,0,0,1,7.21,10.08,107.17,107.17,0,0,1,5.24,9.66c.63,1.32,1.36,2.89,1.8,4,.51,1.28,2.61.72,2.09-.58a92.94,92.94,0,0,0-12.17-21.39q-1.46-1.94-3-3.77c-.46-.52-.92-1-1.4-1.55-.28-.31-.57-.61-.86-.91-.09-.09-1.12-1.06-.9-.69a8.85,8.85,0,0,1-.47-2,90.83,90.83,0,0,0-3.91-12.14,65.05,65.05,0,0,0-10.28-17.89c.11.25.22.51.32.76a60.44,60.44,0,0,0-6.8-23.52c-.66-1.23-2.54-.14-1.87,1.09Z"/><path class="d" d="M300.58,570.84a34,34,0,0,1-6.58,1.92,1.08,1.08,0,0,0-.75,1.32,1.11,1.11,0,0,0,1.33.76,34.85,34.85,0,0,0,6.57-1.92,1.1,1.1,0,0,0,.75-1.33,1.08,1.08,0,0,0-1.32-.75Z"/><path class="d" d="M284.49,575.15a17.8,17.8,0,0,1-8.31,2.26,1.08,1.08,0,0,0,0,2.15,20.14,20.14,0,0,0,9.4-2.55c1.21-.68.13-2.53-1.09-1.86Z"/><path class="d" d="M265.72,590.64A21.48,21.48,0,0,1,255,592.22a1.09,1.09,0,0,0-1.08,1.08,1.11,1.11,0,0,0,1.08,1.08,23.77,23.77,0,0,0,11.86-1.88,1.08,1.08,0,0,0,.38-1.47,1.09,1.09,0,0,0-1.47-.39Z"/><path class="d" d="M293.07,612a9.93,9.93,0,0,1-8.25,3.24,1.08,1.08,0,0,0-1.07,1.08,1.09,1.09,0,0,0,1.07,1.07,12,12,0,0,0,9.77-3.87,1.07,1.07,0,0,0-1.52-1.52Z"/><path class="d" d="M315,602.69a12.32,12.32,0,0,1-8.56,4.53,1.1,1.1,0,0,0-1.08,1.07,1.09,1.09,0,0,0,1.08,1.08,14.43,14.43,0,0,0,10.08-5.16,1.1,1.1,0,0,0,0-1.52,1.08,1.08,0,0,0-1.52,0Z"/><path class="d" d="M328.31,578.48a17.45,17.45,0,0,1-9.44,5.11,1.08,1.08,0,1,0,.58,2.08A19.34,19.34,0,0,0,329.83,580c1-1-.56-2.53-1.52-1.52Z"/><path class="d" d="M343.69,598.5a11.19,11.19,0,0,1-7.52,5.26,1.1,1.1,0,0,0-.76,1.33,1.12,1.12,0,0,0,1.33.75,13.38,13.38,0,0,0,8.81-6.25,1.08,1.08,0,0,0-1.86-1.09Z"/><path class="d" d="M275.05,620.54a15.77,15.77,0,0,1-9.17,4.26,1.1,1.1,0,0,0-1.07,1.08,1.08,1.08,0,0,0,1.07,1.07,18.15,18.15,0,0,0,10.69-4.89c1-.95-.51-2.48-1.52-1.52Z"/><path class="d" d="M293.33,650.24l.68-.34.2-.09.05,0a2.85,2.85,0,0,1,.31-.12,10.32,10.32,0,0,1,1.46-.46c.25-.07.5-.12.75-.17l.32-.06.22,0h0a13.08,13.08,0,0,1,1.53-.09,1.08,1.08,0,0,0,0-2.16,14.3,14.3,0,0,0-6.65,1.68,1.08,1.08,0,0,0-.38,1.47,1.1,1.1,0,0,0,1.47.39Z"/><path class="d" d="M310.53,643.66l.32-.27c-.14.12.17-.12.2-.14.23-.16.46-.31.7-.45a7.24,7.24,0,0,1,.73-.38l.22-.1.34-.13a8.69,8.69,0,0,1,1.55-.42l.23,0,.41,0,.83,0a1.08,1.08,0,1,0,0-2.15,10.7,10.7,0,0,0-7.05,2.63,1.08,1.08,0,0,0,0,1.52,1.1,1.1,0,0,0,1.52,0Z"/><path class="d" d="M332.33,634.66a11.51,11.51,0,0,1,1.44-.84,9.65,9.65,0,0,1,1.4-.52l.75-.19.44-.08.22,0h0a10.25,10.25,0,0,1,1.66-.07,1.08,1.08,0,0,0,1.08-1.07,1.1,1.1,0,0,0-1.08-1.08,11.83,11.83,0,0,0-7,2,1.08,1.08,0,0,0,1.09,1.86Z"/><path class="d" d="M398.76,746.28a110.41,110.41,0,0,1,58.47-31.73c1.36-.26.79-2.34-.57-2.07a113.15,113.15,0,0,0-48.11,22.06,110.63,110.63,0,0,0-11.31,10.22c-1,1,.55,2.52,1.52,1.52Z"/><path class="d" d="M431.57,729.73a122,122,0,0,1,28.85-10.19c1.35-.29.78-2.37-.57-2.07a123.41,123.41,0,0,0-29.36,10.41c-1.24.62-.15,2.48,1.08,1.85Z"/><path class="e" d="M381.54,783.92l4.84-25.25c40.38-14.51,113.2-1,113.2-1L497.49,786Z"/><path class="f" d="M505.9,778.38l-6.84,95-4.42,61.32q-14.36,1.23-29,1.23A338.31,338.31,0,0,1,363,920.09c-.69-.22-1.36-.43-2.06-.67q-8.72-2.8-17.2-6.12l14.49-59.42,19.59-80.32c1.95-.26,3.88-.5,5.81-.71s4.16-.48,6.22-.7a381.76,381.76,0,0,1,87.26.94c3.47.45,6.66.91,9.54,1.36,4.64.76,8.5,1.5,11.52,2.13C503.21,777.64,505.9,778.38,505.9,778.38Z"/><path class="g" d="M379.74,791.42a214.26,214.26,0,0,1,41.29-4,322.39,322.39,0,0,1,44.78,2.71Q478,791.7,490,794.23c1.35.29,1.93-1.79.57-2.08A321,321,0,0,0,446,786a288.41,288.41,0,0,0-44.48.16,189.5,189.5,0,0,0-22.36,3.18c-1.36.28-.78,2.35.57,2.07Z"/><path class="g" d="M392.57,774.23c-.67,3.28-1.32,6.58-2,9.85-.24,1.13-.46,2.28-.7,3.41-.15.73-.3,1.49-.43,2.23q-1.89,9.24-3.75,18.48T382,826.42a.2.2,0,0,0,0,.11q-3.42,16.88-6.86,33.77c-.54,2.71-1.1,5.44-1.64,8.15q-5.21,25.83-10.46,51.64c-.69-.22-1.36-.43-2.06-.67q2.58-12.63,5.12-25.27,3.51-17.28,7-34.55,2.59-12.86,5.2-25.7,4.43-21.93,8.87-43.83c.15-.76.31-1.5.46-2.26.08-.43.17-.87.26-1.3.17-.82.32-1.63.5-2.45.69-3.47,1.41-6.94,2.1-10.41C390.77,772.3,392.85,772.87,392.57,774.23Z"/><path class="g" d="M400,803.42c-1,5.37-4.22,9.27-7.13,8.71s-4.43-5.36-3.4-10.73,4.22-9.27,7.13-8.71S401,798.05,400,803.42Z"/><ellipse class="g" cx="409" cy="802.78" rx="6.6" ry="3.58" transform="translate(-456.49 1053.11) rotate(-79.13)"/><path class="h" d="M558.51,271.94c-3.08-.86-6.18-1.71-9.3-2.49l0,0q-12.8-3.26-25.94-5.49a.15.15,0,0,0-.09,0c-5-.87-10-1.61-15.12-2.26h0c-9.06-1.12-18.26-1.9-27.54-2.29h-.05c-3.45-.16-7-.27-10.43-.31h0c-1.45,0-2.91,0-4.36,0a339.51,339.51,0,0,0-48.87,3.51h0c-5,.72-9.91,1.54-14.81,2.48l-.2,0C245.35,294.93,127.17,432.4,127.17,597.47c0,143.95,89.9,266.92,216.6,315.83q8.49,3.33,17.2,6.12c.7.24,1.37.45,2.06.67a338.31,338.31,0,0,0,102.59,15.83q14.67,0,29-1.23a336.22,336.22,0,0,0,87.67-19.41c5.16-1.91,10.23-3.93,15.26-6q13.74-5.81,26.79-12.8a337.13,337.13,0,0,0,66.45-46.31c.72-.63,1.41-1.28,2.13-1.9.54-.5,1.08-1,1.6-1.48,4.26-3.9,8.4-7.89,12.43-12a337.27,337.27,0,0,0,97.1-237.25C804.07,442.77,700.27,312.31,558.51,271.94ZM670.8,784.88c-3.37,3.67-6.81,7.27-10.35,10.76-.52.5-1,1-1.56,1.52-.09.09-.2.17-.28.26a277.37,277.37,0,0,1-67.56,48.08q-10.8,5.5-22.1,10c-4.54,1.83-9.11,3.52-13.76,5.1a276.48,276.48,0,0,1-56.13,12.75c-4.92.59-9.89,1.07-14.87,1.39q-9.21.62-18.57.61c-2.8,0-5.6,0-8.37-.13a277.3,277.3,0,0,1-80.62-14.42l-1.5-.52c-.67-.22-1.36-.46-2-.7q-7.52-2.67-14.84-5.72A278.16,278.16,0,0,1,187.74,597.47c0-127.36,85.7-234.71,202.55-267.55,0,0,0,0,0,0,7.55-2.11,15.25-3.91,23.05-5.4a280,280,0,0,1,52.23-4.91,276.75,276.75,0,0,1,168.76,57.09c1.74,1.34,3.45,2.69,5.16,4.06A277.9,277.9,0,0,1,670.8,784.88Z"/><path class="i" d="M676.44,615.38c-4.76,5.63-12.41,8.13-19.77,8.28s-14.37-.23-21.49-2.16c-103.75,48.07-225.45,51.33-333.63,14.28-8.56,4-17.39,8-26.81,8.25s-19.62-4-23.36-12.67c-2.29-5.27-1.86-11.38,0-16.84s5.36-10,8.43-14.88a233.76,233.76,0,0,1,17.52-162.83C302.5,387,346.63,347.07,398.49,326.47c-5.52-8.82-2.23-21.81,6.45-27.55a101.36,101.36,0,0,0,.09-11.56c-1.52-33.67-18.8-66.49-46.11-86.34-12.9-9.39-28.26-15-43.63-19.29a113.91,113.91,0,0,1,30.78-27.54,100.75,100.75,0,0,1,18.55-8.88c-.09-.18-.16-.38-.25-.56a1.29,1.29,0,0,0-.09-.16c-2.39-5.25-4.82-10.51-7.23-15.76a314.25,314.25,0,0,1,129.45-2.29h0l.81.16c1.79-5.47,7.2-9.17,12.83-10.38s11.49-.34,17.14.8c21.72,4.36,40.88,13.23,59.14,25.06q5.55,3.56,11,7.5A243.26,243.26,0,0,0,549,288.41c4.68,1.18,9.45,5.92,10.47,10.64,1.52,7-.36,12.08-3.45,15.8,48.79,16.67,85,60.39,102.5,108.92,8.76,24.3,13.14,50,14.71,76.05s.38,52.2-2,77.81c4.65,5.15,8.4,11.32,9.71,18.13S680.92,610.07,676.44,615.38Z"/><path class="j" d="M522.29,498c-.37-.54-.76-1.06-1.15-1.58q-6.24-8.07-20.64-16.09v-41.9a175.22,175.22,0,0,1,17.37,6.22l10.52-25.38a160.92,160.92,0,0,0-22.8-8c-1.67-.43-3.36-.8-5.09-1.15V395.35H489.11v13.28c-2.13-.13-4.25-.22-6.42-.22a87.12,87.12,0,0,0-10.06.59V395.35H461.22v15.9a46.24,46.24,0,0,0-16.79,8.85q-13.86,11.68-13.86,32.12a40.7,40.7,0,0,0,4.21,19,47.69,47.69,0,0,0,11.28,14.2,79.78,79.78,0,0,0,15.16,9.79v43.09c-2-.39-4-.84-6.05-1.39a179,179,0,0,1-26.38-9.78v30.32a89.86,89.86,0,0,0,26.12,8q3.09.5,6.31.78v13.6h11.41V566.67a95,95,0,0,0,16.48-1.41v14.49H500.5V562.23a49.32,49.32,0,0,0,13.64-7.55q15-12,15-32.86Q529.12,507.9,522.29,498Zm-49.66-61a26.83,26.83,0,0,1,9-1.36,62.86,62.86,0,0,1,7.46.45v38.48q-11.72-5.62-16.48-8.5Zm16.48,100a26,26,0,0,1-8.16,2.36,43.84,43.84,0,0,1-6.05.39c-.73,0-1.52,0-2.27-.08V500.74a148,148,0,0,1,14.55,7.81c.67.45,1.3.93,1.93,1.39Z"/><g class="k"><path class="e" d="M604.4,370.8c12.12,13,21.85,28.62,25.67,46,1.62,7.32,1.7,16.13-4,21-5.89,5-15.38,3.13-21.26-1.92s-9.14-12.41-12.68-19.32a181.07,181.07,0,0,0-32.86-45.16c-3.49-3.5-7.18-6.92-9.65-11.21-4.81-8.38-1.47-22.89,10.3-22,10.21.78,20.94,11.54,28.4,17.68A166,166,0,0,1,604.4,370.8Z"/><path class="e" d="M614.3,458.92a16.14,16.14,0,0,0,1.54,14.77,13.59,13.59,0,0,0,13.45,5.65c4.69-.95,8.53-4.71,10.24-9.17a21.6,21.6,0,0,0,.07-14.07c-1.63-5.25-7.16-13.11-13.77-10.49C621.51,447.33,615.89,454.79,614.3,458.92Z"/></g><path class="l" d="M587.46,149.68a244.31,244.31,0,0,0-37.57,109.78c-46.84,2.34-93.79,5.25-140.58,7.42a428.88,428.88,0,0,1,137-52.51,293,293,0,0,1,30.18-72.19Q582,145.74,587.46,149.68Z"/><path class="l" d="M676.44,615.38c-4.76,5.63-12.41,8.13-19.77,8.28s-14.37-.23-21.49-2.16c-103.75,48.07-225.45,51.33-333.63,14.28-8.56,4-17.39,8-26.81,8.25s-19.62-4-23.36-12.67c-2.29-5.27-1.86-11.38,0-16.84s5.36-10,8.43-14.88a233.76,233.76,0,0,1,17.52-162.83C302.5,387,346.63,347.07,398.49,326.47c-5.52-8.82-2.23-21.81,6.45-27.55a101.36,101.36,0,0,0,.09-11.56c23.77-1,48-.86,71.67-1.89a160.54,160.54,0,0,0-48.82,11.38c-7.21,2.91-14.87,7.11-17.31,14.5-3.12,9.52,6.42,20.67,16.32,19a192.11,192.11,0,0,0-94.94,188c.81,7.13,2.07,14.41,5.65,20.64s9.9,11.28,17.07,11.62c-11.76,16.68-7.9,40.89,4.72,56.94s32.08,25.24,51.67,31a215.62,215.62,0,0,0,136.71-5.22c25.45-9.68,44.59-25.27,58.66-48.59,5.05,8.5,17.26,10.54,26.38,6.66s15.56-12.15,20.55-20.71c12.07-20.75,17.75-44.7,19.73-68.63.07-.75.13-1.52.18-2.27,1.57,25.93.38,52.2-2,77.81,4.65,5.15,8.4,11.32,9.71,18.13S680.92,610.07,676.44,615.38Z"/><path class="j" d="M554.77,231c-45.79-3.85-91,11.52-134.91,25.15-6.84,2.12-14,4.51-18.83,9.78s-6.32,14.37-1.19,19.37c-4.19.73-7.62,5.47-8,9.7a10.09,10.09,0,0,0,6.24,10.1c48-20.11,99.7-25.39,151-16.7,7.05-1.22,9-7.81,9.51-12.84a18.43,18.43,0,0,0-4.65-14c4.31-3.8,7.7-8.93,8.39-14.64S558.62,231.33,554.77,231Z"/><path class="i" d="M484.53,285.07c-2.61.15-5.22.27-7.83.4C479.31,285.27,481.92,285.13,484.53,285.07Z"/><path class="l" d="M486.7,126.63a577.93,577.93,0,0,0-11.3,105.48c-3.88-21.14-7.79-42.41-15.23-62.57-6.66-18-16.35-35.3-30.08-48.63a310.82,310.82,0,0,1,56.41,5.63h0A1.4,1.4,0,0,0,486.7,126.63Z"/><path class="l" d="M389,211.63a203.53,203.53,0,0,0-42.9-57.44,100.75,100.75,0,0,1,18.55-8.88c-.09-.18-.16-.38-.25-.56C375.62,165.61,383.71,188.52,389,211.63Z"/><path class="m" d="M404,285.06a239.17,239.17,0,0,1,53.63-21,242.65,242.65,0,0,1,57.07-7.66,240.06,240.06,0,0,1,32.39,1.77c1.37.17,1.36-2,0-2.15a240.29,240.29,0,0,0-58.1,0,243.9,243.9,0,0,0-56.28,13.68,239.09,239.09,0,0,0-29.8,13.52c-1.22.66-.13,2.51,1.09,1.86Z"/><path class="m" d="M449.67,271.35a203.35,203.35,0,0,1,76.46-4.94,200.05,200.05,0,0,1,21.73,4c1.35.32,1.92-1.76.58-2.08a205.4,205.4,0,0,0-77.4-3.49,200.12,200.12,0,0,0-21.94,4.45,1.07,1.07,0,0,0,.57,2.07Z"/><path class="b" d="M318.84,701.16c-23.13-13.34-41.46-12.49-47.68-14.53s-15.83-20.89-22-25.84-19.75-11.37-20.44-18,7.3-13,15.9-11.9c30.91,4,44.86,22.16,68.37,25.55,31,4.45,63.72-17.73,94.39-7.32s30.23,27.44,30.23,27.44l-62.06,35.5Z"/><path class="d" d="M241.83,631.86c12.26.84,23.69,5.46,34.62,10.8,10.05,4.91,19.95,10.57,30.8,13.56,13.78,3.8,27.92,1.3,41.51-2.09,7.26-1.81,14.48-3.82,21.85-5.12a88.17,88.17,0,0,1,17.77-1.31,70.25,70.25,0,0,1,39,13.2c1.13.81,2.21-1.06,1.09-1.86a71.85,71.85,0,0,0-35.3-13.21c-12.7-1.15-25.07,1.19-37.35,4.3-14.4,3.65-29.48,8-44.4,4.88-11.06-2.29-21.11-7.88-31.12-12.86-12.15-6-24.72-11.51-38.43-12.45-1.38-.09-1.37,2.06,0,2.16Z"/><path class="n" d="M239.58,635.53c3.57-.52,19.42,3.06,20.67,7.84,1,3.92-5.87,13.1-9.8,13.34s-17.47-8.16-18-11.09C232,642.38,233.84,636.38,239.58,635.53Z"/><path class="d" d="M273.77,688.22c9.64,2,19.31,4,28.63,7.24a82.41,82.41,0,0,1,13.46,5.94c4.29,2.42,8.34,5.24,12.59,7.72a46.19,46.19,0,0,0,15,6c1.36.25,1.94-1.82.58-2.07-9.79-1.78-17.69-8.09-26.06-13s-17.9-8-27.36-10.37c-5.38-1.35-10.81-2.47-16.24-3.59-1.35-.28-1.93,1.79-.57,2.07Z"/><path class="d" d="M331.49,710.91a55.89,55.89,0,0,0,9.36,7.43c1.17.74,2.25-1.12,1.08-1.86a53,53,0,0,1-8.91-7.09,1.08,1.08,0,0,0-1.53,1.52Z"/><path class="d" d="M270.31,664.23a20.89,20.89,0,0,0-4.94,12.32c-.08,1.38,2.07,1.38,2.15,0a18.32,18.32,0,0,1,4.32-10.8,1.11,1.11,0,0,0,0-1.52,1.1,1.1,0,0,0-1.53,0Z"/><path class="b" d="M665.59,650.91c16.34-21.11,33.63-27.27,38.61-31.52s6.74-25.33,10.54-32.23,14-18,12.09-24.42-11.68-9.26-19.22-5c-27.11,15.39-33.12,37.51-53.59,49.55-26.95,15.86-65.69,7.75-90.13,29s-17.57,36.85-17.57,36.85l70.89,9.34Z"/><path class="d" d="M707.54,556.93c-11,5.39-19.7,13.86-27.62,23-7.29,8.42-14.12,17.61-23.19,24.23-11.78,8.62-26.45,11-40.57,13-7.68,1.07-15.4,2.08-22.91,4.06a86.12,86.12,0,0,0-15.39,5.68,72,72,0,0,0-29.72,26.72c-.74,1.17,1.12,2.25,1.86,1.08a69.58,69.58,0,0,1,26.69-24.81c11.42-6,23.88-8.39,36.53-10.17,14.28-2,29.26-3.83,41.72-11.7,9.3-5.88,16.32-14.55,23.35-22.85,8.76-10.33,18-20.28,30.34-26.35,1.24-.61.15-2.47-1.09-1.86Z"/><path class="n" d="M714.06,560.14c-3.5.87-16.81,10.19-16.16,15.09.53,4,10.4,9.89,14.13,8.63s13.07-14.17,12.41-17.07C723.71,563.58,719.69,558.74,714.06,560.14Z"/><path class="d" d="M701.19,620.08c-8.27,5.56-16.56,11.16-24,17.78a84.23,84.23,0,0,0-10.35,10.76c-2.94,3.72-5.55,7.69-8.4,11.48-3.24,4.31-6.87,8.4-11.45,11.32-1.17.74-.09,2.6,1.08,1.86,8.05-5.14,13.07-13.39,18.61-20.92,6-8.18,13.72-14.86,21.87-20.87,4.5-3.31,9.13-6.44,13.77-9.56,1.14-.77.06-2.63-1.09-1.85Z"/><path class="d" d="M655.65,663.77A54.43,54.43,0,0,1,650,674a1.07,1.07,0,0,0,.39,1.47,1.1,1.1,0,0,0,1.47-.39,54.35,54.35,0,0,0,5.7-10.18,1.11,1.11,0,0,0-.39-1.47,1.08,1.08,0,0,0-1.47.38Z"/><path class="d" d="M695.54,600.27a18.68,18.68,0,0,1,8.28,8.55,1.08,1.08,0,0,0,1.47.39,1.1,1.1,0,0,0,.39-1.47,20.56,20.56,0,0,0-9.06-9.33,1.08,1.08,0,0,0-1.08,1.86Z"/><rect class="h" x="435.34" y="308.59" width="60.56" height="577.76" transform="translate(558.85 -154.25) rotate(45)"/></g></svg>