<svg xmlns="http://www.w3.org/2000/svg" viewBox="0 0 1942 343"><defs><style>.a{fill:#172963;}</style></defs><path class="a" d="M220.07,107.18v2a15.93,15.93,0,0,0-9.7,4.89q-4,4.14-7.11,13.3l-27.89,81.48h-2.06l-27.89-83.26h-.27L116,208.83h-2.26L84.52,121.06a19.29,19.29,0,0,0-4.17-7.69,12.29,12.29,0,0,0-5-3.32,22.35,22.35,0,0,0-5.23-.89v-2h46.35v2a12.13,12.13,0,0,0-6.56,2.12,6.47,6.47,0,0,0-2.67,5.61,19.79,19.79,0,0,0,1.09,5.74l14.84,44.78h.34l18-51.34a14.34,14.34,0,0,0-2.91-4.24,7.94,7.94,0,0,0-3.72-2,35.13,35.13,0,0,0-5.68-.72v-2h45.32v2a16.63,16.63,0,0,0-6.32,1c-1.57.67-2.36,2.25-2.36,4.76a13.48,13.48,0,0,0,.31,2.83c.21.94.5,2.08.89,3.42s.6,2.06.65,2.15l14.7,44.1h.27l14-41.43a27.22,27.22,0,0,0,1.64-8.13q0-5.47-3-7a17.91,17.91,0,0,0-7.55-1.68v-2Z"/><path class="a" d="M246.59,169h33.3V148a13.72,13.72,0,0,0-1.43-6.53c-1-1.8-3.22-2.7-6.8-2.7h-.47v-1.39H304.3v1.39q-5.55,0-7.13,2.53a12.58,12.58,0,0,0-1.58,6.7v49.38a18.67,18.67,0,0,0,.43,4.19,6.27,6.27,0,0,0,2.25,3.4c1.21,1,3.06,1.51,5.55,1.51h.48v1.39H271.19v-1.39q5.6,0,7.15-2.49a12.32,12.32,0,0,0,1.55-6.61V173.66h-33.3v23.73a19,19,0,0,0,.43,4.24,6.1,6.1,0,0,0,2.25,3.37q1.81,1.49,5.55,1.49h.48v1.39H222.19v-1.39c3.69,0,6.07-.83,7.12-2.49a12.14,12.14,0,0,0,1.58-6.61V148a13.44,13.44,0,0,0-1.46-6.55c-1-1.79-3.22-2.68-6.77-2.68h-.47v-1.39H255.3v1.39q-5.46,0-7.08,2.51a12.18,12.18,0,0,0-1.63,6.72Z"/><path class="a" d="M385.07,137.39v1.39a17.86,17.86,0,0,0-9.33,3,33.07,33.07,0,0,0-8.33,8.87L354.4,170v27.37q0,4.7,1.89,6.9c1.26,1.46,3.53,2.2,6.82,2.2v1.39H330v-1.39q5.46,0,7.09-2.47a11.91,11.91,0,0,0,1.62-6.63V173.85l-21-27.8c-2.29-3.09-4.17-5.08-5.62-6a10.1,10.1,0,0,0-5.33-1.31v-1.39h34.69v1.39a14.14,14.14,0,0,0-4.31.67,2.44,2.44,0,0,0-1.58,2.58q0,1.77,2.73,5.55l13.11,18.66L362,150.64a13.86,13.86,0,0,0,2.73-7.46,4.15,4.15,0,0,0-1.37-3q-1.36-1.33-4.71-1.38v-1.39Z"/><path class="a" d="M530.33,141.77h-2.39a38.84,38.84,0,0,0-4.21-13,32.77,32.77,0,0,0-7.52-9.4,31.13,31.13,0,0,0-9.91-5.64,35.38,35.38,0,0,0-11.66-1.91,29.13,29.13,0,0,0-14.45,3.49,26.32,26.32,0,0,0-9.61,8.68,44.54,44.54,0,0,0-5.67,14.52,83.73,83.73,0,0,0-1.64,17q0,16.41,5.74,26.25t13.84,13.71a37,37,0,0,0,16,3.86q19,0,32.95-18.59V190a68.26,68.26,0,0,1-9.84,9.44,45.5,45.5,0,0,1-13.13,6.83,61.65,61.65,0,0,1-40.57-1.47,45.9,45.9,0,0,1-16.16-11.31,48.23,48.23,0,0,1-9.71-16.27,55.47,55.47,0,0,1-3.28-18.87,54.6,54.6,0,0,1,2.12-15.51,48,48,0,0,1,5.74-12.75,58.86,58.86,0,0,1,8.61-10.36,47.09,47.09,0,0,1,17.78-10.63,67.39,67.39,0,0,1,19.89-2.84,85.79,85.79,0,0,1,23,3.49,32,32,0,0,0,6.42,1c2.51,0,4.42-1.64,5.75-4.93h2Z"/><path class="a" d="M560.26,169h33.31V148a13.72,13.72,0,0,0-1.44-6.53c-1-1.8-3.22-2.7-6.79-2.7h-.48v-1.39H618v1.39q-5.55,0-7.13,2.53a12.58,12.58,0,0,0-1.58,6.7v49.38a19.27,19.27,0,0,0,.43,4.19,6.27,6.27,0,0,0,2.25,3.4c1.21,1,3.07,1.51,5.55,1.51H618v1.39H584.86v-1.39c3.73,0,6.12-.83,7.15-2.49a12.32,12.32,0,0,0,1.56-6.61V173.66H560.26v23.73a19.55,19.55,0,0,0,.43,4.24,6.1,6.1,0,0,0,2.25,3.37c1.21,1,3.07,1.49,5.55,1.49H569v1.39H535.86v-1.39q5.55,0,7.13-2.49a12.22,12.22,0,0,0,1.58-6.61V148a13.55,13.55,0,0,0-1.46-6.55c-1-1.79-3.23-2.68-6.77-2.68h-.48v-1.39H569v1.39c-3.63,0-6,.84-7.08,2.51a12.18,12.18,0,0,0-1.63,6.72Z"/><path class="a" d="M622.9,172.42a38.57,38.57,0,0,1,2.47-13.74,32.88,32.88,0,0,1,18.85-19.21,41,41,0,0,1,15.43-2.75,40.53,40.53,0,0,1,15.53,2.8A32.94,32.94,0,0,1,694,158.8a41,41,0,0,1,.07,27.68,33.93,33.93,0,0,1-7,11.44,32,32,0,0,1-11.56,7.85,41.07,41.07,0,0,1-15.76,2.87,39.49,39.49,0,0,1-16.54-3.23,32.43,32.43,0,0,1-11.53-8.54,35.82,35.82,0,0,1-6.63-11.73A39.87,39.87,0,0,1,622.9,172.42Zm16.75-.91a93.42,93.42,0,0,0,1.07,14.14,29,29,0,0,0,5.58,13q4.5,6.06,13.54,6.06,12.67,0,16.25-10.22a63,63,0,0,0,3.56-20.84,80,80,0,0,0-1.43-15.5,26.53,26.53,0,0,0-5.86-12.37q-4.44-5.14-12.52-5.15-9.09,0-13.56,5.87A27.67,27.67,0,0,0,640.72,159,78.86,78.86,0,0,0,639.65,171.51Z"/><path class="a" d="M703.58,172.42A38.78,38.78,0,0,1,706,158.68a32.86,32.86,0,0,1,18.86-19.21,41,41,0,0,1,15.43-2.75,40.57,40.57,0,0,1,15.53,2.8,32.94,32.94,0,0,1,18.78,19.28,41,41,0,0,1,.07,27.68,33.93,33.93,0,0,1-7,11.44,32,32,0,0,1-11.56,7.85,41.12,41.12,0,0,1-15.77,2.87,39.47,39.47,0,0,1-16.53-3.23,32.43,32.43,0,0,1-11.53-8.54,35.82,35.82,0,0,1-6.63-11.73A39.87,39.87,0,0,1,703.58,172.42Zm16.75-.91a93.42,93.42,0,0,0,1.07,14.14,29,29,0,0,0,5.58,13q4.5,6.06,13.54,6.06,12.68,0,16.25-10.22a63,63,0,0,0,3.56-20.84,79.19,79.19,0,0,0-1.44-15.5A26.43,26.43,0,0,0,753,145.79q-4.42-5.14-12.51-5.15-9.09,0-13.57,5.87A27.75,27.75,0,0,0,721.4,159,78.86,78.86,0,0,0,720.33,171.51Z"/><path class="a" d="M823.54,154.86h-1.86a22,22,0,0,0-6.08-10.41,14.43,14.43,0,0,0-10.1-3.81,11.94,11.94,0,0,0-5.33,1.18,9.23,9.23,0,0,0-3.83,3.35,9,9,0,0,0-1.41,5,9.57,9.57,0,0,0,.55,3.2,12.32,12.32,0,0,0,2.65,3.88,33.61,33.61,0,0,0,6.41,5.07q4.85,3,5.89,3.83a85.46,85.46,0,0,1,9.86,7,24.33,24.33,0,0,1,5.84,7,17.94,17.94,0,0,1,2,8.56,18.12,18.12,0,0,1-6.54,14.29,22.34,22.34,0,0,1-7.46,4.11,29.35,29.35,0,0,1-9.4,1.46,44.38,44.38,0,0,1-12.06-2c-.51-.13-1.16-.27-1.94-.43a10.54,10.54,0,0,0-2.08-.24,3.39,3.39,0,0,0-3.26,2.34h-1.67l.43-19.9H786a19.89,19.89,0,0,0,3.9,9.42,18.08,18.08,0,0,0,14.19,7.18,13,13,0,0,0,8.77-3,9.14,9.14,0,0,0,3.48-7.22,8.59,8.59,0,0,0-1.47-5,17.68,17.68,0,0,0-4.37-4.21q-2.92-2.09-11-7.25a68.44,68.44,0,0,1-7.25-5.36,28.21,28.21,0,0,1-4.66-4.95,15.94,15.94,0,0,1-2.37-4.74,18,18,0,0,1-.7-5,22.45,22.45,0,0,1,10.2-18.4,20,20,0,0,1,11.14-3.18,26.79,26.79,0,0,1,5.6.57,18,18,0,0,1,1.92.41c.8.21,1.47.38,2,.5a19,19,0,0,0,3.16.39,3.69,3.69,0,0,0,2.27-.53,5.36,5.36,0,0,0,1.22-1.53h1.48Z"/><path class="a" d="M882.83,137.39l.57,15.79H882a37.77,37.77,0,0,0-2.13-6.56,8.82,8.82,0,0,0-3.33-3.94,10.91,10.91,0,0,0-5.88-1.37H856.46v29.62H867.8c3.39,0,5.85-.75,7.4-2.25s2.45-3.71,2.7-6.65h1.39v20.68H877.9q-.72-4.69-3.49-6.27a13.07,13.07,0,0,0-6.61-1.58H856.46v20.29q0,8.81,9.1,8.8h4.3A18.58,18.58,0,0,0,877,202.8a9.86,9.86,0,0,0,4.54-3.94,29.74,29.74,0,0,0,3.23-7.92h1.39l-1,16.94H832v-1.39c3.7,0,6.1-.84,7.18-2.52a11.86,11.86,0,0,0,1.63-6.58V148a13.44,13.44,0,0,0-1.48-6.55q-1.49-2.69-6.85-2.68H832v-1.39Z"/><path class="a" d="M1793.43,127.48h-1.37q3-10.59,9.2-15.92a20.47,20.47,0,0,1,13.7-5.34,20.16,20.16,0,0,1,11.32,3.22,21.41,21.41,0,0,1,7.52,8.51,24.7,24.7,0,0,1,2.63,11.11q0,12.09-12.78,25.77l-8.07,8.82a34.19,34.19,0,0,0-5.2,7.34,14.4,14.4,0,0,0-1.84,6.19,8.73,8.73,0,0,0,.27,2.53h-1.5q-5.19-7.11-5.2-12.71a24.44,24.44,0,0,1,1.54-8.79,56.47,56.47,0,0,1,4.07-8.3,67.29,67.29,0,0,0,4.37-8.69,20.92,20.92,0,0,0,1.64-8,10.62,10.62,0,0,0-3.07-7.46,10,10,0,0,0-7.59-3.28,16,16,0,0,0-4.58.89A10.14,10.14,0,0,0,1793.43,127.48Zm18.19,59.41a10.59,10.59,0,0,1,7.86,3.28,11,11,0,0,1,0,15.52,11.08,11.08,0,0,1-18.94-7.73,10.8,10.8,0,0,1,3.18-7.83A10.62,10.62,0,0,1,1811.62,186.89Z"/><path class="a" d="M1621,222.67c-1.89,6.34-6.57,11.14-15,11.14-11.47,0-17.53-9.14-17.53-20.39,0-10.79,5.94-20.62,17.59-20.62,8.63,0,13.71,4.8,15,11.48h-3.08c-1.83-5.19-5.2-8.62-12.11-8.62-9.94,0-14.11,9.08-14.11,17.7S1595.82,231,1606,231c6.51,0,9.82-3.37,11.82-8.28Z"/><path class="a" d="M1639.39,233.35v-15a2,2,0,0,0-.22-.91l-14.28-24h3.6c4,6.8,11,18.62,12.67,21.59,1.72-3,8.74-14.68,13-21.59h3.42l-14.9,24.28a1.66,1.66,0,0,0-.17.85v14.85Z"/><path class="a" d="M1663.15,193.37h13.94c7.65,0,11.77,4.06,11.77,9.83,0,4.74-2.86,7.82-6.17,8.74a10.1,10.1,0,0,1,7.59,9.88c0,8-6,11.53-13,11.53h-14.17Zm12.91,17.2c6.91,0,9.54-2.57,9.54-7.2,0-3.94-2.74-7.14-8.34-7.14h-11.08v14.34Zm-9.88,19.93h11.25c5.26,0,9.66-2.63,9.66-8.51,0-5.09-3.26-8.57-11.31-8.57h-9.6Z"/><path class="a" d="M1722.9,213.71h-20.39V230.5h22.33l-.46,2.85h-25v-40h24.51v2.86h-21.42v14.62h20.39Z"/><path class="a" d="M1735.86,214.68v18.67h-3.14v-40h14.34c7.88,0,12,4.23,12,10.51a9.05,9.05,0,0,1-7.48,9.37c4.11,1,6.85,3.65,6.85,10.45v1.54c0,2.8-.23,6.57.51,8.11h-3.14c-.74-1.71-.57-4.91-.57-8.34v-1c0-6.57-1.94-9.31-9.59-9.31Zm0-2.86h9.66c7,0,10.28-2.63,10.28-7.88,0-4.91-3.2-7.71-9.43-7.71h-10.51Z"/><path class="a" d="M1184.39,102.28v.89c-1.46.18-2.5.33-3.13.45a5.13,5.13,0,0,0-2.09,1.07,6.39,6.39,0,0,0-2.23,2.56,15.37,15.37,0,0,0-.55,4.19,1.51,1.51,0,0,0,0,.94l2.67,57.2a12.25,12.25,0,0,0,1.73,6.22q1.62,2.63,7.06,2.67v.84H1162.9v-.84q4.92-.53,6.64-2.85c1.16-1.55,1.64-4,1.47-7.24l-2.67-59.19h-.21l-27.19,70.12-25.72-67.56H1115l-2.77,54.59a21.76,21.76,0,0,0,.54,7,6.16,6.16,0,0,0,2.44,3.56,13.34,13.34,0,0,0,5,1.59v.84h-19.4v-.84a8.39,8.39,0,0,0,5.65-1.78,8.1,8.1,0,0,0,2.54-4.31,47.9,47.9,0,0,0,.91-7.09l3.09-56.47a2.52,2.52,0,0,0-.63-1.12,12.1,12.1,0,0,0-1.54-1.62,11.12,11.12,0,0,0-1.75-1.29,8.6,8.6,0,0,0-3.09-1.28c-.87-.12-2.09-.23-3.66-.34v-.89h17.88l23.85,63,24.21-63Z"/><path class="a" d="M1277.26,140.87A39.72,39.72,0,0,1,1271.9,161a40.55,40.55,0,0,1-14.61,14.82,39.28,39.28,0,0,1-20.5,5.52,40.67,40.67,0,0,1-40.94-40.79,39.69,39.69,0,0,1,12.21-28.92,41.75,41.75,0,0,1,13.17-8.57,40.79,40.79,0,0,1,43.66,8.26,39.65,39.65,0,0,1,9.08,13A40.88,40.88,0,0,1,1277.26,140.87Zm-9.2.21q0-15.37-5.44-24.05t-12.55-11.63a35,35,0,0,0-13.39-3,34.35,34.35,0,0,0-10.09,1.6,28.43,28.43,0,0,0-10.17,5.83,31,31,0,0,0-8.13,11.92q-3.19,7.68-3.19,19a51.55,51.55,0,0,0,2.64,17.33,32.34,32.34,0,0,0,7.27,12.08,28,28,0,0,0,10.2,6.75,32.9,32.9,0,0,0,22.48.16,28,28,0,0,0,10.09-6.23,31.18,31.18,0,0,0,7.43-11.71Q1268.06,151.76,1268.06,141.08Z"/><path class="a" d="M1369.92,140.87a39.72,39.72,0,0,1-5.36,20.14,40.65,40.65,0,0,1-14.62,14.82,39.25,39.25,0,0,1-20.49,5.52,40.82,40.82,0,0,1-37.73-56.71,39.52,39.52,0,0,1,9-13,41.8,41.8,0,0,1,13.18-8.57,40.79,40.79,0,0,1,43.66,8.26,39.63,39.63,0,0,1,9.07,13A40.72,40.72,0,0,1,1369.92,140.87Zm-9.2.21q0-15.37-5.44-24.05t-12.55-11.63a35,35,0,0,0-13.39-3,34.3,34.3,0,0,0-10.09,1.6,28.27,28.27,0,0,0-10.17,5.83,30.79,30.79,0,0,0-8.13,11.92q-3.2,7.68-3.19,19a51.55,51.55,0,0,0,2.64,17.33,32.21,32.21,0,0,0,7.27,12.08,28,28,0,0,0,10.19,6.75,32.93,32.93,0,0,0,22.49.16,28,28,0,0,0,10.09-6.23,31.18,31.18,0,0,0,7.43-11.71A50.64,50.64,0,0,0,1360.72,141.08Z"/><path class="a" d="M1380.32,103.38h-1v-1.1H1406a26.87,26.87,0,0,1,10.9,2,18.34,18.34,0,0,1,7,5,19.57,19.57,0,0,1,3.56,6.46,22.24,22.24,0,0,1,1.07,6.69,19.06,19.06,0,0,1-1.75,8,17.32,17.32,0,0,1-5.39,6.62,20.81,20.81,0,0,1-9.07,3.76v.21q6.9,3.34,12.76,13.29l7,11.76q4.71,7.89,7.56,10a11.34,11.34,0,0,0,5.62,2.35v.84h-14c-.6-.77-1.15-1.51-1.68-2.22s-1.08-1.48-1.67-2.28c-.35-.52-.86-1.31-1.54-2.38a18.76,18.76,0,0,0-1.23-1.8l-9.2-15.22a38.73,38.73,0,0,0-5.68-7.56,21.62,21.62,0,0,0-5.41-4.15,15.66,15.66,0,0,0-4.52-1.57,31.14,31.14,0,0,0-4.73-.31V170q0,8.2,8.36,8.47v.84h-24.52v-.84a11.88,11.88,0,0,0,4.08-.86,6.54,6.54,0,0,0,3-2.62,9.17,9.17,0,0,0,1.18-5V111.75q0-4.6-2.25-6.48A7.49,7.49,0,0,0,1380.32,103.38Zm15.12,36.4h4.39a27.84,27.84,0,0,0,11.32-2,13,13,0,0,0,6.4-5.67,18.76,18.76,0,0,0,2-9,22.32,22.32,0,0,0-1.78-8.71,16.1,16.1,0,0,0-6-7.16q-4.26-2.91-11.47-2.91a20.47,20.47,0,0,0-4.81.47Z"/><path class="a" d="M1478.42,179.31h-28.81v-.84h1a6.91,6.91,0,0,0,5-2.12q2.11-2.11,2.12-6.35V111.85a9.53,9.53,0,0,0-2-6.4,6.65,6.65,0,0,0-5.31-2.28h-.94v-.89h25.15a28,28,0,0,1,9.15,1.44,21,21,0,0,1,7.08,4,18.1,18.1,0,0,1,4.47,5.75,15.64,15.64,0,0,1,1.57,7,15,15,0,0,1-4.49,11.29,27.17,27.17,0,0,1-12.08,6.38v.21a57.11,57.11,0,0,1,6.64,1.1,25.12,25.12,0,0,1,5.75,2,21,21,0,0,1,4.81,3.4,20.09,20.09,0,0,1,3.45,4.13,18.51,18.51,0,0,1,2.15,4.89,20.46,20.46,0,0,1,.73,5.41,17.31,17.31,0,0,1-3.11,10.35,22.5,22.5,0,0,1-7,6.59Q1488.25,179.31,1478.42,179.31Zm-12.66-41.68h5q6.18,0,8.79-1.25a20.21,20.21,0,0,0,3.48-2.3,14.74,14.74,0,0,0,3.45-4.6,16.15,16.15,0,0,0,1.64-7.59,19.63,19.63,0,0,0-1.09-6.56,17.23,17.23,0,0,0-3.19-5.52,15.15,15.15,0,0,0-5-3.76,14.46,14.46,0,0,0-6.28-1.36,24.34,24.34,0,0,0-6.85,1.15Zm7.9,2.36h-7.9v27.76a16.82,16.82,0,0,0,.55,4.63,5.73,5.73,0,0,0,3,3.21q2.46,1.36,7.58,1.36,10.62,0,15.11-7a21,21,0,0,0,1.55-18.88,16.64,16.64,0,0,0-4.24-5.94,19.22,19.22,0,0,0-6.77-3.73A27.85,27.85,0,0,0,1473.66,140Z"/><path class="a" d="M1535.62,102.28v.89a9,9,0,0,0-5.85,1.94q-2.41,1.94-2.41,6.43V170c0,3,.86,5.12,2.56,6.46a9,9,0,0,0,5.7,2v.84H1511.2v-.84a8.91,8.91,0,0,0,5.78-2q2.43-2,2.43-6.51V111.54c0-3.21-.81-5.4-2.43-6.59a9.56,9.56,0,0,0-5.78-1.78v-.89Z"/><path class="a" d="M1543.52,103.17v-.89h29.65a57,57,0,0,1,11.47,1.08,48,48,0,0,1,9.42,2.85,40.18,40.18,0,0,1,7.19,3.89,33.09,33.09,0,0,1,5.12,4.32A38.54,38.54,0,0,1,1616.44,132a41,41,0,0,1,1.28,10.24,39,39,0,0,1-1.26,10,35,35,0,0,1-3.61,8.81,35.72,35.72,0,0,1-5.62,7.35,40.58,40.58,0,0,1-7.6,6,35.79,35.79,0,0,1-8.53,3.56,50,50,0,0,1-13,1.36h-34.56v-.84h1a6,6,0,0,0,5.39-2.72,10.29,10.29,0,0,0,1.78-5.75V111.85a11.07,11.07,0,0,0-1-4.91,6.27,6.27,0,0,0-2.59-2.88,7.4,7.4,0,0,0-3.61-.89Zm16.16,2.77v61q0,4.5,1.43,6.61a6.81,6.81,0,0,0,4.48,2.75,47,47,0,0,0,8.88.62,52.3,52.3,0,0,0,14.12-1.64q5.76-1.65,11.14-7.35a32,32,0,0,0,6.38-10.35,40.57,40.57,0,0,0,2.41-14.8,48.81,48.81,0,0,0-1.94-13.57,36,36,0,0,0-5.91-12,30.54,30.54,0,0,0-11.42-9.25,38.64,38.64,0,0,0-16.81-3.35A82.55,82.55,0,0,0,1559.68,105.94Z"/><path class="a" d="M1697.46,118.29h-.84a17.49,17.49,0,0,0-8.89-11.69,32.41,32.41,0,0,0-16.47-4.16,39.88,39.88,0,0,0-10.33,1.49,32,32,0,0,0-10.74,5.41,29.14,29.14,0,0,0-8.68,11.38q-3.45,7.44-3.45,18.74,0,18,8.39,28.76t27,10.77a42.5,42.5,0,0,0,10.77-1q3.45-1,4.42-2.72a9.58,9.58,0,0,0,1-4.65V156.51q0-5-2.17-6.64a13.62,13.62,0,0,0-6.51-2.15v-.88h25v.88a13.48,13.48,0,0,0-5.33,1.49,5.5,5.5,0,0,0-2.51,2.91,14.37,14.37,0,0,0-.63,4.7v21.44a91.1,91.1,0,0,1-23.74,3.09,74.43,74.43,0,0,1-12.5-1,42.3,42.3,0,0,1-12.86-4.65A35.56,35.56,0,0,1,1636.54,165a40,40,0,0,1-7.68-24,41.59,41.59,0,0,1,11.26-28.37,39.3,39.3,0,0,1,13.36-9.2A44.17,44.17,0,0,1,1671,100a52.63,52.63,0,0,1,7.27.49q3.56.5,10.61,2a21.33,21.33,0,0,0,4,.62,3.94,3.94,0,0,0,3.76-2.56h.84Z"/><path class="a" d="M1710.53,103.17v-.89h45.91v12.14h-.73q0-9.73-13-9.73h-16v35h14.12a19.32,19.32,0,0,0,7.47-1.36c2.2-.9,3.46-3,3.77-6.22h.78v17.46h-.78a9.44,9.44,0,0,0-1.78-4.57,6.91,6.91,0,0,0-2.59-2.12,6.06,6.06,0,0,0-2.27-.52,23.75,23.75,0,0,0-3.92-.32h-14.8v27.35a11.31,11.31,0,0,0,1.18,5.34q1.17,2.23,5.46,2.24h11.45a16.67,16.67,0,0,0,6.8-1.2,10.22,10.22,0,0,0,4.21-3.35,19.83,19.83,0,0,0,2.59-5.17h.73l-2.67,12.08h-45.91v-.84h1a7.4,7.4,0,0,0,4.81-2q2.35-2,2.35-6.48V112a11.64,11.64,0,0,0-1.59-6.17c-1.07-1.74-2.92-2.62-5.57-2.62Z"/><path class="a" d="M1041,124.88c-13.59,9-25.83,17-37.83,25.27-3.47,2.4-5.92,2.75-9.62.23-11.32-7.71-23-14.95-34.5-22.35-1.48-1-3.06-1.77-5.15-3-.15,2.27-.33,3.83-.33,5.39,0,23.41.06,46.82-.09,70.22,0,3.73.94,5.9,4.51,7.63,12.16,5.89,24,12.34,36.21,18.22a9.64,9.64,0,0,0,7.4.07c11.93-5.93,23.6-12.4,35.47-18.46,2.85-1.46,4-3.18,3.86-6.36-.22-5.8-.06-11.61-.06-17.66h26.31c0,12,.11,23.84-.14,35.67,0,1.31-1.82,3.06-3.22,3.8q-31.39,16.81-63,33.28a6.8,6.8,0,0,1-5.4,0q-32.52-16.43-64.8-33.29c-1.53-.8-3.21-3.14-3.22-4.78q-.24-69.95-.1-139.89a13,13,0,0,1,.53-2.19c7.31,4.66,14.34,9.12,21.35,13.62,14.59,9.4,29.26,18.69,43.7,28.31,3.7,2.46,6.27,2.63,10.09,0,19.62-13.39,39.47-26.43,59.25-39.58,1.32-.87,2.73-1.58,4.6-2.67v81.85H1041Z"/></svg>