<svg xmlns="http://www.w3.org/2000/svg" viewBox="0 0 1845 261"><defs><style>.a,.b,.c{fill:#172963;}.b{stroke:#172963;stroke-miterlimit:10;stroke-width:5.7px;}.c{font-size:140px;font-family:PerpetuaTitlingMT-Bold, Perpetua Titling MT;font-weight:700;}</style></defs><path class="a" d="M1136.09,65.61v.81c-1.33.16-2.27.29-2.84.4a4.6,4.6,0,0,0-1.89,1,5.79,5.79,0,0,0-2,2.31,13.56,13.56,0,0,0-.49,3.78,1.24,1.24,0,0,0,0,.85l2.41,51.7a11,11,0,0,0,1.56,5.62c1,1.58,3.1,2.38,6.37,2.41v.76h-22.53v-.76q4.42-.47,6-2.57c1-1.41,1.48-3.59,1.33-6.55l-2.41-53.49h-.19l-24.57,63.37-23.25-61h-.19l-2.5,49.33a19.63,19.63,0,0,0,.49,6.31,5.58,5.58,0,0,0,2.2,3.21,11.87,11.87,0,0,0,4.49,1.44v.76h-17.53v-.76a7.59,7.59,0,0,0,5.1-1.61,7.28,7.28,0,0,0,2.29-3.89,43.35,43.35,0,0,0,.83-6.41l2.79-51a2.29,2.29,0,0,0-.57-1,11.65,11.65,0,0,0-1.39-1.46,9.16,9.16,0,0,0-1.58-1.16,7.86,7.86,0,0,0-2.8-1.16q-1.17-.16-3.3-.3v-.81h16.16l21.55,56.94,21.87-56.94Z"/><path class="a" d="M1220,100.49a35.83,35.83,0,0,1-4.84,18.19A36.56,36.56,0,0,1,1202,132.07a35.42,35.42,0,0,1-18.52,5,36.89,36.89,0,0,1-34.09-51.25,35.55,35.55,0,0,1,8.13-11.74,37.68,37.68,0,0,1,11.9-7.75,36.85,36.85,0,0,1,39.46,7.47,36,36,0,0,1,8.2,11.76A37,37,0,0,1,1220,100.49Zm-8.32.18q0-13.89-4.91-21.73t-11.34-10.52a31.73,31.73,0,0,0-12.09-2.66,31.13,31.13,0,0,0-9.12,1.44,25.58,25.58,0,0,0-9.19,5.26,28.06,28.06,0,0,0-7.35,10.78q-2.88,6.95-2.88,17.15a46.65,46.65,0,0,0,2.38,15.67,29.22,29.22,0,0,0,6.57,10.91,25.42,25.42,0,0,0,9.21,6.1,29.74,29.74,0,0,0,20.32.14,25.45,25.45,0,0,0,9.12-5.62,28.21,28.21,0,0,0,6.71-10.59A45.54,45.54,0,0,0,1211.68,100.67Z"/><path class="a" d="M1303.74,100.49a35.84,35.84,0,0,1-4.85,18.19,36.61,36.61,0,0,1-13.2,13.39,35.47,35.47,0,0,1-18.52,5,36.75,36.75,0,0,1-37-36.86,35.84,35.84,0,0,1,11-26.13,37.73,37.73,0,0,1,11.91-7.75,36.84,36.84,0,0,1,39.45,7.47,35.89,35.89,0,0,1,8.2,11.76A36.81,36.81,0,0,1,1303.74,100.49Zm-8.32.18q0-13.89-4.91-21.73t-11.34-10.52a31.81,31.81,0,0,0-12.1-2.66A31.24,31.24,0,0,0,1258,67.2a25.74,25.74,0,0,0-9.19,5.26,28.06,28.06,0,0,0-7.35,10.78q-2.88,6.95-2.88,17.15a46.64,46.64,0,0,0,2.39,15.67,29.2,29.2,0,0,0,6.56,10.91,25.37,25.37,0,0,0,9.22,6.1,29.74,29.74,0,0,0,20.32.14,25.32,25.32,0,0,0,9.11-5.62,28.22,28.22,0,0,0,6.72-10.59A45.76,45.76,0,0,0,1295.42,100.67Z"/><path class="a" d="M1313.14,66.61h-1v-1h24.1a24.11,24.11,0,0,1,9.85,1.8,16.56,16.56,0,0,1,6.29,4.56,17.64,17.64,0,0,1,3.21,5.84,19.84,19.84,0,0,1,1,6,17.42,17.42,0,0,1-1.58,7.26,15.61,15.61,0,0,1-4.87,6,18.92,18.92,0,0,1-8.19,3.41v.18q6.22,3,11.52,12l6.29,10.63c2.83,4.75,5.11,7.77,6.83,9a10.19,10.19,0,0,0,5.07,2.13v.76H1359c-.53-.7-1-1.37-1.51-2l-1.51-2.06c-.32-.47-.78-1.19-1.4-2.15a16,16,0,0,0-1.11-1.63l-8.31-13.75a35,35,0,0,0-5.13-6.83,19.73,19.73,0,0,0-4.89-3.75,14.09,14.09,0,0,0-4.09-1.42,28,28,0,0,0-4.27-.28V126.8q0,7.42,7.56,7.66v.76h-22.17v-.76a10.43,10.43,0,0,0,3.69-.78,5.85,5.85,0,0,0,2.67-2.36,8.38,8.38,0,0,0,1.06-4.52V74.17c0-2.78-.67-4.73-2-5.86A6.72,6.72,0,0,0,1313.14,66.61Zm13.66,32.88h4A25,25,0,0,0,1341,97.7a11.81,11.81,0,0,0,5.8-5.13,17.07,17.07,0,0,0,1.79-8.15,20.29,20.29,0,0,0-1.61-7.87,14.56,14.56,0,0,0-5.46-6.47q-3.84-2.62-10.37-2.62a18.54,18.54,0,0,0-4.34.42Z"/><path class="a" d="M1401.79,135.22h-26v-.76h.94a6.23,6.23,0,0,0,4.56-1.91c1.28-1.28,1.92-3.19,1.92-5.75V74.26a8.55,8.55,0,0,0-1.78-5.79,6,6,0,0,0-4.79-2h-.85v-.81h22.72a25.43,25.43,0,0,1,8.27,1.3,19.22,19.22,0,0,1,6.41,3.59,16.64,16.64,0,0,1,4,5.2A14.13,14.13,0,0,1,1418.6,82a13.56,13.56,0,0,1-4.06,10.21A24.65,24.65,0,0,1,1403.63,98v.19a50.74,50.74,0,0,1,6,1,22.19,22.19,0,0,1,5.19,1.85,18.71,18.71,0,0,1,4.35,3.07,18.3,18.3,0,0,1,3.12,3.73,16.69,16.69,0,0,1,1.94,4.42,18.25,18.25,0,0,1,.66,4.89,15.64,15.64,0,0,1-2.81,9.35,20.27,20.27,0,0,1-6.36,6Q1410.67,135.22,1401.79,135.22Zm-11.44-37.66h4.53q5.58,0,7.94-1.14a16.88,16.88,0,0,0,3.15-2.08,13.14,13.14,0,0,0,3.11-4.16,14.47,14.47,0,0,0,1.49-6.85,17.74,17.74,0,0,0-1-5.93,15.25,15.25,0,0,0-2.88-5,13.6,13.6,0,0,0-4.49-3.4,13.07,13.07,0,0,0-5.67-1.23,21.78,21.78,0,0,0-6.19,1Zm7.14,2.12h-7.14v25.09a15.06,15.06,0,0,0,.5,4.19,5.2,5.2,0,0,0,2.71,2.9c1.48.82,3.77,1.23,6.85,1.23q9.6,0,13.66-6.38a19,19,0,0,0,1.4-17.06,15,15,0,0,0-3.83-5.36,17.65,17.65,0,0,0-6.12-3.38A25.27,25.27,0,0,0,1397.49,99.68Z"/><path class="a" d="M1432.07,66.61h-.94v-1h24.1a24.14,24.14,0,0,1,9.85,1.8,16.59,16.59,0,0,1,6.28,4.56,17.68,17.68,0,0,1,3.22,5.84,20.13,20.13,0,0,1,1,6,17.27,17.27,0,0,1-1.58,7.26,15.61,15.61,0,0,1-4.87,6,18.92,18.92,0,0,1-8.19,3.41v.18q6.24,3,11.53,12l6.28,10.63c2.84,4.75,5.11,7.77,6.83,9a10.18,10.18,0,0,0,5.08,2.13v.76H1478c-.54-.7-1-1.37-1.52-2l-1.51-2.06c-.31-.47-.78-1.19-1.39-2.15s-1-1.5-1.11-1.63l-8.32-13.75a35,35,0,0,0-5.13-6.83,19.73,19.73,0,0,0-4.89-3.75,14.09,14.09,0,0,0-4.09-1.42,28,28,0,0,0-4.27-.28V126.8q0,7.42,7.56,7.66v.76h-22.16v-.76a10.42,10.42,0,0,0,3.68-.78,5.85,5.85,0,0,0,2.67-2.36,8.38,8.38,0,0,0,1.06-4.52V74.17c0-2.78-.67-4.73-2-5.86A6.72,6.72,0,0,0,1432.07,66.61Zm13.66,32.88h4a25.05,25.05,0,0,0,10.23-1.79,11.83,11.83,0,0,0,5.79-5.13,17.07,17.07,0,0,0,1.79-8.15,20.47,20.47,0,0,0-1.6-7.87,14.69,14.69,0,0,0-5.46-6.47q-3.85-2.62-10.38-2.62a18.54,18.54,0,0,0-4.34.42Z"/><path class="a" d="M1516.94,65.61v.81a8.22,8.22,0,0,0-5.3,1.74c-1.44,1.17-2.17,3.11-2.17,5.82V126.8q0,4,2.32,5.84a8.14,8.14,0,0,0,5.15,1.82v.76h-22.07v-.76a8,8,0,0,0,5.22-1.77q2.21-1.77,2.2-5.89V74c0-2.9-.73-4.88-2.2-6a8.59,8.59,0,0,0-5.22-1.6v-.81Z"/><path class="a" d="M1524.07,66.42v-.81h26.79a52.47,52.47,0,0,1,10.38,1,44.34,44.34,0,0,1,8.5,2.58,35.82,35.82,0,0,1,6.5,3.52,29.58,29.58,0,0,1,4.63,3.9,34.55,34.55,0,0,1,9.1,15.87,37.08,37.08,0,0,1,1.15,9.27,35.72,35.72,0,0,1-1.13,9.07,32.17,32.17,0,0,1-3.26,8,32.94,32.94,0,0,1-5.08,6.64,36.45,36.45,0,0,1-6.88,5.38,31.94,31.94,0,0,1-7.7,3.22,44.85,44.85,0,0,1-11.76,1.23h-31.24v-.76h1a5.43,5.43,0,0,0,4.87-2.46,9.32,9.32,0,0,0,1.6-5.2V74.26a10.16,10.16,0,0,0-.87-4.44,5.76,5.76,0,0,0-2.34-2.6,6.75,6.75,0,0,0-3.26-.8Zm14.6,2.5v55.15c0,2.7.44,4.7,1.3,6a6.11,6.11,0,0,0,4,2.48,42.43,42.43,0,0,0,8,.57,47,47,0,0,0,12.75-1.49,22.68,22.68,0,0,0,10.07-6.64,29.09,29.09,0,0,0,5.76-9.35,36.62,36.62,0,0,0,2.18-13.38A44,44,0,0,0,1581.06,90a32.64,32.64,0,0,0-5.34-10.79,27.59,27.59,0,0,0-10.33-8.37,34.91,34.91,0,0,0-15.18-3A73.56,73.56,0,0,0,1538.67,68.92Z"/><path class="a" d="M1663.18,80.07h-.76a15.81,15.81,0,0,0-8-10.56,29.27,29.27,0,0,0-14.88-3.75,35.72,35.72,0,0,0-9.33,1.34,28.67,28.67,0,0,0-9.71,4.89,26.33,26.33,0,0,0-7.85,10.28q-3.12,6.74-3.11,16.94,0,16.26,7.58,26t24.36,9.73a38.74,38.74,0,0,0,9.73-.89q3.12-.9,4-2.46a8.53,8.53,0,0,0,.88-4.21V114.61c0-3-.66-5-2-6a12.38,12.38,0,0,0-5.89-1.93v-.81h22.64v.81A12.09,12.09,0,0,0,1666,108a5,5,0,0,0-2.27,2.62,13.08,13.08,0,0,0-.57,4.26v19.37a82.39,82.39,0,0,1-21.45,2.79,68.53,68.53,0,0,1-11.29-.94,38.5,38.5,0,0,1-11.63-4.21,32.11,32.11,0,0,1-10.68-9.64,36.09,36.09,0,0,1-6.94-21.69A37.56,37.56,0,0,1,1611.37,75a35.23,35.23,0,0,1,12.07-8.32,40,40,0,0,1,15.83-3,47.27,47.27,0,0,1,6.57.45q3.21.45,9.59,1.82a18.68,18.68,0,0,0,3.59.57,3.57,3.57,0,0,0,3.4-2.32h.76Z"/><path class="a" d="M1675,66.42v-.81h41.49v11h-.66q0-8.79-11.72-8.79h-14.5V99.4h12.75a17.56,17.56,0,0,0,6.76-1.23q3-1.23,3.4-5.62h.71v15.78h-.71a8.64,8.64,0,0,0-1.6-4.14,6.42,6.42,0,0,0-2.34-1.91,5.64,5.64,0,0,0-2.06-.47,21.34,21.34,0,0,0-3.54-.28H1689.6v24.71a10.26,10.26,0,0,0,1.06,4.82c.71,1.35,2.35,2,4.94,2h10.34a15,15,0,0,0,6.15-1.09,9.19,9.19,0,0,0,3.8-3,18,18,0,0,0,2.34-4.68h.66l-2.41,10.92H1675v-.76h1a6.71,6.71,0,0,0,4.35-1.8c1.41-1.19,2.12-3.15,2.12-5.86V74.35a10.41,10.41,0,0,0-1.44-5.57c-1-1.57-2.63-2.36-5-2.36Z"/><path class="a" d="M1576.17,185c-1.88,6.3-6.53,11.07-14.94,11.07-11.42,0-17.44-9.08-17.44-20.27,0-10.74,5.91-20.51,17.5-20.51,8.57,0,13.63,4.77,14.93,11.42h-3.06c-1.82-5.17-5.17-8.58-12-8.58-9.89,0-14,9-14,17.61s4.09,17.49,14.25,17.49c6.48,0,9.77-3.35,11.76-8.23Z"/><path class="a" d="M1594.51,195.66V180.72a2,2,0,0,0-.22-.91l-14.2-23.91h3.58c4,6.76,10.9,18.52,12.61,21.47,1.7-3,8.69-14.6,13-21.47h3.4L1597.81,180a1.77,1.77,0,0,0-.17.85v14.77Z"/><path class="a" d="M1618.14,155.9H1632c7.61,0,11.7,4,11.7,9.77,0,4.71-2.84,7.78-6.13,8.69a10,10,0,0,1,7.55,9.83c0,7.95-6,11.47-12.89,11.47h-14.09ZM1631,173c6.87,0,9.49-2.56,9.49-7.16,0-3.92-2.73-7.1-8.3-7.1h-11V173Zm-9.83,19.82h11.19c5.23,0,9.6-2.61,9.6-8.46,0-5.06-3.24-8.52-11.24-8.52h-9.55Z"/><path class="a" d="M1677.56,176.12h-20.28v16.7h22.21l-.46,2.84h-24.82V155.9h24.37v2.84h-21.3v14.54h20.28Z"/><path class="a" d="M1690.45,177.09v18.57h-3.12V155.9h14.25c7.84,0,12,4.2,12,10.45a9,9,0,0,1-7.44,9.32c4.09,1,6.81,3.63,6.81,10.39v1.53c0,2.79-.23,6.54.51,8.07h-3.12c-.74-1.71-.57-4.89-.57-8.29v-1c0-6.53-1.93-9.25-9.54-9.25Zm0-2.84h9.6c7,0,10.22-2.62,10.22-7.84,0-4.89-3.18-7.67-9.37-7.67h-10.45Z"/><line class="b" x1="1515.15" y1="176.1" x2="1058.71" y2="176.1"/><path class="a" d="M999.39,87.78c-13.5,9-25.68,16.89-37.62,25.14-3.45,2.38-5.88,2.73-9.56.23C941,105.48,929.37,98.28,917.9,90.92c-1.48-1-3-1.76-5.13-3-.14,2.25-.32,3.8-.32,5.36,0,23.27.06,46.55-.09,69.83,0,3.71.94,5.86,4.49,7.58,12.09,5.86,23.91,12.28,36,18.12a9.51,9.51,0,0,0,7.35.07c11.87-5.9,23.48-12.32,35.28-18.36,2.83-1.44,4-3.16,3.84-6.32-.23-5.77-.06-11.54-.06-17.56h26.16c0,11.93.11,23.7-.14,35.47,0,1.31-1.81,3-3.2,3.78q-31.22,16.73-62.61,33.1a6.77,6.77,0,0,1-5.37,0q-32.34-16.33-64.45-33.1c-1.52-.79-3.19-3.13-3.19-4.75q-.26-69.56-.1-139.12a12.35,12.35,0,0,1,.52-2.18c7.27,4.64,14.27,9.07,21.23,13.55,14.52,9.34,29.1,18.58,43.47,28.15,3.67,2.44,6.23,2.61,10,0,19.51-13.31,39.25-26.29,58.92-39.36,1.31-.87,2.71-1.58,4.58-2.65V121H999.39Z"/><text class="c" transform="translate(37.29 172.55)">W</text><text class="c" transform="translate(188.91 172.55) scale(0.7)">HY</text><text class="c" transform="translate(354.39 172.55)"><tspan xml:space="preserve"> C</tspan></text><text class="c" transform="translate(502.59 172.55) scale(0.7)">HOOSE</text><text class="c" transform="translate(855.83 172.55)"><tspan xml:space="preserve">                   ?</tspan></text></svg>